<svg width="71" height="70" viewBox="0 0 71 70" fill="none" xmlns="http://www.w3.org/2000/svg">
<circle cx="35.041" cy="35" r="35" fill="#5357E0"/>
<path d="M43.75 23.75H26.25C24.875 23.75 23.75 24.875 23.75 26.25V43.75C23.75 45.125 24.875 46.25 26.25 46.25H43.75C45.125 46.25 46.25 45.125 46.25 43.75V26.25C46.25 24.875 45.125 23.75 43.75 23.75ZM28.75 28.75H31.25V31.25H28.75V28.75ZM28.75 33.75H31.25V36.25H28.75V33.75ZM28.75 38.75H31.25V41.25H28.75V38.75ZM41.25 41.25H33.75V38.75H41.25V41.25ZM41.25 36.25H33.75V33.75H41.25V36.25ZM41.25 31.25H33.75V28.75H41.25V31.25Z" fill="white"/>
</svg>
