<svg width="71" height="70" viewBox="0 0 71 70" fill="none" xmlns="http://www.w3.org/2000/svg">
<circle cx="35.041" cy="35" r="35" fill="#9B98FE"/>
<path d="M45 22.5H25V25L32.2625 30.45C27.675 31.9625 25.175 36.9125 26.6875 41.5C28.2 46.0875 33.125 48.5875 37.7375 47.075C42.325 45.5625 44.825 40.625 43.3125 36.025C42.4375 33.3875 40.375 31.3125 37.7375 30.45L45 25V22.5ZM38.675 44.375L35 42.225L31.325 44.375L32.3 40.2125L29.0625 37.4125L33.325 37.05L35 33.125L36.675 37.05L40.9375 37.4125L37.7 40.2125L38.675 44.375Z" fill="white"/>
</svg>
