<svg width="71" height="70" viewBox="0 0 71 70" fill="none" xmlns="http://www.w3.org/2000/svg">
<circle cx="35.041" cy="35" r="35" fill="#CE98FE"/>
<path d="M41.25 33.125V28.75C41.25 28.4185 41.1183 28.1005 40.8839 27.8661C40.6495 27.6317 40.3315 27.5 40 27.5H25C24.6685 27.5 24.3505 27.6317 24.1161 27.8661C23.8817 28.1005 23.75 28.4185 23.75 28.75V41.25C23.75 41.5815 23.8817 41.8995 24.1161 42.1339C24.3505 42.3683 24.6685 42.5 25 42.5H40C40.3315 42.5 40.6495 42.3683 40.8839 42.1339C41.1183 41.8995 41.25 41.5815 41.25 41.25V36.875L46.25 41.875V28.125L41.25 33.125Z" fill="white"/>
</svg>
