<svg width="71" height="70" viewBox="0 0 71 70" fill="none" xmlns="http://www.w3.org/2000/svg">
<circle cx="35.041" cy="35" r="35" fill="#57BFE3"/>
<path d="M33.75 45H28.125C26.225 45 24.6042 44.3458 23.2625 43.0375C21.9208 41.7208 21.25 40.1167 21.25 38.225C21.25 36.6 21.7375 35.15 22.7125 33.875C23.6958 32.6 24.9792 31.7875 26.5625 31.4375C27.0875 29.5208 28.1292 27.9708 29.6875 26.7875C31.2542 25.5958 33.025 25 35 25C37.4417 25 39.5083 25.85 41.2 27.55C42.9 29.2417 43.75 31.3083 43.75 33.75C45.1917 33.9167 46.3833 34.5417 47.325 35.625C48.275 36.6917 48.75 37.9417 48.75 39.375C48.75 40.9417 48.2042 42.2708 47.1125 43.3625C46.0208 44.4542 44.6917 45 43.125 45H36.25V36.0625L38.25 38L40 36.25L35 31.25L30 36.25L31.75 38L33.75 36.0625V45Z" fill="white"/>
</svg>
