<svg width="153" height="148" viewBox="0 0 153 148" fill="none" xmlns="http://www.w3.org/2000/svg">
<rect x="21.2734" y="22.6953" width="108.645" height="108.645" rx="54.3227" fill="#8B84E1" fill-opacity="0.5"/>
<path d="M104.334 68.194L72.2319 100.294C71.8605 100.666 71.4195 100.96 70.9341 101.161C70.4487 101.362 69.9285 101.466 69.4031 101.466C68.8778 101.466 68.3576 101.362 67.8722 101.161C67.3868 100.96 66.9458 100.666 66.5744 100.294L48.6694 82.294C47.9206 81.5441 47.5 80.5276 47.5 79.4678C47.5 78.408 47.9206 77.3915 48.6694 76.6415L54.6694 70.6415C55.417 69.8938 56.4302 69.4724 57.4876 69.4696C58.5449 69.4668 59.5604 69.8828 60.3119 70.6265L69.4719 79.444L69.4994 79.4715L92.6819 56.629C93.4316 55.8825 94.4464 55.4634 95.5044 55.4634C96.5624 55.4634 97.5772 55.8825 98.3269 56.629L104.327 62.519C104.702 62.8903 104.999 63.332 105.202 63.8187C105.406 64.3054 105.511 64.8275 105.511 65.355C105.512 65.8824 105.408 66.4048 105.206 66.8921C105.004 67.3793 104.708 67.8218 104.334 68.194Z" fill="#2E36CE"/>
<path d="M12.893 28.3713C12.9327 28.2621 13.005 28.1677 13.1002 28.101C13.1953 28.0343 13.3087 27.9985 13.4249 27.9985C13.5412 27.9985 13.6545 28.0343 13.7497 28.101C13.8449 28.1677 13.9172 28.2621 13.9568 28.3713L14.4978 29.8494C14.9215 31.0084 15.5931 32.0609 16.4657 32.9335C17.3383 33.8061 18.3908 34.4777 19.5498 34.9014L21.0267 35.4423C21.136 35.482 21.2303 35.5543 21.297 35.6495C21.3637 35.7446 21.3995 35.858 21.3995 35.9743C21.3995 36.0905 21.3637 36.2039 21.297 36.299C21.2303 36.3942 21.136 36.4665 21.0267 36.5062L19.5498 37.0471C18.3908 37.4708 17.3383 38.1424 16.4657 39.015C15.5931 39.8876 14.9215 40.9401 14.4978 42.0991L13.9568 43.576C13.9172 43.6853 13.8449 43.7797 13.7497 43.8464C13.6545 43.9131 13.5412 43.9488 13.4249 43.9488C13.3087 43.9488 13.1953 43.9131 13.1002 43.8464C13.005 43.7797 12.9327 43.6853 12.893 43.576L12.3521 42.0991C11.9283 40.9401 11.2567 39.8876 10.3842 39.015C9.51158 38.1424 8.45905 37.4708 7.30005 37.0471L5.82202 36.5062C5.71278 36.4665 5.6184 36.3942 5.5517 36.299C5.485 36.2039 5.44922 36.0905 5.44922 35.9743C5.44922 35.858 5.485 35.7446 5.5517 35.6495C5.6184 35.5543 5.71278 35.482 5.82202 35.4423L7.30005 34.9014C8.45905 34.4777 9.51158 33.8061 10.3842 32.9335C11.2567 32.0609 11.9283 31.0084 12.3521 29.8494L12.893 28.3713Z" fill="#57BFE3"/>
<g clip-path="url(#clip0_103_2326)">
<path d="M115.681 134.119C115.708 134.046 115.756 133.983 115.819 133.938C115.883 133.894 115.958 133.87 116.036 133.87C116.113 133.87 116.189 133.894 116.252 133.938C116.316 133.983 116.364 134.046 116.391 134.119L116.751 135.104C117.034 135.877 117.481 136.578 118.063 137.16C118.645 137.742 119.346 138.19 120.119 138.472L121.104 138.833C121.177 138.859 121.24 138.907 121.284 138.971C121.328 139.034 121.352 139.11 121.352 139.187C121.352 139.265 121.328 139.34 121.284 139.404C121.24 139.467 121.177 139.515 121.104 139.542L120.119 139.903C119.346 140.185 118.645 140.633 118.063 141.214C117.481 141.796 117.034 142.498 116.751 143.271L116.391 144.255C116.364 144.328 116.316 144.391 116.252 144.435C116.189 144.48 116.113 144.504 116.036 144.504C115.958 144.504 115.883 144.48 115.819 144.435C115.756 144.391 115.708 144.328 115.681 144.255L115.321 143.271C115.038 142.498 114.59 141.796 114.009 141.214C113.427 140.633 112.725 140.185 111.953 139.903L110.967 139.542C110.894 139.515 110.832 139.467 110.787 139.404C110.743 139.34 110.719 139.265 110.719 139.187C110.719 139.11 110.743 139.034 110.787 138.971C110.832 138.907 110.894 138.859 110.967 138.833L111.953 138.472C112.725 138.19 113.427 137.742 114.009 137.16C114.59 136.578 115.038 135.877 115.321 135.104L115.681 134.119Z" fill="#57BFE3"/>
</g>
<path d="M129.385 18.1106C129.425 18.0014 129.497 17.907 129.592 17.8403C129.688 17.7736 129.801 17.7378 129.917 17.7378C130.033 17.7378 130.147 17.7736 130.242 17.8403C130.337 17.907 130.409 18.0014 130.449 18.1106L130.99 19.5886C131.414 20.7476 132.085 21.8002 132.958 22.6727C133.83 23.5453 134.883 24.2169 136.042 24.6406L137.519 25.1816C137.628 25.2213 137.723 25.2936 137.789 25.3887C137.856 25.4839 137.892 25.5973 137.892 25.7135C137.892 25.8297 137.856 25.9431 137.789 26.0383C137.723 26.1335 137.628 26.2058 137.519 26.2454L136.042 26.7864C134.883 27.2101 133.83 27.8817 132.958 28.7543C132.085 29.6269 131.414 30.6794 130.99 31.8384L130.449 33.3153C130.409 33.4245 130.337 33.5189 130.242 33.5856C130.147 33.6523 130.033 33.6881 129.917 33.6881C129.801 33.6881 129.688 33.6523 129.592 33.5856C129.497 33.5189 129.425 33.4245 129.385 33.3153L128.844 31.8384C128.421 30.6794 127.749 29.6269 126.876 28.7543C126.004 27.8817 124.951 27.2101 123.792 26.7864L122.314 26.2454C122.205 26.2058 122.111 26.1335 122.044 26.0383C121.977 25.9431 121.941 25.8297 121.941 25.7135C121.941 25.5973 121.977 25.4839 122.044 25.3887C122.111 25.2936 122.205 25.2213 122.314 25.1816L123.792 24.6406C124.951 24.2169 126.004 23.5453 126.876 22.6727C127.749 21.8002 128.421 20.7476 128.844 19.5886L129.385 18.1106Z" fill="#57BFE3"/>
<g clip-path="url(#clip1_103_2326)">
<path d="M29.2988 121.637C29.3305 121.549 29.3884 121.474 29.4645 121.42C29.5406 121.367 29.6314 121.338 29.7243 121.338C29.8173 121.338 29.908 121.367 29.9841 121.42C30.0603 121.474 30.1181 121.549 30.1499 121.637L30.5826 122.819C30.9216 123.746 31.4589 124.588 32.1569 125.286C32.855 125.984 33.697 126.522 34.6242 126.861L35.8058 127.293C35.8931 127.325 35.9687 127.383 36.022 127.459C36.0754 127.535 36.104 127.626 36.104 127.719C36.104 127.812 36.0754 127.903 36.022 127.979C35.9687 128.055 35.8931 128.113 35.8058 128.144L34.6242 128.577C33.697 128.916 32.855 129.454 32.1569 130.152C31.4589 130.85 30.9216 131.692 30.5826 132.619L30.1499 133.8C30.1181 133.888 30.0603 133.963 29.9841 134.017C29.908 134.07 29.8173 134.099 29.7243 134.099C29.6314 134.099 29.5406 134.07 29.4645 134.017C29.3884 133.963 29.3305 133.888 29.2988 133.8L28.866 132.619C28.5271 131.692 27.9898 130.85 27.2917 130.152C26.5936 129.454 25.7516 128.916 24.8244 128.577L23.642 128.144C23.5546 128.113 23.4791 128.055 23.4257 127.979C23.3724 127.903 23.3438 127.812 23.3438 127.719C23.3438 127.626 23.3724 127.535 23.4257 127.459C23.4791 127.383 23.5546 127.325 23.642 127.293L24.8244 126.861C25.7516 126.522 26.5936 125.984 27.2917 125.286C27.9898 124.588 28.5271 123.746 28.866 122.819L29.2988 121.637Z" fill="#57BFE3"/>
</g>
<g clip-path="url(#clip2_103_2326)">
<path d="M144.584 89.6469C144.616 89.5595 144.674 89.484 144.75 89.4306C144.826 89.3773 144.917 89.3486 145.009 89.3486C145.102 89.3486 145.193 89.3773 145.269 89.4306C145.345 89.484 145.403 89.5595 145.435 89.6469L145.868 90.8293C146.207 91.7565 146.744 92.5985 147.442 93.2966C148.14 93.9947 148.982 94.5319 149.909 94.8709L151.091 95.3037C151.178 95.3354 151.254 95.3933 151.307 95.4694C151.361 95.5455 151.389 95.6362 151.389 95.7292C151.389 95.8222 151.361 95.9129 151.307 95.989C151.254 96.0652 151.178 96.123 151.091 96.1547L149.909 96.5875C148.982 96.9265 148.14 97.4638 147.442 98.1618C146.744 98.8599 146.207 99.7019 145.868 100.629L145.435 101.811C145.403 101.898 145.345 101.974 145.269 102.027C145.193 102.08 145.102 102.109 145.009 102.109C144.917 102.109 144.826 102.08 144.75 102.027C144.674 101.974 144.616 101.898 144.584 101.811L144.151 100.629C143.812 99.7019 143.275 98.8599 142.577 98.1618C141.879 97.4638 141.037 96.9265 140.11 96.5875L138.927 96.1547C138.84 96.123 138.764 96.0652 138.711 95.989C138.658 95.9129 138.629 95.8222 138.629 95.7292C138.629 95.6362 138.658 95.5455 138.711 95.4694C138.764 95.3933 138.84 95.3354 138.927 95.3037L140.11 94.8709C141.037 94.5319 141.879 93.9947 142.577 93.2966C143.275 92.5985 143.812 91.7565 144.151 90.8293L144.584 89.6469Z" fill="#57BFE3"/>
</g>
<g clip-path="url(#clip3_103_2326)">
<path d="M69.1347 7.55899C69.1665 7.47159 69.2243 7.39609 69.3004 7.34273C69.3766 7.28937 69.4673 7.26074 69.5603 7.26074C69.6532 7.26074 69.7439 7.28937 69.8201 7.34273C69.8962 7.39609 69.9541 7.47159 69.9858 7.55899L70.4186 8.74141C70.7575 9.6686 71.2948 10.5106 71.9929 11.2087C72.6909 11.9068 73.533 12.444 74.4602 12.783L75.6417 13.2158C75.7291 13.2475 75.8046 13.3054 75.8579 13.3815C75.9113 13.4576 75.9399 13.5483 75.9399 13.6413C75.9399 13.7343 75.9113 13.825 75.8579 13.9011C75.8046 13.9773 75.7291 14.0351 75.6417 14.0668L74.4602 14.4996C73.533 14.8386 72.6909 15.3759 71.9929 16.0739C71.2948 16.772 70.7575 17.614 70.4186 18.5412L69.9858 19.7227C69.9541 19.8101 69.8962 19.8856 69.8201 19.939C69.7439 19.9924 69.6532 20.021 69.5603 20.021C69.4673 20.021 69.3766 19.9924 69.3004 19.939C69.2243 19.8856 69.1665 19.8101 69.1347 19.7227L68.702 18.5412C68.363 17.614 67.8257 16.772 67.1276 16.0739C66.4296 15.3759 65.5875 14.8386 64.6604 14.4996L63.4779 14.0668C63.3905 14.0351 63.315 13.9773 63.2617 13.9011C63.2083 13.825 63.1797 13.7343 63.1797 13.6413C63.1797 13.5483 63.2083 13.4576 63.2617 13.3815C63.315 13.3054 63.3905 13.2475 63.4779 13.2158L64.6604 12.783C65.5875 12.444 66.4296 11.9068 67.1276 11.2087C67.8257 10.5106 68.363 9.6686 68.702 8.74141L69.1347 7.55899Z" fill="#57BFE3"/>
</g>
<g clip-path="url(#clip4_103_2326)">
<path d="M84.9661 1.74033C84.9873 1.68207 85.0258 1.63173 85.0766 1.59616C85.1274 1.56059 85.1878 1.5415 85.2498 1.5415C85.3118 1.5415 85.3723 1.56059 85.423 1.59616C85.4738 1.63173 85.5124 1.68207 85.5335 1.74033L85.822 2.52862C86.048 3.14674 86.4062 3.7081 86.8716 4.17347C87.3369 4.63885 87.8983 4.99704 88.5164 5.22302L89.3041 5.51154C89.3624 5.53268 89.4127 5.57125 89.4483 5.62201C89.4838 5.67276 89.5029 5.73324 89.5029 5.79522C89.5029 5.8572 89.4838 5.91768 89.4483 5.96843C89.4127 6.01919 89.3624 6.05776 89.3041 6.07891L88.5164 6.36742C87.8983 6.5934 87.3369 6.95159 86.8716 7.41697C86.4062 7.88235 86.048 8.4437 85.822 9.06183L85.5335 9.84951C85.5124 9.90777 85.4738 9.95811 85.423 9.99368C85.3723 10.0293 85.3118 10.0483 85.2498 10.0483C85.1878 10.0483 85.1274 10.0293 85.0766 9.99368C85.0258 9.95811 84.9873 9.90777 84.9661 9.84951L84.6776 9.06183C84.4516 8.4437 84.0934 7.88235 83.6281 7.41697C83.1627 6.95159 82.6013 6.5934 81.9832 6.36742L81.1949 6.07891C81.1367 6.05776 81.0863 6.01919 81.0508 5.96843C81.0152 5.91768 80.9961 5.8572 80.9961 5.79522C80.9961 5.73324 81.0152 5.67276 81.0508 5.62201C81.0863 5.57125 81.1367 5.53268 81.1949 5.51154L81.9832 5.22302C82.6013 4.99704 83.1627 4.63885 83.6281 4.17347C84.0934 3.7081 84.4516 3.14674 84.6776 2.52862L84.9661 1.74033Z" fill="#57BFE3"/>
</g>
<g clip-path="url(#clip5_103_2326)">
<path d="M24.0052 2.94736C24.0263 2.8891 24.0649 2.83876 24.1157 2.80319C24.1664 2.76762 24.2269 2.74854 24.2889 2.74854C24.3509 2.74854 24.4113 2.76762 24.4621 2.80319C24.5128 2.83876 24.5514 2.8891 24.5726 2.94736L24.8611 3.73565C25.0871 4.35378 25.4452 4.91513 25.9106 5.38051C26.376 5.84588 26.9373 6.20407 27.5555 6.43005L28.3432 6.71857C28.4014 6.73971 28.4518 6.77829 28.4873 6.82904C28.5229 6.8798 28.542 6.94027 28.542 7.00225C28.542 7.06423 28.5229 7.12471 28.4873 7.17546C28.4518 7.22622 28.4014 7.26479 28.3432 7.28594L27.5555 7.57445C26.9373 7.80044 26.376 8.15862 25.9106 8.624C25.4452 9.08938 25.0871 9.65073 24.8611 10.2689L24.5726 11.0565C24.5514 11.1148 24.5128 11.1651 24.4621 11.2007C24.4113 11.2363 24.3509 11.2554 24.2889 11.2554C24.2269 11.2554 24.1664 11.2363 24.1157 11.2007C24.0649 11.1651 24.0263 11.1148 24.0052 11.0565L23.7167 10.2689C23.4907 9.65073 23.1325 9.08938 22.6671 8.624C22.2017 8.15862 21.6404 7.80044 21.0223 7.57445L20.234 7.28594C20.1757 7.26479 20.1254 7.22622 20.0898 7.17546C20.0542 7.12471 20.0352 7.06423 20.0352 7.00225C20.0352 6.94027 20.0542 6.8798 20.0898 6.82904C20.1254 6.77829 20.1757 6.73971 20.234 6.71857L21.0223 6.43005C21.6404 6.20407 22.2017 5.84588 22.6671 5.38051C23.1325 4.91513 23.4907 4.35378 23.7167 3.73565L24.0052 2.94736Z" fill="#57BFE3"/>
</g>
<g clip-path="url(#clip6_103_2326)">
<path d="M141.704 72.9635C141.726 72.9052 141.764 72.8549 141.815 72.8193C141.866 72.7837 141.926 72.7646 141.988 72.7646C142.05 72.7646 142.111 72.7837 142.161 72.8193C142.212 72.8549 142.251 72.9052 142.272 72.9635L142.56 73.7518C142.786 74.3699 143.144 74.9312 143.61 75.3966C144.075 75.862 144.637 76.2202 145.255 76.4462L146.042 76.7347C146.101 76.7558 146.151 76.7944 146.187 76.8452C146.222 76.8959 146.241 76.9564 146.241 77.0184C146.241 77.0803 146.222 77.1408 146.187 77.1916C146.151 77.2423 146.101 77.2809 146.042 77.3021L145.255 77.5906C144.637 77.8165 144.075 78.1747 143.61 78.6401C143.144 79.1055 142.786 79.6668 142.56 80.285L142.272 81.0727C142.251 81.1309 142.212 81.1812 142.161 81.2168C142.111 81.2524 142.05 81.2715 141.988 81.2715C141.926 81.2715 141.866 81.2524 141.815 81.2168C141.764 81.1812 141.726 81.1309 141.704 81.0727L141.416 80.285C141.19 79.6668 140.832 79.1055 140.366 78.6401C139.901 78.1747 139.34 77.8165 138.721 77.5906L137.933 77.3021C137.875 77.2809 137.825 77.2423 137.789 77.1916C137.753 77.1408 137.734 77.0803 137.734 77.0184C137.734 76.9564 137.753 76.8959 137.789 76.8452C137.825 76.7944 137.875 76.7558 137.933 76.7347L138.721 76.4462C139.34 76.2202 139.901 75.862 140.366 75.3966C140.832 74.9312 141.19 74.3699 141.416 73.7518L141.704 72.9635Z" fill="#57BFE3"/>
</g>
<g clip-path="url(#clip7_103_2326)">
<path d="M129.634 115.214C129.655 115.156 129.694 115.106 129.745 115.07C129.795 115.035 129.856 115.016 129.918 115.016C129.98 115.016 130.04 115.035 130.091 115.07C130.142 115.106 130.18 115.156 130.201 115.214L130.49 116.003C130.716 116.621 131.074 117.182 131.54 117.648C132.005 118.113 132.566 118.471 133.184 118.697L133.972 118.986C134.03 119.007 134.081 119.045 134.116 119.096C134.152 119.147 134.171 119.207 134.171 119.269C134.171 119.331 134.152 119.392 134.116 119.443C134.081 119.493 134.03 119.532 133.972 119.553L133.184 119.842C132.566 120.068 132.005 120.426 131.54 120.891C131.074 121.356 130.716 121.918 130.49 122.536L130.201 123.324C130.18 123.382 130.142 123.432 130.091 123.468C130.04 123.503 129.98 123.522 129.918 123.522C129.856 123.522 129.795 123.503 129.745 123.468C129.694 123.432 129.655 123.382 129.634 123.324L129.346 122.536C129.12 121.918 128.761 121.356 128.296 120.891C127.831 120.426 127.269 120.068 126.651 119.842L125.863 119.553C125.805 119.532 125.754 119.493 125.719 119.443C125.683 119.392 125.664 119.331 125.664 119.269C125.664 119.207 125.683 119.147 125.719 119.096C125.754 119.045 125.805 119.007 125.863 118.986L126.651 118.697C127.269 118.471 127.831 118.113 128.296 117.648C128.761 117.182 129.12 116.621 129.346 116.003L129.634 115.214Z" fill="#57BFE3"/>
</g>
<path d="M5.29425 73.567C5.3154 73.5087 5.35397 73.4584 5.40472 73.4228C5.45548 73.3872 5.51596 73.3682 5.57794 73.3682C5.63992 73.3682 5.70039 73.3872 5.75115 73.4228C5.8019 73.4584 5.84048 73.5087 5.86162 73.567L6.15014 74.3553C6.37612 74.9734 6.73431 75.5348 7.19968 76.0001C7.66506 76.4655 8.22641 76.8237 8.84454 77.0497L9.63222 77.3382C9.69048 77.3593 9.74082 77.3979 9.77639 77.4487C9.81197 77.4994 9.83105 77.5599 9.83105 77.6219C9.83105 77.6839 9.81197 77.7443 9.77639 77.7951C9.74082 77.8458 9.69048 77.8844 9.63222 77.9056L8.84454 78.1941C8.22641 78.4201 7.66506 78.7783 7.19968 79.2436C6.73431 79.709 6.37612 80.2704 6.15014 80.8885L5.86162 81.6762C5.84048 81.7344 5.8019 81.7848 5.75115 81.8203C5.70039 81.8559 5.63992 81.875 5.57794 81.875C5.51596 81.875 5.45548 81.8559 5.40472 81.8203C5.35397 81.7848 5.3154 81.7344 5.29425 81.6762L5.00574 80.8885C4.77975 80.2704 4.42157 79.709 3.95619 79.2436C3.49081 78.7783 2.92946 78.4201 2.31133 78.1941L1.52305 77.9056C1.46479 77.8844 1.41445 77.8458 1.37888 77.7951C1.3433 77.7443 1.32422 77.6839 1.32422 77.6219C1.32422 77.5599 1.3433 77.4994 1.37888 77.4487C1.41445 77.3979 1.46479 77.3593 1.52305 77.3382L2.31133 77.0497C2.92946 76.8237 3.49081 76.4655 3.95619 76.0001C4.42157 75.5348 4.77975 74.9734 5.00574 74.3553L5.29425 73.567Z" fill="#57BFE3"/>
<g clip-path="url(#clip8_103_2326)">
<path d="M19.7786 104.954C19.7998 104.895 19.8383 104.845 19.8891 104.81C19.9399 104.774 20.0003 104.755 20.0623 104.755C20.1243 104.755 20.1848 104.774 20.2355 104.81C20.2863 104.845 20.3249 104.895 20.346 104.954L20.6345 105.742C20.8605 106.36 21.2187 106.921 21.6841 107.387C22.1494 107.852 22.7108 108.21 23.3289 108.436L24.1166 108.725C24.1749 108.746 24.2252 108.785 24.2608 108.835C24.2963 108.886 24.3154 108.947 24.3154 109.009C24.3154 109.071 24.2963 109.131 24.2608 109.182C24.2252 109.233 24.1749 109.271 24.1166 109.292L23.3289 109.581C22.7108 109.807 22.1494 110.165 21.6841 110.63C21.2187 111.096 20.8605 111.657 20.6345 112.275L20.346 113.063C20.3249 113.121 20.2863 113.171 20.2355 113.207C20.1848 113.243 20.1243 113.262 20.0623 113.262C20.0003 113.262 19.9399 113.243 19.8891 113.207C19.8383 113.171 19.7998 113.121 19.7786 113.063L19.4901 112.275C19.2641 111.657 18.9059 111.096 18.4406 110.63C17.9752 110.165 17.4138 109.807 16.7957 109.581L16.0074 109.292C15.9492 109.271 15.8988 109.233 15.8633 109.182C15.8277 109.131 15.8086 109.071 15.8086 109.009C15.8086 108.947 15.8277 108.886 15.8633 108.835C15.8988 108.785 15.9492 108.746 16.0074 108.725L16.7957 108.436C17.4138 108.21 17.9752 107.852 18.4406 107.387C18.9059 106.921 19.2641 106.36 19.4901 105.742L19.7786 104.954Z" fill="#57BFE3"/>
</g>
<g clip-path="url(#clip9_103_2326)">
<path d="M87.9857 138.15C88.0068 138.092 88.0454 138.042 88.0961 138.006C88.1469 137.971 88.2074 137.952 88.2693 137.952C88.3313 137.952 88.3918 137.971 88.4426 138.006C88.4933 138.042 88.5319 138.092 88.553 138.15L88.8415 138.939C89.0675 139.557 89.4257 140.118 89.8911 140.584C90.3565 141.049 90.9178 141.407 91.5359 141.633L92.3236 141.922C92.3819 141.943 92.4322 141.981 92.4678 142.032C92.5034 142.083 92.5225 142.143 92.5225 142.205C92.5225 142.267 92.5034 142.328 92.4678 142.379C92.4322 142.429 92.3819 142.468 92.3236 142.489L91.5359 142.778C90.9178 143.004 90.3565 143.362 89.8911 143.827C89.4257 144.293 89.0675 144.854 88.8415 145.472L88.553 146.26C88.5319 146.318 88.4933 146.368 88.4426 146.404C88.3918 146.439 88.3313 146.458 88.2693 146.458C88.2074 146.458 88.1469 146.439 88.0961 146.404C88.0454 146.368 88.0068 146.318 87.9857 146.26L87.6971 145.472C87.4712 144.854 87.113 144.293 86.6476 143.827C86.1822 143.362 85.6209 143.004 85.0027 142.778L84.2145 142.489C84.1562 142.468 84.1059 142.429 84.0703 142.379C84.0347 142.328 84.0156 142.267 84.0156 142.205C84.0156 142.143 84.0347 142.083 84.0703 142.032C84.1059 141.981 84.1562 141.943 84.2145 141.922L85.0027 141.633C85.6209 141.407 86.1822 141.049 86.6476 140.584C87.113 140.118 87.4712 139.557 87.6971 138.939L87.9857 138.15Z" fill="#57BFE3"/>
</g>
<defs>
<clipPath id="clip0_103_2326">
<rect width="12.0717" height="12.0717" fill="white" transform="translate(110 133.151)"/>
</clipPath>
<clipPath id="clip1_103_2326">
<rect width="14.4861" height="14.4861" fill="white" transform="translate(22.4805 120.476)"/>
</clipPath>
<clipPath id="clip2_103_2326">
<rect width="14.4861" height="14.4861" fill="white" transform="translate(137.766 88.4863)"/>
</clipPath>
<clipPath id="clip3_103_2326">
<rect width="14.4861" height="14.4861" fill="white" transform="translate(62.3164 6.39844)"/>
</clipPath>
<clipPath id="clip4_103_2326">
<rect width="9.65737" height="9.65737" fill="white" transform="translate(80.4219 0.966309)"/>
</clipPath>
<clipPath id="clip5_103_2326">
<rect width="9.65737" height="9.65737" fill="white" transform="translate(19.4609 2.17334)"/>
</clipPath>
<clipPath id="clip6_103_2326">
<rect width="9.65737" height="9.65737" fill="white" transform="translate(137.16 72.1895)"/>
</clipPath>
<clipPath id="clip7_103_2326">
<rect width="9.65737" height="9.65737" fill="white" transform="translate(125.09 114.44)"/>
</clipPath>
<clipPath id="clip8_103_2326">
<rect width="9.65737" height="9.65737" fill="white" transform="translate(15.2344 104.18)"/>
</clipPath>
<clipPath id="clip9_103_2326">
<rect width="9.65737" height="9.65737" fill="white" transform="translate(83.4414 137.376)"/>
</clipPath>
</defs>
</svg>
