<svg width="42" height="43" viewBox="0 0 42 43" fill="none" xmlns="http://www.w3.org/2000/svg">
<path d="M26.634 1.34599L27.678 4.55899C28.0028 5.53569 28.5511 6.42312 29.2792 7.15069C30.0072 7.87825 30.8951 8.42587 31.872 8.74999L35.088 9.79399L35.151 9.81199C35.3988 9.89922 35.6134 10.0612 35.7653 10.2756C35.9171 10.49 35.9986 10.7463 35.9986 11.009C35.9986 11.2717 35.9171 11.5279 35.7653 11.7423C35.6134 11.9568 35.3988 12.1188 35.151 12.206L31.938 13.25C30.9608 13.5743 30.0728 14.122 29.3442 14.8495C28.6157 15.577 28.0667 16.4643 27.741 17.441L26.697 20.651C26.6098 20.8988 26.4478 21.1134 26.2334 21.2653C26.019 21.4171 25.7627 21.4986 25.5 21.4986C25.2373 21.4986 24.981 21.4171 24.7666 21.2653C24.5522 21.1134 24.3902 20.8988 24.303 20.651L23.259 17.441C22.9365 16.4605 22.3889 15.5692 21.6601 14.8383C20.9313 14.1074 20.0415 13.5573 19.062 13.232L15.846 12.188C15.5982 12.1008 15.3836 11.9388 15.2317 11.7243C15.0799 11.5099 14.9984 11.2537 14.9984 10.991C14.9984 10.7283 15.0799 10.472 15.2317 10.2576C15.3836 10.0432 15.5982 9.88122 15.846 9.79399L19.062 8.74999C20.0269 8.41695 20.9019 7.86541 21.6185 7.13841C22.335 6.41141 22.8739 5.52863 23.193 4.55899L24.237 1.34899C24.3236 1.10013 24.4855 0.884408 24.7003 0.731749C24.9151 0.579091 25.172 0.49707 25.4355 0.49707C25.699 0.49707 25.956 0.579091 26.1707 0.731749C26.3855 0.884408 26.5474 1.09713 26.634 1.34599ZM41.349 25.139L39.054 24.395C38.3553 24.1633 37.7202 23.7717 37.1994 23.2514C36.6786 22.7311 36.2864 22.0965 36.054 21.398L35.31 19.106C35.2479 18.9288 35.1323 18.7753 34.9791 18.6666C34.8259 18.558 34.6428 18.4997 34.455 18.4997C34.2672 18.4997 34.0841 18.558 33.9309 18.6666C33.7778 18.7753 33.6621 18.9288 33.6 19.106L32.85 21.398C32.6229 22.0912 32.2386 22.7224 31.727 23.2423C31.2154 23.7623 30.5904 24.1568 29.901 24.395L27.606 25.139C27.4302 25.2025 27.2782 25.3186 27.1707 25.4716C27.0633 25.6246 27.0056 25.807 27.0056 25.994C27.0056 26.1809 27.0633 26.3633 27.1707 26.5164C27.2782 26.6694 27.4302 26.7855 27.606 26.849L29.901 27.596C30.6006 27.8288 31.2362 28.2218 31.757 28.7437C32.2778 29.2656 32.6696 29.9019 32.901 30.602L33.645 32.894C33.7071 33.0712 33.8228 33.2247 33.9759 33.3333C34.1291 33.442 34.3122 33.5003 34.5 33.5003C34.6878 33.5003 34.8709 33.442 35.0241 33.3333C35.1773 33.2247 35.2929 33.0712 35.355 32.894L36.102 30.602C36.3339 29.9037 36.7256 29.2691 37.2459 28.7488C37.7662 28.2286 38.4007 27.8369 39.099 27.605L41.394 26.861C41.5699 26.7975 41.7219 26.6814 41.8293 26.5284C41.9367 26.3753 41.9944 26.1929 41.9944 26.006C41.9944 25.819 41.9367 25.6366 41.8293 25.4836C41.7219 25.3306 41.5699 25.2145 41.394 25.151L41.349 25.139ZM34.506 36.5C33.9365 36.5 33.3737 36.3772 32.856 36.14C32.6038 37.103 32.0395 37.9552 31.2512 38.5631C30.463 39.1711 29.4955 39.5006 28.5 39.5H27V33.5H30.681L30.045 31.541C29.9633 31.2889 29.8188 31.0617 29.625 30.881C29.4624 30.7214 29.2723 30.5923 29.064 30.5H27V29.813L26.682 29.708C25.872 29.408 25.212 28.928 24.732 28.268C24.252 27.608 24.012 26.825 24.012 26.012C24.012 21.668 24 37.256 24 39.5H7.5C6.30653 39.5 5.16193 39.0259 4.31802 38.182C3.47411 37.3381 3 36.1935 3 35V11.75C3 11.1532 3.23705 10.581 3.65901 10.159C4.08097 9.73704 4.65326 9.49999 5.25 9.49999H12.264C12.4846 8.91391 12.8307 8.3831 13.2779 7.94471C13.7251 7.50632 14.2626 7.17093 14.853 6.96199L16.29 6.49999H5.25C3.85761 6.49999 2.52226 7.05311 1.53769 8.03768C0.553124 9.02224 0 10.3576 0 11.75V35C0 36.9891 0.790176 38.8968 2.1967 40.3033C3.60322 41.7098 5.51088 42.5 7.5 42.5H28.5C30.2633 42.5 31.9702 41.8786 33.321 40.7452C34.6717 39.6117 35.5799 38.0385 35.886 36.302C35.4392 36.4397 34.9735 36.5065 34.506 36.5ZM18.096 16.097L16.29 15.5H9C8.60218 15.5 8.22064 15.658 7.93934 15.9393C7.65804 16.2206 7.5 16.6022 7.5 17C7.5 17.3978 7.65804 17.7793 7.93934 18.0606C8.22064 18.342 8.60218 18.5 9 18.5H18C18.3978 18.5 18.7794 18.342 19.0607 18.0606C19.342 17.7793 19.5 17.3978 19.5 17V16.961C19.0988 16.5764 18.6201 16.2818 18.096 16.097ZM7.5 24.5C7.5 24.1022 7.65804 23.7206 7.93934 23.4393C8.22064 23.158 8.60218 23 9 23H18C18.3978 23 18.7794 23.158 19.0607 23.4393C19.342 23.7206 19.5 24.1022 19.5 24.5C19.5 24.8978 19.342 25.2793 19.0607 25.5606C18.7794 25.842 18.3978 26 18 26H9C8.60218 26 8.22064 25.842 7.93934 25.5606C7.65804 25.2793 7.5 24.8978 7.5 24.5ZM9 30.5C8.60218 30.5 8.22064 30.658 7.93934 30.9393C7.65804 31.2206 7.5 31.6022 7.5 32C7.5 32.3978 7.65804 32.7793 7.93934 33.0606C8.22064 33.342 8.60218 33.5 9 33.5H13.5C13.8978 33.5 14.2794 33.342 14.5607 33.0606C14.842 32.7793 15 32.3978 15 32C15 31.6022 14.842 31.2206 14.5607 30.9393C14.2794 30.658 13.8978 30.5 13.5 30.5H9Z" fill="#5457E7"/>
</svg>
