<svg width="21" height="20" viewBox="0 0 21 20" fill="#" xmlns="http://www.w3.org/2000/svg">
<g clip-path="url(#clip0_46_1920)">
<path d="M14.979 7.99995C15.158 7.99995 15.335 8.03395 15.5 8.09895V4.49995C15.5 4.10212 15.342 3.72059 15.0607 3.43929C14.7794 3.15798 14.3978 2.99995 14 2.99995H11V2.49995C11.0028 2.43353 10.9918 2.36725 10.9677 2.30531C10.9436 2.24336 10.9069 2.18711 10.8598 2.1401C10.8128 2.09309 10.7566 2.05637 10.6946 2.03224C10.6327 2.00811 10.5664 1.99712 10.5 1.99995C10.224 1.99995 10 2.22995 10 2.49995V2.99995H7C6.60218 2.99995 6.22064 3.15798 5.93934 3.43929C5.65804 3.72059 5.5 4.10212 5.5 4.49995V8.49995C5.5 8.89777 5.65804 9.2793 5.93934 9.56061C6.22064 9.84191 6.60218 9.99995 7 9.99995H13.294L13.632 8.96095L13.636 8.94895C13.7342 8.67106 13.9162 8.43051 14.1569 8.26052C14.3977 8.09053 14.6843 7.99948 14.979 7.99995ZM7.5 6.49995C7.5 6.23473 7.60536 5.98038 7.79289 5.79284C7.98043 5.6053 8.23478 5.49995 8.5 5.49995C8.76522 5.49995 9.01957 5.6053 9.20711 5.79284C9.39464 5.98038 9.5 6.23473 9.5 6.49995C9.5 6.76516 9.39464 7.01952 9.20711 7.20705C9.01957 7.39459 8.76522 7.49995 8.5 7.49995C8.23478 7.49995 7.98043 7.39459 7.79289 7.20705C7.60536 7.01952 7.5 6.76516 7.5 6.49995ZM11.5 6.49995C11.5 6.23473 11.6054 5.98038 11.7929 5.79284C11.9804 5.6053 12.2348 5.49995 12.5 5.49995C12.7652 5.49995 13.0196 5.6053 13.2071 5.79284C13.3946 5.98038 13.5 6.23473 13.5 6.49995C13.5 6.76516 13.3946 7.01952 13.2071 7.20705C13.0196 7.39459 12.7652 7.49995 12.5 7.49995C12.2348 7.49995 11.9804 7.39459 11.7929 7.20705C11.6054 7.01952 11.5 6.76516 11.5 6.49995ZM10.5 17.9999C12.243 17.9999 13.542 17.7739 14.505 17.3879C14.5178 17.2355 14.5574 17.0866 14.622 16.9479C14.401 16.8871 14.1979 16.7737 14.0301 16.6176C13.8623 16.4614 13.7346 16.267 13.658 16.0509L13.654 16.0389L13.303 14.9589L13.268 14.8689C13.2077 14.7259 13.1205 14.5959 13.011 14.4859L12.947 14.4259C12.8281 14.3229 12.6902 14.2441 12.541 14.1939L11.461 13.8439L11.45 13.8389C11.2246 13.7594 11.0228 13.6245 10.8633 13.4464C10.7039 13.2684 10.5918 13.053 10.5375 12.8203C10.4832 12.5875 10.4884 12.3448 10.5526 12.1146C10.6168 11.8843 10.738 11.674 10.905 11.5029H5.809C5.32913 11.5032 4.86901 11.694 4.52978 12.0334C4.19056 12.3728 4 12.8331 4 13.3129V14.0019H4.005C4.039 14.7819 4.253 15.7589 5.128 16.5569C6.084 17.4299 7.734 17.9999 10.5 17.9999ZM15.726 10.3529L15.378 9.28295C15.3491 9.2 15.2952 9.12809 15.2236 9.0772C15.152 9.02632 15.0663 8.99898 14.9785 8.99898C14.8907 8.99898 14.805 9.02632 14.7334 9.0772C14.6618 9.12809 14.6079 9.2 14.579 9.28295L14.231 10.3529C14.1248 10.6762 13.9452 10.9706 13.7063 11.2129C13.4674 11.4553 13.1757 11.6391 12.854 11.7499L11.783 12.0979C11.7004 12.127 11.6289 12.181 11.5782 12.2525C11.5276 12.324 11.5005 12.4094 11.5005 12.4969C11.5005 12.5845 11.5276 12.6699 11.5782 12.7414C11.6289 12.8129 11.7004 12.8669 11.783 12.8959L12.854 13.2439C13.1804 13.3527 13.4768 13.5361 13.7197 13.7797C13.9626 14.0233 14.1452 14.3203 14.253 14.6469L14.601 15.7169C14.6301 15.7996 14.6841 15.8711 14.7555 15.9217C14.827 15.9723 14.9124 15.9995 15 15.9995C15.0876 15.9995 15.173 15.9723 15.2445 15.9217C15.3159 15.8711 15.3699 15.7996 15.399 15.7169L15.748 14.6469C15.8563 14.3214 16.039 14.0256 16.2817 13.783C16.5244 13.5405 16.8204 13.358 17.146 13.2499L18.218 12.9019C18.3002 12.8724 18.3712 12.8182 18.4214 12.7468C18.4716 12.6754 18.4986 12.5902 18.4986 12.5029C18.4986 12.4156 18.4716 12.3305 18.4214 12.2591C18.3712 12.1877 18.3002 12.1335 18.218 12.1039L18.196 12.0989L17.124 11.7499C16.7984 11.6418 16.5026 11.4592 16.2599 11.2167C16.0172 10.9742 15.8344 10.6784 15.726 10.3529ZM19.517 16.9649L20.283 17.2129L20.298 17.2169C20.3421 17.2325 20.382 17.2581 20.4146 17.2917C20.4472 17.3252 20.4715 17.3659 20.4858 17.4104C20.5 17.455 20.5037 17.5022 20.4967 17.5485C20.4896 17.5947 20.4719 17.6387 20.445 17.6769C20.4086 17.728 20.3572 17.7664 20.298 17.7869L19.533 18.0349C19.3002 18.1122 19.0887 18.2425 18.9151 18.4158C18.7415 18.589 18.6107 18.8003 18.533 19.0329L18.285 19.7979C18.2643 19.857 18.2258 19.9082 18.1747 19.9444C18.1236 19.9806 18.0626 20.0001 18 20.0001C17.9374 20.0001 17.8764 19.9806 17.8253 19.9444C17.7742 19.9082 17.7357 19.857 17.715 19.7979L17.466 19.0339C17.3892 18.8006 17.2588 18.5884 17.0854 18.4144C16.9119 18.2405 16.7001 18.1095 16.467 18.0319L15.702 17.7829C15.658 17.7673 15.6182 17.7416 15.5857 17.708C15.5532 17.6744 15.529 17.6337 15.5149 17.5892C15.5007 17.5446 15.4971 17.4974 15.5042 17.4512C15.5114 17.4051 15.5291 17.3611 15.556 17.3229C15.5922 17.2721 15.6432 17.2337 15.702 17.2129L16.467 16.9649C16.6968 16.8857 16.9053 16.7544 17.076 16.5813C17.2467 16.4081 17.375 16.1979 17.451 15.9669L17.7 15.2019C17.7207 15.1429 17.7592 15.0917 17.8103 15.0555C17.8614 15.0193 17.9224 14.9998 17.985 14.9998C18.0476 14.9998 18.1086 15.0193 18.1597 15.0555C18.2107 15.0917 18.2493 15.1429 18.27 15.2019L18.519 15.9659C18.5961 16.1986 18.7265 16.4101 18.8998 16.5836C19.073 16.757 19.2844 16.8876 19.517 16.9649Z" fill="#5457E7"/>
</g>
<defs>
<clipPath id="clip0_46_1920">
<rect width="20" height="20" fill="white" transform="translate(0.5)"/>
</clipPath>
</defs>
</svg>
