<svg width="60" height="60" xmlns="http://www.w3.org/2000/svg">
 <!-- Created with Method Draw - http://github.com/duopixel/Method-Draw/ -->

 <g>
  <title>background</title>
  <rect fill="#fff" id="canvas_background" height="62" width="62" y="-1" x="-1"/>
  <g display="none" id="canvasGrid">
   <rect fill="url(#gridpattern)" stroke-width="0" y="0" x="0" height="100%" width="100%" id="svg_1"/>
  </g>
 </g>
 <g>
  <title>Layer 1</title>
  <g stroke="null" id="svg_5">
   <path stroke="null" id="svg_4" d="m89.431338,16.071457l0,-13.599736l-19.999607,0c-1.329973,0 -2.399951,1.069985 -2.399951,2.399956l0,46.399087c0,1.329973 1.069978,2.399951 2.399951,2.399951l33.599337,0c1.329978,0 2.399956,-1.069978 2.399956,-2.399951l0,-32.799357l-13.599736,0c-1.319973,0 -2.399951,-1.079977 -2.399951,-2.399951zm15.999685,-1.40997l0,0.609985l-12.79975,0l0,-12.79975l0.609991,0c0.639982,0 1.249973,0.250001 1.699961,0.699988l9.789808,9.799807c0.449994,0.449988 0.699988,1.059979 0.699988,1.689969l0.000001,0.000001z" fill="#888888"/>
  </g>
  <!-- Created with Method Draw - http://github.com/duopixel/Method-Draw/ -->
  <g stroke="null" id="svg_22">
   <path stroke="null" fill="#888888" d="m110.385855,21.301156l0,0.607737l-12.838879,0l0,-12.838872l0.607737,0c0.638435,0 1.250789,0.253663 1.702254,0.705034l9.823847,9.823847a2.407791,2.407791 0 0 1 0.70504,1.702254l0,0zm-16.048598,1.410168l0,-13.641304l-20.060743,0c-1.329529,0 -2.407288,1.077759 -2.407288,2.407288l0,46.540926c0,1.329529 1.077759,2.407288 2.407288,2.407288l33.702047,0c1.329529,0 2.407294,-1.077759 2.407294,-2.407288l0,-32.899622l-13.64131,0c-1.324006,0 -2.407288,-1.083276 -2.407288,-2.407288l0,0zm9.629159,14.44534l0,11.230311c0,2.151008 -2.602184,3.209518 -4.109549,1.702254l-5.51961,-5.51761l0,3.817456c0,1.329529 -1.077766,2.407294 -2.407288,2.407294l-11.234016,0c-1.329529,0 -2.407294,-1.077766 -2.407294,-2.407294l0,-11.234016c0,-1.329523 1.077766,-2.407288 2.407294,-2.407288l11.234016,0c1.329523,0 2.407288,1.077766 2.407288,2.407288l0,3.817463l5.51961,-5.518012c1.50566,-1.505559 4.109549,-0.450459 4.109549,1.702154l0,0z" id="svg_23"/>
  </g>
  <g stroke="null" id="svg_20">
   <path stroke="null" fill="#858585" d="m48.538686,14.868424l-9.810472,-9.820496c-0.450939,-0.450939 -1.062219,-0.701465 -1.703559,-0.701465l-0.611274,0l0,12.82677l12.82677,0l0,-0.611274c0,-0.631322 -0.250526,-1.242596 -0.701465,-1.693535zm-24.911985,23.148307c-1.793744,0 -3.246776,1.21253 -3.246776,2.705646c0,1.50314 1.46305,2.705646 3.256794,2.705646s3.246776,-1.21253 3.246776,-2.705646s-1.463056,-2.705646 -3.256794,-2.705646zm9.579988,-20.041824l0,-13.628445l-6.373295,0l0,3.206693l-3.206693,0l0,-3.206693l-10.461836,0c-1.332781,0 -2.405018,1.072237 -2.405018,2.405024l0,46.497032c0,1.332781 1.072237,2.405018 2.405018,2.405018l33.670269,0c1.332781,0 2.405018,-1.072237 2.405018,-2.405018l0,-32.868594l-13.628445,0c-1.322757,0 -2.405018,-1.082261 -2.405018,-2.405018l0,0zm-12.836788,-10.421752l3.206693,0l0,3.206693l-3.206693,0l0,-3.206693zm3.236758,41.686997c-3.326944,0 -5.812129,-3.046358 -5.150754,-6.303152l1.964103,-12.936997l0,-3.206693l3.206693,0l0,-3.206693l-3.206693,0l0,-3.206693l3.206693,0l0,-3.206693l-3.206693,0l0,-3.206693l3.206693,0l0,-3.206693l3.206686,0l0,3.206693l-3.206686,0l0,3.206693l3.206686,0l0,3.206693l-3.206686,0l0,3.206693l3.206686,0l0,3.206693l-3.206686,0l0,3.206693l2.214617,0c0.57119,0 1.072237,0.410855 1.18247,0.972027l1.733618,8.788337c0.641333,3.246776 -1.843852,6.273092 -5.150754,6.273092l0,3.206693l0.000006,0z" id="svg_21"/>
  </g>
  <!-- Created with Method Draw - http://github.com/duopixel/Method-Draw/ -->
  <!-- Created with Method Draw - http://github.com/duopixel/Method-Draw/ -->
  <!-- Created with Method Draw - http://github.com/duopixel/Method-Draw/ -->
  <!-- Created with Method Draw - http://github.com/duopixel/Method-Draw/ -->
  <g transform="matrix(0.6672148423427476,0,0,0.6672148423427476,-0.7761878416308929,19.927355381798748) " id="svg_159" fill="#ffffff" stroke="null">
   <path fill="#FABA6F" d="m-1.389672,-5.204297l0,0.90748l-19.171,0l0,-19.171l0.90747,0a3.59456,3.59456 0 0 1 2.54166,1.05276l14.66896,14.66896a3.59486,3.59486 0 0 1 1.05291,2.5418zm-20.36919,5.70023c-1.97701,0 -3.59456,-1.61755 -3.59456,-3.59456l0,-20.36919l-29.9547,0c-1.98524,0 -3.59456,1.60931 -3.59456,3.59456l0,69.49489c0,1.98524 1.60932,3.59456 3.59456,3.59456l50.32389,0c1.98524,0 3.59456,-1.60932 3.59456,-3.59456l0,-49.1257l-20.36919,0zm-20.28756,2.39638c3.97049,0 7.18912,3.21863 7.18912,7.18912s-3.21863,7.18913 -7.18912,7.18913s-7.18913,-3.21863 -7.18913,-7.18913s3.21878,-7.18912 7.18913,-7.18912zm31.15288,35.94563l-38.34201,0l0.07264,-7.26177l5.9183,-5.9183c0.70184,-0.70183 1.76717,-0.62919 2.46901,0.07264l5.9183,5.9183l15.5038,-15.5038c0.70184,-0.70184 1.83982,-0.70184 2.54181,0l5.91814,5.9183l0,16.77463l0.00001,0z" id="svg_160" stroke="null"/>
  </g>
  <g transform="matrix(0.9344443906678103,0,0,0.9344443906678103,0,0) " id="svg_157">
   <path fill="#CC7C65" d="m62.635541,178.409265l-13.37783,-13.37783c-1.43505,-1.43504 -3.38033,-2.24824 -5.40534,-2.24824l-32.54368,0c-4.22542,0.01595 -7.65358,3.44412 -7.65358,7.66953l0,66.33106c0,4.22542 3.42816,7.65358 7.65358,7.65358l45.9215,0c4.22542,0 7.65358,-3.42816 7.65358,-7.65358l0,-52.95323c0,-2.02501 -0.81319,-3.98624 -2.24823,-5.42129zm-6.0272,4.79943l-12.13412,0l0,-12.13411l12.13412,12.13411zm-45.29965,53.57509l0,-66.33106l25.51194,0l0,16.58277c0,2.12068 1.70612,3.82679 3.8268,3.82679l16.58276,0l0,45.9215l-45.9215,0zm39.8943,-22.91291c-1.94528,-1.9134 -7.49413,-1.38722 -10.26855,-1.03643c-2.74254,-1.67422 -4.57621,-3.98624 -5.86775,-7.38252c0.62185,-2.56714 1.61044,-6.47365 0.86103,-8.92918c-0.66969,-4.17758 -6.0272,-3.76301 -6.79256,-0.94075c-0.70158,2.56714 -0.06378,6.13881 1.11615,10.69907c-1.5945,3.81085 -3.9703,8.92918 -5.64452,11.86306c-3.18899,1.64233 -7.49413,4.17758 -8.13193,7.36657c-0.52619,2.51931 4.14569,8.80162 12.13412,-4.97483c3.57167,-1.17993 7.46224,-2.63092 10.90635,-3.20494c3.0136,1.62639 6.53744,2.71065 8.89729,2.71065c4.06597,0 4.46459,-4.49648 2.79037,-6.1707zm-31.58697,12.40518c0.81319,-2.18446 3.90651,-4.70377 4.84727,-5.58074c-3.02955,4.83133 -4.84727,5.69235 -4.84727,5.58074zm13.01109,-30.39111c1.17992,0 1.06831,5.11834 0.28701,6.50555c-0.70158,-2.21635 -0.68564,-6.50555 -0.28701,-6.50555zm-3.89057,21.78083c1.54666,-2.6947 2.87009,-5.89964 3.9384,-8.7219c1.32343,2.40769 3.0136,4.33703 4.79944,5.66047c-3.31656,0.68563 -6.20259,2.08879 -8.73784,3.06143zm20.98357,-0.79725s-0.79725,0.9567 -5.94747,-1.24371c5.59668,-0.41457 6.52149,0.86103 5.94747,1.24371z" id="svg_158"/>
  </g>
  <g transform="matrix(0.630852925026792,0,0,0.630852925026792,-2.172361580621139,25.232578884753018) " id="svg_155">
   <path fill="#858585" d="m173.438727,-12.234631l-13.37783,-13.37783c-1.43505,-1.43504 -3.38033,-2.24824 -5.40534,-2.24824l-32.54368,0c-4.22542,0.01595 -7.65358,3.44412 -7.65358,7.66953l0,66.33106c0,4.22542 3.42816,7.65358 7.65358,7.65358l45.9215,0c4.22542,0 7.65358,-3.42816 7.65358,-7.65358l0,-52.95323c0,-2.02501 -0.81319,-3.98624 -2.24823,-5.42129zm-6.0272,4.79943l-12.13412,0l0,-12.13411l12.13412,12.13411zm-45.29965,53.57509l0,-66.33106l25.51194,0l0,16.58277c0,2.12068 1.70612,3.82679 3.8268,3.82679l16.58276,0l0,45.9215l-45.9215,0zm39.8943,-22.91291c-1.94528,-1.9134 -7.49413,-1.38722 -10.26855,-1.03643c-2.74254,-1.67422 -4.57621,-3.98624 -5.86775,-7.38252c0.62185,-2.56714 1.61044,-6.47365 0.86103,-8.92918c-0.66969,-4.17758 -6.0272,-3.76301 -6.79256,-0.94075c-0.70158,2.56714 -0.06378,6.13881 1.11615,10.69907c-1.5945,3.81085 -3.9703,8.92918 -5.64452,11.86306c-3.18899,1.64233 -7.49413,4.17758 -8.13193,7.36657c-0.52619,2.51931 4.14569,8.80162 12.13412,-4.97483c3.57167,-1.17993 7.46224,-2.63092 10.90635,-3.20494c3.0136,1.62639 6.53744,2.71065 8.89729,2.71065c4.06597,0 4.46459,-4.49648 2.79037,-6.1707zm-31.58697,12.40518c0.81319,-2.18446 3.90651,-4.70377 4.84727,-5.58074c-3.02955,4.83133 -4.84727,5.69235 -4.84727,5.58074zm13.01109,-30.39111c1.17992,0 1.06831,5.11834 0.28701,6.50555c-0.70158,-2.21635 -0.68564,-6.50555 -0.28701,-6.50555zm-3.89057,21.78083c1.54666,-2.6947 2.87009,-5.89964 3.9384,-8.7219c1.32343,2.40769 3.0136,4.33703 4.79944,5.66047c-3.31656,0.68563 -6.20259,2.08879 -8.73784,3.06143zm20.98357,-0.79725s-0.79725,0.9567 -5.94747,-1.24371c5.59668,-0.41457 6.52149,0.86103 5.94747,1.24371z" id="svg_156"/>
  </g>
  <g transform="matrix(0.9344443906678103,0,0,0.9344443906678103,0,0) " id="svg_151">
   <path fill="currentColor" d="m-137.587844,-69.860699l-15.61012,-15.62606c-0.71752,-0.71753 -1.69017,-1.11615 -2.71065,-1.11615l-0.97264,0l0,20.40956l20.40956,0l0,-0.97265c0,-1.00453 -0.39863,-1.97717 -1.11615,-2.6947zm-39.63919,36.83288c-2.85415,0 -5.16617,1.92934 -5.16617,4.30514c0,2.39174 2.32797,4.30514 5.18212,4.30514s5.16617,-1.92934 5.16617,-4.30514s-2.32797,-4.30514 -5.18212,-4.30514zm15.24339,-31.88994l0,-21.68515l-10.141,0l0,5.10239l-5.10239,0l0,-5.10239l-16.64654,0c-2.12068,0 -3.82679,1.70611 -3.82679,3.82679l0,73.98464c0,2.12068 1.70611,3.8268 3.82679,3.8268l53.57509,0c2.12068,0 3.82679,-1.70612 3.82679,-3.8268l0,-52.29949l-21.68516,0c-2.10473,0 -3.82679,-1.72205 -3.82679,-3.82679zm-20.4255,-16.58276l5.10239,0l0,5.10239l-5.10239,0l0,-5.10239zm5.15022,66.33106c-5.29372,0 -9.24808,-4.84727 -8.19571,-10.02939l3.12521,-20.58495l0,-5.10239l5.10239,0l0,-5.10239l-5.10239,0l0,-5.10238l5.10239,0l0,-5.10239l-5.10239,0l0,-5.10239l5.10239,0l0,-5.10239l5.10239,0l0,5.10239l-5.10239,0l0,5.10239l5.10239,0l0,5.10239l-5.10239,0l0,5.10238l5.10239,0l0,5.10239l-5.10239,0l0,5.10239l3.52384,0c0.90886,0 1.70611,0.65375 1.88151,1.54666l2.75848,13.98374c1.02047,5.16617 -2.93388,9.98155 -8.19572,9.98155l0,5.10239z" id="svg_152"/>
  </g>
  <g transform="matrix(0.9344443906678103,0,0,0.9344443906678103,0,0) " id="svg_147">
   <path id="svg_148" d="m140.490486,91.991719c-0.59967,0 -1.085069,0.485297 -1.085069,1.085069l0,0.203451a0.135634,0.135634 0 0 0 0.074976,0.121316l0.060963,0.030479c0.008524,0.254695 0.217645,0.458556 0.474413,0.458556l0.101725,0c0.056182,0 0.101725,-0.045543 0.101725,-0.101725l0,-0.745985c0,-0.056182 -0.045543,-0.101725 -0.101725,-0.101725l-0.101725,0c-0.132845,0 -0.252919,0.054588 -0.339084,0.14253l0,-0.006896c0,-0.448731 0.365071,-0.813802 0.813802,-0.813802s0.813802,0.365071 0.813802,0.813802l0,0.006896c-0.086166,-0.087941 -0.206239,-0.14253 -0.339084,-0.14253l-0.101725,0c-0.056182,0 -0.101725,0.045543 -0.101725,0.101725l0,0.745985c0,0.056182 0.045543,0.101725 0.101725,0.101725l0.101725,0c0.256767,0 0.465889,-0.203866 0.474413,-0.458556l0.060959,-0.030479a0.135634,0.135634 0 0 0 0.07498,-0.121316l0,-0.203451c0,-0.599666 -0.485297,-1.085069 -1.085069,-1.085069l-0.000002,0z" fill="currentColor"/>
  </g>
  <g stroke="null" id="svg_177">
   <path id="svg_176" d="m-27.619365,17.808725l0,-13.648627l-20.07151,0c-1.334755,0 -2.408581,1.073826 -2.408581,2.408581l0,46.565904c0,1.334755 1.073826,2.408581 2.408581,2.408581l33.720138,0c1.334755,0 2.408581,-1.073826 2.408581,-2.408581l0,-32.917277l-13.648627,0c-1.32472,0 -2.408581,-1.083862 -2.408581,-2.408581zm-6.422883,26.895824c0,1.073826 -1.294612,1.605721 -2.05733,0.853039l-3.562693,-3.663051l-2.810011,0c-0.66236,0 -1.204291,-0.541931 -1.204291,-1.204291l0,-5.620023c0,-0.66236 0.541931,-1.204291 1.204291,-1.204291l2.810011,0l3.562693,-3.663051c0.762717,-0.762717 2.05733,-0.220787 2.05733,0.853039l0,13.648627zm3.331871,-4.777019c0.913254,-0.933325 0.913254,-2.418617 0,-3.351942c-2.217902,-2.288152 1.224362,-5.640094 3.4523,-3.361978c2.729725,2.799976 2.729725,7.265887 0,10.075898c-2.187795,2.237973 -5.710345,-1.043719 -3.4523,-3.361978zm8.630749,-11.751869c5.459451,5.609987 5.459451,14.531774 0,20.151796c-2.187795,2.248009 -5.72038,-1.033683 -3.4523,-3.361978c3.632943,-3.733301 3.642979,-9.684504 0,-13.42784c-2.217902,-2.288152 1.234398,-5.65013 3.4523,-3.361978zm10.517471,-11.781977l0,0.612181l-12.845767,0l0,-12.845767l0.612181,0c0.642288,0 1.254469,0.250894 1.706078,0.702503l9.825004,9.83504c0.451609,0.451609 0.702503,1.06379 0.702503,1.696043z" fill="#858585"/>
  </g>
 </g>
</svg>