<svg width="16" height="16" viewBox="0 0 16 16" fill="none" xmlns="http://www.w3.org/2000/svg">
<path d="M11.9993 2C12.0778 1.99994 12.1552 2.01838 12.2253 2.05382C12.2954 2.08927 12.3561 2.14071 12.4026 2.204L12.4393 2.262L14.6146 6.28067L14.6399 6.34267L14.6479 6.36933L14.6613 6.43733L14.6653 6.5C14.6653 6.54505 14.6592 6.5899 14.6473 6.63333L14.6159 6.71667L14.5906 6.76267C14.5758 6.78669 14.5591 6.80943 14.5406 6.83067L14.5806 6.77867L14.5639 6.802L8.39725 13.8053C8.34604 13.8734 8.27773 13.9268 8.19925 13.96L8.13392 13.982L8.08192 13.9933L7.99992 14L7.93325 13.996L7.85459 13.9787C7.81385 13.967 7.77484 13.9499 7.73859 13.928L7.73259 13.9233C7.70094 13.9039 7.67183 13.8806 7.64592 13.854L1.45259 6.82333L1.43525 6.802L1.40859 6.76267C1.37081 6.70167 1.3467 6.63321 1.33792 6.562L1.33325 6.5L1.33525 6.456L1.34392 6.39667C1.34807 6.37725 1.35342 6.3581 1.35992 6.33933L1.37459 6.3L1.39325 6.262L3.55992 2.262C3.59727 2.19297 3.65035 2.13371 3.71486 2.089C3.77937 2.0443 3.8535 2.01541 3.93125 2.00467L3.99925 2H11.9993ZM9.99792 7H5.99859L7.99859 12.1247L9.99792 7ZM4.92592 7H2.93925L6.50659 11.0493L4.92592 7ZM13.0579 7H11.0719L9.49325 11.0467L13.0579 7ZM5.98059 3H4.29659L2.67125 6H5.02059L5.98059 3ZM8.96725 3H7.03059L6.06992 6H9.92659L8.96659 3H8.96725ZM11.7006 3H10.0173L10.9773 6H13.3253L11.7006 3Z" fill="#FFCD00"/>
</svg>
