<svg width="16" height="14" viewBox="0 0 16 14" fill="none" xmlns="http://www.w3.org/2000/svg">
<path d="M13.3346 1.66683H12.0013V1.00016H13.668C13.8546 1.00016 14.0013 1.14683 14.0013 1.3335V2.66683C14.0013 2.8535 13.8546 3.00016 13.668 3.00016H13.3346V3.66683H12.668V2.3335H13.3346V1.66683ZM12.668 5.00016H13.3346V4.3335H12.668V5.00016ZM11.3346 1.00016H10.668V3.66683H11.3346V1.00016ZM15.3346 9.00016V11.0002C15.3346 11.3668 15.0346 11.6668 14.668 11.6668H14.0013V12.3335C14.0013 13.0735 13.408 13.6668 12.668 13.6668H3.33464C2.98101 13.6668 2.64187 13.5264 2.39183 13.2763C2.14178 13.0263 2.0013 12.6871 2.0013 12.3335V11.6668H1.33464C0.967969 11.6668 0.667969 11.3668 0.667969 11.0002V9.00016C0.667969 8.6335 0.967969 8.3335 1.33464 8.3335H2.0013C2.0013 5.7535 4.08797 3.66683 6.66797 3.66683H7.33464V2.82016C6.93464 2.5935 6.66797 2.16016 6.66797 1.66683C6.66797 0.933496 7.26797 0.333496 8.0013 0.333496C8.73464 0.333496 9.33464 0.933496 9.33464 1.66683C9.33464 2.16016 9.06797 2.5935 8.66797 2.82016V3.66683H9.33464C9.5613 3.66683 9.7813 3.68683 10.0013 3.72016V5.66683H13.1613C13.7096 6.44782 14.003 7.37925 14.0013 8.3335H14.668C15.0346 8.3335 15.3346 8.6335 15.3346 9.00016ZM6.66797 9.3335C6.66797 8.89147 6.49237 8.46755 6.17981 8.15498C5.86725 7.84242 5.44333 7.66683 5.0013 7.66683C4.55927 7.66683 4.13535 7.84242 3.82279 8.15498C3.51023 8.46755 3.33464 8.89147 3.33464 9.3335C3.33464 9.77552 3.51023 10.1994 3.82279 10.512C4.13535 10.8246 4.55927 11.0002 5.0013 11.0002C5.44333 11.0002 5.86725 10.8246 6.17981 10.512C6.49237 10.1994 6.66797 9.77552 6.66797 9.3335ZM12.668 9.3335C12.668 8.89147 12.4924 8.46755 12.1798 8.15498C11.8673 7.84242 11.4433 7.66683 11.0013 7.66683C10.5593 7.66683 10.1354 7.84242 9.82279 8.15498C9.51023 8.46755 9.33464 8.89147 9.33464 9.3335C9.33464 9.77552 9.51023 10.1994 9.82279 10.512C10.1354 10.8246 10.5593 11.0002 11.0013 11.0002C11.4433 11.0002 11.8673 10.8246 12.1798 10.512C12.4924 10.1994 12.668 9.77552 12.668 9.3335ZM11.3346 4.3335H10.668V5.00016H11.3346V4.3335Z" fill="#5457E7"/>
</svg>
