<svg width="580" height="400" xmlns="http://www.w3.org/2000/svg">
 <!-- Created with Method Draw - http://github.com/duopixel/Method-Draw/ -->

 <g>
  <title>background</title>
  <rect fill="#fff" id="canvas_background" height="402" width="582" y="-1" x="-1"/>
  <g display="none" overflow="visible" y="0" x="0" height="100%" width="100%" id="canvasGrid">
   <rect fill="url(#gridpattern)" stroke-width="0" y="0" x="0" height="100%" width="100%"/>
  </g>
 </g>
 <g>
  <title>Layer 1</title>
  <g id="svg_9">
   <rect fill="#332D40" x="252.225001" transform="matrix(0.9070294838643668,0,0,0.9070294838643668,0,0) " id="svg_4" rx="6" height="120" width="15" y="160.499997"/>
   <rect fill="#332D40" transform="matrix(0.9070294838643668,0,0,0.9070294838643668,0,0) " id="svg_5" rx="6" height="120" width="15" y="160.499997" x="282.225001"/>
   <rect fill="#332D40" y="150.499997" transform="matrix(0.9070294838643668,0,0,0.9070294838643668,0,0) " id="svg_6" rx="6" height="140" width="15" x="312.225001"/>
   <rect fill="#332D40" transform="matrix(0.9070294838643668,0,0,0.9070294838643668,0,0) " id="svg_7" rx="6" height="120" width="15" y="160.499997" x="342.225001"/>
   <rect fill="#332D40" transform="matrix(0.9070294838643668,0,0,0.9070294838643668,0,0) " id="svg_8" rx="6" height="120" width="15" y="160.499997" x="372.225001"/>
  </g>
 </g>
</svg>