<svg width="21" height="20" viewBox="0 0 21 20" fill="none" xmlns="http://www.w3.org/2000/svg">
<path fill-rule="evenodd" clip-rule="evenodd" d="M11.5 16.0005C12.0304 16.0005 12.5391 16.2112 12.9142 16.5863C13.2893 16.9613 13.5 17.4701 13.5 18.0005C13.5 18.5309 13.2893 19.0396 12.9142 19.4147C12.5391 19.7898 12.0304 20.0005 11.5 20.0005C10.9696 20.0005 10.4609 19.7898 10.0858 19.4147C9.71071 19.0396 9.5 18.5309 9.5 18.0005C9.5 17.4701 9.71071 16.9613 10.0858 16.5863C10.4609 16.2112 10.9696 16.0005 11.5 16.0005ZM5.241 13.0005C5.90404 13.0005 6.53993 13.2639 7.00877 13.7327C7.47761 14.2016 7.741 14.8374 7.741 15.5005C7.741 16.1635 7.47761 16.7994 7.00877 17.2683C6.53993 17.7371 5.90404 18.0005 5.241 18.0005C4.57796 18.0005 3.94207 17.7371 3.47323 17.2683C3.00439 16.7994 2.741 16.1635 2.741 15.5005C2.741 14.8374 3.00439 14.2016 3.47323 13.7327C3.94207 13.2639 4.57796 13.0005 5.241 13.0005ZM16.819 13.5005C17.3494 13.5005 17.8581 13.7112 18.2332 14.0863C18.6083 14.4613 18.819 14.9701 18.819 15.5005C18.819 16.0309 18.6083 16.5396 18.2332 16.9147C17.8581 17.2898 17.3494 17.5005 16.819 17.5005C16.2886 17.5005 15.7799 17.2898 15.4048 16.9147C15.0297 16.5396 14.819 16.0309 14.819 15.5005C14.819 14.9701 15.0297 14.4613 15.4048 14.0863C15.7799 13.7112 16.2886 13.5005 16.819 13.5005ZM19 9.31949C19.3978 9.31949 19.7794 9.47752 20.0607 9.75883C20.342 10.0401 20.5 10.4217 20.5 10.8195C20.5 11.2173 20.342 11.5988 20.0607 11.8801C19.7794 12.1615 19.3978 12.3195 19 12.3195C18.6022 12.3195 18.2206 12.1615 17.9393 11.8801C17.658 11.5988 17.5 11.2173 17.5 10.8195C17.5 10.4217 17.658 10.0401 17.9393 9.75883C18.2206 9.47752 18.6022 9.31949 19 9.31949ZM3 6.00049C3.66304 6.00049 4.29893 6.26388 4.76777 6.73272C5.23661 7.20156 5.5 7.83745 5.5 8.50049C5.5 9.16353 5.23661 9.79941 4.76777 10.2683C4.29893 10.7371 3.66304 11.0005 3 11.0005C2.33696 11.0005 1.70107 10.7371 1.23223 10.2683C0.763392 9.79941 0.5 9.16353 0.5 8.50049C0.5 7.83745 0.763392 7.20156 1.23223 6.73272C1.70107 6.26388 2.33696 6.00049 3 6.00049ZM18.286 5.20749C18.5512 5.20749 18.8056 5.31285 18.9931 5.50038C19.1806 5.68792 19.286 5.94227 19.286 6.20749C19.286 6.4727 19.1806 6.72706 18.9931 6.9146C18.8056 7.10213 18.5512 7.20749 18.286 7.20749C18.0208 7.20749 17.7664 7.10213 17.5789 6.9146C17.3914 6.72706 17.286 6.4727 17.286 6.20749C17.286 5.94227 17.3914 5.68792 17.5789 5.50038C17.7664 5.31285 18.0208 5.20749 18.286 5.20749ZM8.5 0.000488281C9.29565 0.000488281 10.0587 0.316559 10.6213 0.879168C11.1839 1.44178 11.5 2.20484 11.5 3.00049C11.5 3.79614 11.1839 4.5592 10.6213 5.12181C10.0587 5.68442 9.29565 6.00049 8.5 6.00049C7.70435 6.00049 6.94129 5.68442 6.37868 5.12181C5.81607 4.5592 5.5 3.79614 5.5 3.00049C5.5 2.20484 5.81607 1.44178 6.37868 0.879168C6.94129 0.316559 7.70435 0.000488281 8.5 0.000488281ZM16 3.00049C16.1326 3.00049 16.2598 3.05317 16.3536 3.14693C16.4473 3.2407 16.5 3.36788 16.5 3.50049C16.5 3.6331 16.4473 3.76027 16.3536 3.85404C16.2598 3.94781 16.1326 4.00049 16 4.00049C15.8674 4.00049 15.7402 3.94781 15.6464 3.85404C15.5527 3.76027 15.5 3.6331 15.5 3.50049C15.5 3.36788 15.5527 3.2407 15.6464 3.14693C15.7402 3.05317 15.8674 3.00049 16 3.00049Z" fill="#5457E7"/>
</svg>
