<svg width="271" height="242" viewBox="0 0 271 242" fill="none" xmlns="http://www.w3.org/2000/svg">
<path d="M208.696 112.128L233.686 103.256C232.623 101.761 218.619 69.3356 205.444 62.8696C193.938 55.28 172.571 56.6792 148.42 58.3646C140.673 58.7495 133.034 60.3374 125.778 63.071C98.5569 73.8618 94.6681 109.637 94.6681 109.637L119.711 118.255C119.711 118.255 115.642 166.856 111.806 192.264C111.806 192.264 143.182 210.697 211.586 199.398C211.586 199.44 208.813 119.315 208.696 112.128Z" fill="#68E1FD"/>
<path d="M147.039 78.7379L158.429 133.826L177.522 70.2261L147.039 78.7379Z" fill="#231F20"/>
<path d="M158.429 134.356C158.311 134.349 158.198 134.304 158.107 134.228C158.017 134.151 157.955 134.047 157.929 133.932L146.539 78.8119C146.513 78.6816 146.536 78.546 146.605 78.4321C146.674 78.3183 146.783 78.2344 146.911 78.1971L177.394 69.7171C177.485 69.6906 177.582 69.6894 177.674 69.7137C177.766 69.7379 177.849 69.7868 177.915 69.8549C177.984 69.9205 178.032 70.0041 178.055 70.0961C178.077 70.1881 178.073 70.2846 178.042 70.3743L158.917 133.974C158.886 134.081 158.822 134.175 158.735 134.244C158.647 134.312 158.54 134.351 158.429 134.356ZM147.655 79.1193L158.524 131.674L176.736 70.9891L147.655 79.1193Z" fill="#231F20"/>
<path d="M171.88 3.34009C169.755 3.04329 168.321 3.82769 166.398 4.29409C163.869 4.90889 164.581 4.97248 162.328 3.52028C157.016 0.128283 150.109 1.65468 144.191 3.73228C138.273 5.80988 131.973 8.34328 125.948 6.62608C128.023 8.89963 130.905 10.2763 133.981 10.4633C129.029 13.3465 121.826 11.1205 117.703 15.1061C121.636 20.0555 126.018 24.6329 130.793 28.7801C127.235 28.2238 123.777 27.1526 120.529 25.6001C126.548 32.1549 133.912 37.3393 142.119 40.8005C148.112 43.4293 154.604 45.3161 161.138 44.8815C171.646 44.1713 182.388 35.9351 183.217 25.1125C183.78 17.7243 180.964 4.60149 171.88 3.34009Z" fill="white"/>
<path d="M159.226 45.5068C153.998 45.5068 148.314 44.1288 141.907 41.2668C133.628 37.7825 126.201 32.5539 120.136 25.9393C120.054 25.8487 120.005 25.7326 119.999 25.6105C119.993 25.4884 120.029 25.3678 120.101 25.2692C120.174 25.1707 120.278 25.1002 120.397 25.0696C120.516 25.0391 120.641 25.0505 120.752 25.1019C123.396 26.3414 126.178 27.263 129.04 27.8472C124.784 24.012 120.854 19.8319 117.289 15.3499C117.201 15.2525 117.152 15.1259 117.152 14.9948C117.152 14.8636 117.201 14.737 117.289 14.6397C119.69 12.3183 123.058 11.9897 126.32 11.6717C128.264 11.5452 130.187 11.1893 132.047 10.6117C129.525 10.0771 127.238 8.75985 125.513 6.84865C125.443 6.75929 125.405 6.64924 125.405 6.53595C125.405 6.42267 125.443 6.31262 125.513 6.22325C125.572 6.12392 125.662 6.04705 125.77 6.00482C125.878 5.96258 125.996 5.95739 126.108 5.99005C131.526 7.52705 137.211 5.51305 142.714 3.56265L144.032 3.10685C149.259 1.26245 156.888 -0.740946 162.626 2.94785L163.476 3.50965C164.389 4.13505 164.379 4.12445 165.601 3.82765L166.323 3.64745C166.822 3.53085 167.29 3.39305 167.747 3.24465C169.1 2.72924 170.556 2.53685 171.997 2.68285C181.071 4.08205 184.375 16.9187 183.737 25.1867C182.845 36.8467 171.327 44.7543 161.17 45.4433C160.533 45.4857 159.874 45.5068 159.226 45.5068ZM122.644 27.1159C128.297 32.7426 134.981 37.2336 142.332 40.3447C149.387 43.4399 155.528 44.7543 161.096 44.3833C173.58 43.5353 182.016 33.7197 182.686 25.1125C183.291 17.2367 180.252 5.03605 171.806 3.82765C170.514 3.70192 169.21 3.88355 168.002 4.35765C167.534 4.50605 167.035 4.65445 166.514 4.78165L165.813 4.95125C164.262 5.34345 164.102 5.32225 162.87 4.48485L162.041 3.93365C156.729 0.499254 149.398 2.43905 144.372 4.19865L143.054 4.66505C138.029 6.44585 132.833 8.27965 127.712 7.51645C129.517 8.93736 131.717 9.77 134.013 9.90145C134.127 9.90727 134.236 9.9496 134.324 10.0222C134.412 10.0947 134.474 10.1936 134.501 10.3043C134.53 10.4159 134.52 10.5337 134.474 10.6393C134.428 10.7448 134.348 10.832 134.246 10.8873C131.919 12.2441 129.146 12.5197 126.458 12.7741C123.419 13.0815 120.54 13.3571 118.426 15.1273C122.274 19.9057 126.54 24.3328 131.176 28.3561C131.263 28.4293 131.324 28.5291 131.349 28.6402C131.374 28.7513 131.361 28.8674 131.314 28.9709C131.266 29.0764 131.186 29.1635 131.084 29.219C130.982 29.2745 130.865 29.2953 130.751 29.2783C127.977 28.8587 125.258 28.1335 122.644 27.1159Z" fill="#231F20"/>
<path d="M147.793 60.4635L147.039 78.7379C147.039 78.7379 154.412 89.0729 165.717 84.2923C177.022 79.5117 177.522 70.2261 177.522 70.2261L173.888 35.3945C173.888 35.3945 164.389 32.2145 163.826 12.8589C154.883 18.5744 144.563 21.7819 133.949 22.1445C133.949 22.1445 131.994 43.5353 134.926 52.3969C137.859 61.2585 147.793 60.4635 147.793 60.4635Z" fill="white"/>
<path d="M159.831 86.0728C151.735 86.0728 146.667 79.1298 146.603 79.045C146.535 78.9494 146.501 78.8336 146.508 78.7164L147.241 61.0144C144.988 61.0144 137.019 60.4314 134.416 52.5344C131.494 43.6728 133.354 22.9498 133.417 22.0806C133.428 21.9511 133.485 21.8299 133.58 21.74C133.674 21.6501 133.797 21.5978 133.928 21.593C144.434 21.2166 154.65 18.0475 163.518 12.4134C163.595 12.3538 163.688 12.317 163.785 12.3073C163.882 12.2976 163.98 12.3152 164.067 12.3583C164.155 12.4015 164.228 12.4682 164.28 12.5511C164.331 12.6339 164.358 12.7295 164.358 12.8268C164.644 22.6106 167.279 28.0802 169.436 30.9634C170.596 32.6579 172.193 34.0091 174.058 34.8748C174.155 34.9067 174.24 34.9656 174.304 35.0445C174.368 35.1235 174.408 35.2191 174.419 35.32L178 70.1728C178 70.353 177.363 79.9248 165.888 84.7796C163.977 85.613 161.917 86.0529 159.831 86.0728ZM147.581 78.5998C148.526 79.8506 155.326 88.1398 165.516 83.8256C176.385 79.2252 176.98 70.3106 176.991 70.2152L173.399 35.7864C171.689 35.0338 164.092 30.7514 163.327 13.8444C154.588 19.1465 144.654 22.1753 134.438 22.653C134.172 25.833 132.812 44.2876 135.426 52.227C138.188 60.5798 147.357 59.965 147.761 59.9332C147.835 59.9285 147.909 59.9393 147.979 59.9648C148.048 59.9904 148.112 60.0302 148.165 60.0816C148.218 60.1338 148.26 60.1966 148.288 60.266C148.315 60.3354 148.328 60.4099 148.324 60.4844L147.581 78.5998Z" fill="#231F20"/>
<path d="M168.969 44.5954C171.419 45.2066 174.013 44.8255 176.183 43.5354C177.659 42.5912 178.866 41.2839 179.689 39.7393C180.511 38.1946 180.921 36.4647 180.879 34.7162C180.952 33.4231 180.734 32.1302 180.242 30.932C179.987 30.3368 179.608 29.8029 179.13 29.3659C178.652 28.929 178.085 28.5991 177.469 28.3986C175.917 28.1463 174.325 28.403 172.932 29.13C170.807 29.978 170.647 31.1546 169.298 32.7658C169.447 32.628 169.585 32.1828 169.723 32.045" fill="white"/>
<path d="M171.317 45.4222C170.481 45.4223 169.649 45.3155 168.841 45.1042C168.771 45.0868 168.706 45.0559 168.648 45.0132C168.59 44.9705 168.542 44.9168 168.505 44.8553C168.468 44.7938 168.443 44.7256 168.432 44.6546C168.422 44.5837 168.425 44.5113 168.443 44.4417C168.46 44.3721 168.491 44.3066 168.534 44.249C168.577 44.1914 168.631 44.1427 168.692 44.1058C168.754 44.0689 168.822 44.0444 168.893 44.0339C168.965 44.0233 169.037 44.0268 169.107 44.0442C170.249 44.3385 171.438 44.4038 172.605 44.2364C173.772 44.069 174.894 43.6722 175.907 43.069C177.309 42.1746 178.455 40.9332 179.233 39.4657C180.011 37.9982 180.396 36.3546 180.348 34.695C180.422 33.4817 180.219 32.2674 179.753 31.144C179.53 30.619 179.198 30.1472 178.778 29.7598C178.359 29.3724 177.862 29.0783 177.32 28.8968C176.034 28.5364 174.664 29.0134 173.134 29.607C172.085 29.9889 171.215 30.7439 170.69 31.727C170.404 32.1701 170.096 32.5982 169.766 33.0096L169.67 33.1156C169.572 33.2074 169.442 33.2585 169.308 33.2587C169.173 33.2588 169.043 33.208 168.945 33.1165C168.846 33.025 168.786 32.8995 168.777 32.7656C168.768 32.6316 168.81 32.4991 168.894 32.3948C168.894 32.3948 168.969 32.257 169.001 32.1828C169.077 31.9966 169.185 31.8246 169.319 31.674C169.38 31.6219 169.448 31.579 169.521 31.5468L169.776 31.1864C170.415 30.014 171.456 29.1107 172.709 28.6424C174.208 27.8767 175.915 27.6164 177.575 27.9004C178.266 28.1214 178.901 28.4874 179.438 28.9737C179.975 29.4601 180.401 30.0556 180.688 30.72C181.223 31.9928 181.459 33.3704 181.379 34.748C181.422 36.5852 180.989 38.4024 180.121 40.0236C179.254 41.6448 177.981 43.0151 176.428 44.0018C174.883 44.9263 173.118 45.4171 171.317 45.4222Z" fill="#231F20"/>
<path d="M147.4 70.12C149.492 70.1757 151.567 69.7222 153.444 68.7988C155.321 67.8753 156.944 66.5097 158.174 64.82C162.541 58.9794 161.446 54.856 161.446 54.856C161.446 54.856 155.773 60.7602 147.793 60.4846L147.4 70.12Z" fill="#231F20"/>
<path d="M147.921 70.6182C147.591 70.6182 147.4 70.6182 147.347 70.6182C147.212 70.6048 147.087 70.5401 146.998 70.4376C146.909 70.3351 146.863 70.2024 146.869 70.067L147.273 60.4634C147.272 60.3938 147.287 60.325 147.314 60.2611C147.342 60.1972 147.382 60.1396 147.433 60.0919C147.484 60.0442 147.544 60.0074 147.609 59.9838C147.675 59.9602 147.745 59.9503 147.814 59.9546C155.464 60.1878 161 54.5486 161.064 54.4956C161.128 54.4284 161.209 54.3793 161.299 54.3532C161.388 54.3272 161.483 54.3251 161.574 54.3472C161.665 54.3728 161.748 54.4213 161.815 54.4881C161.882 54.5549 161.931 54.6378 161.956 54.7288C161.956 54.8984 163.019 59.1596 158.599 65.138C157.371 66.8191 155.765 68.1902 153.911 69.1418C152.057 70.0933 150.006 70.5989 147.921 70.6182ZM148.303 61.004L147.953 69.5582C149.866 69.5162 151.744 69.0365 153.443 68.1563C155.141 67.276 156.614 66.0186 157.749 64.4808C160.681 60.5694 161.053 57.453 161.032 55.9478C157.527 59.0628 153.037 60.8522 148.346 61.004H148.303Z" fill="#231F20"/>
<path d="M149.313 31.4619C149.313 31.4619 144.308 41.4895 145.987 42.9099C147.666 44.3303 151.65 42.7297 151.65 42.7297" fill="white"/>
<path d="M147.995 44.023C147.139 44.0733 146.293 43.8219 145.604 43.3128C143.745 41.744 147.581 33.6668 148.792 31.2182C148.858 31.0954 148.968 31.0026 149.101 30.9591C149.234 30.9157 149.378 30.925 149.504 30.985C149.567 31.0156 149.623 31.0582 149.669 31.1104C149.716 31.1627 149.751 31.2235 149.774 31.2895C149.796 31.3555 149.806 31.4253 149.801 31.4949C149.797 31.5645 149.779 31.6326 149.748 31.6952C147.421 36.3592 145.498 41.8182 146.284 42.4966C147.464 43.493 150.386 42.645 151.416 42.2316C151.547 42.1823 151.693 42.1857 151.822 42.2411C151.95 42.2964 152.053 42.3994 152.107 42.5284C152.133 42.5932 152.146 42.6623 152.145 42.732C152.144 42.8017 152.129 42.8705 152.101 42.9345C152.074 42.9985 152.034 43.0564 151.984 43.105C151.934 43.1535 151.874 43.1917 151.809 43.2174C150.593 43.6999 149.303 43.9723 147.995 44.023Z" fill="#231F20"/>
<path d="M157.112 31.9452C157.944 31.7654 158.411 30.6688 158.157 29.4959C157.902 28.3231 157.021 27.518 156.189 27.6978C155.358 27.8777 154.89 28.9742 155.145 30.1471C155.4 31.32 156.281 32.125 157.112 31.9452Z" fill="#231F20"/>
<path d="M144.94 31.4367C145.048 30.2365 144.446 29.2017 143.595 29.1253C142.744 29.0489 141.967 29.9599 141.858 31.16C141.75 32.3601 142.352 33.3949 143.203 33.4713C144.054 33.5477 144.831 32.6368 144.94 31.4367Z" fill="#231F20"/>
<path d="M149.435 53.5406C148.197 53.5793 146.987 53.173 146.024 52.3958C145.942 52.3257 145.885 52.2315 145.86 52.1267C145.835 52.022 145.844 51.9121 145.886 51.8128C146.864 49.3112 148.266 47.7954 150.03 47.3078C152.217 46.8059 154.511 47.0873 156.511 48.1028C156.578 48.1294 156.637 48.171 156.685 48.2243C156.733 48.2776 156.768 48.3412 156.787 48.4102C156.816 48.4753 156.831 48.5457 156.831 48.6169C156.831 48.6881 156.816 48.7585 156.787 48.8236C156.194 49.9996 155.34 51.0257 154.291 51.8245C153.242 52.6233 152.025 53.1738 150.731 53.4346C150.303 53.5081 149.869 53.5436 149.435 53.5406ZM147.012 51.834C148.066 52.4525 149.313 52.6531 150.508 52.3958C151.55 52.1855 152.536 51.7588 153.402 51.1433C154.268 50.5279 154.994 49.7375 155.534 48.8236C153.891 48.0966 152.057 47.9217 150.306 48.3254C148.999 48.6964 147.852 49.873 147.012 51.834Z" fill="#231F20"/>
<path d="M127.574 77.3809C127.701 78.4939 119.711 118.254 119.711 118.254L127.574 77.3809Z" fill="#231F20"/>
<path d="M119.711 118.774H119.563C119.494 118.763 119.428 118.738 119.37 118.7C119.311 118.663 119.261 118.614 119.222 118.556C119.183 118.498 119.157 118.433 119.144 118.365C119.131 118.297 119.133 118.227 119.148 118.159C122.336 102.429 127.011 78.6107 127.011 77.4235C127.002 77.355 127.007 77.2854 127.026 77.2189C127.045 77.1525 127.077 77.0906 127.121 77.037C127.165 76.9835 127.219 76.9394 127.28 76.9074C127.342 76.8754 127.409 76.8563 127.478 76.8511C127.619 76.8391 127.758 76.8823 127.867 76.9713C127.976 77.0604 128.046 77.1884 128.063 77.3281C128.179 78.4729 121.518 111.714 120.179 118.361C120.158 118.472 120.101 118.572 120.016 118.647C119.931 118.722 119.824 118.767 119.711 118.774Z" fill="#231F20"/>
<path d="M190.369 27.4578L172.513 25.6703C170.569 25.4757 168.834 26.8903 168.639 28.83L164.638 68.6135C164.443 70.5532 165.861 72.2834 167.805 72.478L185.661 74.2655C187.605 74.4602 189.34 73.0455 189.535 71.1058L193.536 31.3224C193.731 29.3826 192.313 27.6524 190.369 27.4578Z" fill="#231F20"/>
<path d="M186.011 74.8372H185.597L167.747 73.0458C166.673 72.9387 165.686 72.4107 165.003 71.5778C164.32 70.745 163.996 69.6755 164.103 68.6044L168.108 28.7802C168.218 27.7104 168.748 26.7275 169.582 26.0463C170.417 25.365 171.487 25.0408 172.56 25.1444L190.41 26.9358C190.943 26.9888 191.459 27.1461 191.931 27.3987C192.402 27.6512 192.819 27.9941 193.158 28.4076C193.496 28.8212 193.75 29.2973 193.904 29.8087C194.058 30.32 194.109 30.8567 194.054 31.3878L190.049 71.1802C189.949 72.1803 189.481 73.1077 188.735 73.7833C187.989 74.4588 187.019 74.8343 186.011 74.8372ZM172.199 26.2044C171.505 26.2006 170.831 26.4408 170.297 26.8828C169.689 27.3914 169.307 28.1192 169.234 28.9074L165.229 68.6892C165.152 69.4817 165.392 70.2723 165.898 70.8882C166.404 71.504 167.134 71.8949 167.928 71.9752L185.778 73.7666C186.171 73.8062 186.569 73.7678 186.947 73.6538C187.326 73.5398 187.678 73.3524 187.984 73.1023C188.29 72.8522 188.544 72.5443 188.73 72.1963C188.917 71.8483 189.033 71.467 189.071 71.0742L193.077 31.303C193.154 30.5095 192.914 29.7176 192.408 29.1001C191.903 28.4825 191.173 28.0894 190.378 28.0064L172.528 26.215L172.199 26.2044Z" fill="#231F20"/>
<path d="M233.686 103.256C233.686 103.256 241.027 118.594 242.441 124.615C246.829 143.271 230.041 167.926 209.705 155.524C203.033 151.465 198.559 144.553 195.595 137.345C189.273 121.986 186.107 104.973 184.97 88.4582C184.449 81.0382 185.831 68.4454 176.661 65.329C173.708 64.269 170.286 67.5232 169.596 66.1876C168.438 63.8874 172.528 58.492 178.978 61.4388C178.978 61.4388 174.494 56.8278 169.883 58.1316C165.271 59.4354 167.248 54.835 170.169 53.8068C172.815 52.874 178.978 53.669 181.134 57.9832C181.134 57.9832 179.105 51.2416 175.524 50.4996C171.944 49.7576 170.754 48.8036 170.966 47.733C171.328 45.8568 174.632 46.2914 176.587 46.673C178.542 47.0546 183.738 49.9272 185.087 53.6796C185.087 53.6796 183.344 47.7436 178.956 44.9876C176.215 43.2598 173.973 43.493 174.547 42.6026C175.121 41.7122 178.308 39.4226 182.346 42.3588C186.383 45.295 191.728 54.6866 191.728 54.6866C191.728 54.6866 191.728 48.1994 192.301 48.3266C195.393 49.1004 196.998 56.6476 197.423 59.0856C198.421 64.8626 200.281 68.8906 202.969 74.2754C207.973 84.3348 213.923 98.4222 218.407 108.694" fill="white"/>
<path d="M220.691 159.404C216.692 159.325 212.793 158.14 209.429 155.98C203.458 152.344 198.644 146.143 195.106 137.547C189.305 123.481 185.714 106.976 184.428 88.5007C184.343 87.3029 184.311 85.9885 184.269 84.5999C184.078 77.3495 183.844 68.3395 176.481 65.8273C175.068 65.3503 173.453 65.9863 172.146 66.4951C170.839 67.0039 169.628 67.4809 169.107 66.4315C168.586 65.3821 169.001 63.4741 170.35 62.0855C171.139 61.2948 172.106 60.7041 173.171 60.3629C174.236 60.0218 175.367 59.94 176.47 60.1245C174.823 59.0645 172.411 58.0045 170.01 58.6405C167.609 59.2765 166.823 58.4179 166.674 57.8137C166.206 56.3615 167.906 54.0401 169.978 53.3087C171.576 52.903 173.244 52.8503 174.864 53.1542C176.484 53.4581 178.019 54.1114 179.36 55.0683C178.457 53.3087 177.108 51.3689 175.397 51.0191C173.081 50.5315 170.084 49.6623 170.435 47.6271C170.924 45.0513 175.259 45.8781 176.672 46.1431C178.75 46.7555 180.674 47.8035 182.314 49.2171C181.362 47.7075 180.102 46.4146 178.616 45.4223C177.62 44.8183 176.548 44.3479 175.429 44.0231C174.611 43.7581 174.069 43.5885 173.899 43.1115C173.856 42.9759 173.846 42.8321 173.87 42.6919C173.894 42.5518 173.951 42.4194 174.037 42.3059C174.834 41.3186 175.97 40.6614 177.224 40.4615C178.163 40.3245 179.12 40.3839 180.035 40.6357C180.949 40.8875 181.801 41.3263 182.537 41.9243C185.618 44.1821 189.348 49.9273 191.037 52.7681C191.133 48.4009 191.558 48.0723 191.728 47.9345C191.885 47.8329 192.073 47.7915 192.259 47.8179C195.712 48.6871 197.348 56.5947 197.763 59.0009C198.751 64.7143 200.578 68.6681 203.256 74.0529C207.293 82.1619 211.894 92.7725 215.942 102.122L218.715 108.482C218.743 108.546 218.758 108.615 218.76 108.684C218.761 108.754 218.748 108.824 218.723 108.889C218.697 108.954 218.659 109.013 218.61 109.063C218.561 109.114 218.503 109.154 218.439 109.181C218.309 109.235 218.163 109.236 218.032 109.185C217.901 109.134 217.796 109.033 217.738 108.906L214.975 102.546C210.927 93.1965 206.337 82.6177 202.31 74.5193C199.59 69.0603 197.731 65.0429 196.721 59.1811C195.988 55.0153 194.437 50.0121 192.365 48.9839C192.144 50.8729 192.048 52.7744 192.078 54.6761C192.075 54.7908 192.034 54.9014 191.962 54.9911C191.89 55.0809 191.791 55.1449 191.68 55.1736C191.568 55.2023 191.451 55.1941 191.344 55.1502C191.238 55.1064 191.149 55.0293 191.09 54.9305C191.037 54.8457 185.778 45.6343 181.846 42.7829C181.238 42.2798 180.533 41.9065 179.775 41.6859C179.016 41.4653 178.221 41.4021 177.437 41.5003C176.519 41.6549 175.675 42.0967 175.025 42.7617L175.758 43.0161C176.959 43.3691 178.109 43.875 179.179 44.5213C183.684 47.3515 185.459 53.2663 185.554 53.5101C185.598 53.6506 185.584 53.8027 185.515 53.933C185.446 54.0632 185.329 54.1608 185.188 54.2044C185.047 54.2479 184.894 54.2339 184.764 54.1653C184.633 54.0967 184.536 53.9792 184.492 53.8387C183.259 50.2877 178.234 47.4787 176.449 47.1925C173.41 46.6095 171.636 46.8321 171.444 47.8285C171.285 48.6341 172.762 49.3867 175.588 49.9485C179.445 50.7435 181.517 57.5169 181.602 57.8031C181.629 57.9264 181.611 58.0555 181.552 58.1669C181.492 58.2784 181.395 58.3649 181.277 58.411C181.159 58.457 181.028 58.4595 180.909 58.418C180.789 58.3765 180.688 58.2938 180.624 58.1847C178.627 54.1991 172.804 53.3935 170.308 54.2733C168.639 54.8669 167.418 56.7219 167.651 57.4533C167.779 57.8455 168.565 57.8985 169.691 57.5805C174.558 56.2131 179.116 60.8347 179.318 61.0255C179.395 61.1216 179.437 61.2413 179.437 61.3647C179.437 61.4881 179.395 61.6078 179.318 61.7039C179.248 61.8055 179.145 61.8795 179.027 61.9124C178.908 61.9454 178.781 61.9354 178.669 61.8841C174.324 59.8913 171.731 62.0643 171.03 62.7851C170.031 63.8451 169.585 65.1277 169.968 65.9121C170.169 66.0499 171.115 65.6789 171.678 65.4563C173.059 64.9157 174.961 64.1843 176.736 64.7885C184.8 67.5339 185.055 76.9573 185.236 84.5257C185.236 85.9037 185.31 87.2075 185.395 88.3841C186.67 106.743 190.24 123.141 196.02 137.144C199.473 145.529 204.148 151.56 209.918 155.079C217.196 159.51 224.718 159.415 231.093 154.804C239.646 148.634 244.374 135.427 241.856 124.731C240.475 118.838 233.208 103.637 233.144 103.531C233.113 103.469 233.095 103.401 233.091 103.331C233.086 103.262 233.096 103.192 233.119 103.126C233.141 103.06 233.177 102.999 233.223 102.947C233.269 102.895 233.325 102.852 233.388 102.821C233.451 102.791 233.519 102.773 233.589 102.768C233.659 102.764 233.729 102.773 233.795 102.796C233.861 102.819 233.922 102.854 233.974 102.9C234.027 102.946 234.069 103.002 234.1 103.065C234.397 103.701 241.484 118.52 242.898 124.53C245.543 135.787 240.773 149.196 231.72 155.705C228.531 158.074 224.668 159.37 220.691 159.404Z" fill="#231F20"/>
<path d="M180.89 35.4263C181.987 35.4263 182.877 34.5389 182.877 33.4441C182.877 32.3494 181.987 31.4619 180.89 31.4619C179.793 31.4619 178.903 32.3494 178.903 33.4441C178.903 34.5389 179.793 35.4263 180.89 35.4263Z" fill="white"/>
<path d="M180.89 35.967C180.389 35.9691 179.899 35.8229 179.482 35.547C179.065 35.271 178.739 34.8778 178.546 34.417C178.353 33.9562 178.302 33.4486 178.398 32.9585C178.494 32.4685 178.734 32.0179 179.088 31.6641C179.441 31.3102 179.891 31.0688 180.382 30.9706C180.873 30.8724 181.382 30.9218 181.845 31.1124C182.307 31.303 182.703 31.6264 182.981 32.0415C183.26 32.4566 183.408 32.9448 183.408 33.4442C183.405 34.1106 183.14 34.749 182.668 35.2213C182.197 35.6935 181.558 35.9614 180.89 35.967ZM180.89 31.992C180.599 31.9899 180.314 32.0741 180.071 32.2341C179.829 32.394 179.639 32.6223 179.527 32.8901C179.415 33.1578 179.385 33.4528 179.441 33.7375C179.497 34.0223 179.637 34.2839 179.843 34.4891C180.048 34.6943 180.311 34.8338 180.596 34.8899C180.881 34.946 181.177 34.9162 181.445 34.8042C181.714 34.6921 181.943 34.503 182.103 34.2608C182.263 34.0186 182.348 33.7344 182.346 33.4442C182.35 33.2508 182.315 33.0585 182.244 32.8787C182.173 32.6988 182.066 32.5349 181.931 32.3967C181.795 32.2585 181.633 32.1486 181.455 32.0737C181.276 31.9987 181.084 31.9601 180.89 31.9602V31.992Z" fill="#231F20"/>
<path d="M227.289 130.285C227.186 130.286 227.084 130.256 226.997 130.199C226.91 130.143 226.842 130.062 226.801 129.967L217.004 106.955C216.974 106.89 216.957 106.82 216.954 106.749C216.952 106.678 216.963 106.607 216.989 106.54C217.014 106.473 217.053 106.413 217.103 106.361C217.152 106.31 217.212 106.269 217.278 106.241C217.344 106.213 217.414 106.199 217.486 106.199C217.557 106.199 217.628 106.214 217.694 106.242C217.76 106.27 217.819 106.311 217.868 106.362C217.918 106.414 217.957 106.475 217.982 106.541L227.778 129.554C227.832 129.682 227.833 129.826 227.781 129.955C227.729 130.084 227.629 130.187 227.502 130.243C227.435 130.272 227.362 130.287 227.289 130.285Z" fill="#231F20"/>
<path d="M94.6681 109.637L89.4725 135.363L71.5694 114.364C71.5694 114.364 68.4988 109.255 66.5331 108.513C64.1956 107.644 54.5375 107.061 51.3181 104.432C48.0988 101.803 46.3456 101.252 46.0056 103.266C45.6656 105.28 54.5056 110.559 54.5056 110.559C54.5056 110.559 47.4719 112.605 46.0056 112.022C44.5394 111.439 40.9481 103.87 39.4819 103.87C38.7275 103.87 37.1444 105.471 38.6213 108.799C37.3569 105.619 35.5506 102.037 34.0206 102.037C32.4906 102.037 32.565 104.718 33.5213 108.291C33.5213 108.291 29.6644 102.026 28.2088 105.884C26.8275 109.425 36.985 121.943 39.3225 122.526C41.66 123.109 57.1725 118.435 57.1725 118.435C57.1725 118.435 76 172.039 103.328 179.035C110.128 180.773 119.711 118.255 119.711 118.255L94.6681 109.637Z" fill="white"/>
<path d="M103.625 179.597C103.482 179.6 103.338 179.582 103.2 179.544C91.725 176.608 80.3988 165.446 69.5506 146.377C64.6275 137.621 60.3897 128.499 56.875 119.092C53.9213 119.972 41.4688 123.587 39.2269 123.035C37.2294 122.548 31.46 115.7 28.9313 110.824C27.7094 108.471 27.3163 106.786 27.7413 105.694C27.8401 105.289 28.056 104.923 28.362 104.64C28.6681 104.358 29.0508 104.171 29.4625 104.104C30.525 104.019 31.6513 104.962 32.5331 105.959C32.225 104.072 32.3419 102.779 32.8625 102.09C33.006 101.904 33.1913 101.754 33.4036 101.653C33.6159 101.551 33.8491 101.501 34.0844 101.507C35.1469 101.507 36.39 102.768 37.6756 105.238C37.7588 104.906 37.8989 104.59 38.09 104.305C38.237 104.039 38.446 103.813 38.6995 103.645C38.9529 103.477 39.2431 103.373 39.5456 103.341C40.6081 103.341 41.7344 105.068 43.5406 107.888C44.4756 109.34 45.7506 111.322 46.2606 111.524C47.0363 111.842 50.5106 111.11 53.2413 110.379C50.4788 108.651 45.2725 105.079 45.5488 103.192C45.5568 102.855 45.6611 102.528 45.8493 102.248C46.0375 101.968 46.3018 101.748 46.6113 101.613C47.6738 101.21 49.1506 101.931 51.7113 104.019C53.7725 105.704 58.83 106.542 62.5275 107.199C63.9633 107.387 65.3836 107.677 66.7775 108.068C68.8494 108.853 71.75 113.601 72.09 114.142L89.2281 134.282L94.2113 109.626C94.2266 109.552 94.2572 109.482 94.301 109.42C94.3449 109.358 94.4012 109.305 94.4663 109.266C94.5352 109.237 94.6093 109.222 94.6841 109.222C94.7589 109.222 94.8329 109.237 94.9019 109.266L119.945 117.884C120.063 117.925 120.162 118.005 120.226 118.112C120.29 118.218 120.315 118.344 120.296 118.467C119.945 120.767 111.583 174.891 104.773 179.374C104.422 179.564 104.021 179.642 103.625 179.597ZM57.1831 117.905C57.294 117.904 57.4022 117.939 57.492 118.004C57.5818 118.068 57.6486 118.16 57.6825 118.265C57.8738 118.795 76.7331 171.679 103.466 178.526C103.583 178.548 103.703 178.544 103.819 178.514C103.934 178.485 104.042 178.431 104.135 178.357C109.235 174.997 116.131 138.077 119.127 118.605L95.0719 110.337L90.0038 135.469C89.9851 135.567 89.9379 135.658 89.868 135.73C89.7981 135.801 89.7086 135.851 89.6106 135.872C89.5152 135.9 89.4137 135.898 89.3191 135.868C89.2244 135.838 89.141 135.78 89.0794 135.702L71.1763 114.704C70.2944 113.262 67.8188 109.563 66.3525 109.012C65.027 108.648 63.678 108.375 62.315 108.195C58.2881 107.528 53.2731 106.701 50.9888 104.835C48.2369 102.588 47.2806 102.471 46.9513 102.599C46.6219 102.726 46.6325 103.044 46.59 103.341C46.4413 104.348 50.7338 107.655 54.8244 110.103C54.9134 110.156 54.9848 110.234 55.0299 110.328C55.075 110.421 55.0919 110.525 55.0783 110.627C55.0647 110.73 55.0214 110.826 54.9536 110.905C54.8859 110.983 54.7966 111.04 54.6969 111.068C53.4963 111.418 47.4081 113.188 45.8569 112.51C45.0706 112.192 44.125 110.761 42.6694 108.46C41.7238 106.976 40.13 104.496 39.5563 104.401C39.3174 104.487 39.1176 104.657 38.9931 104.878C38.7446 105.371 38.6151 105.915 38.6151 106.468C38.6151 107.02 38.7446 107.564 38.9931 108.058C39.0781 108.248 39.1525 108.439 39.2269 108.63C39.2755 108.758 39.2726 108.9 39.2186 109.026C39.1647 109.152 39.0639 109.252 38.9374 109.306C38.811 109.359 38.6687 109.362 38.5404 109.313C38.4121 109.264 38.3078 109.167 38.2494 109.043C38.1538 108.831 38.0794 108.63 38.005 108.439C36.2519 104.136 34.8175 102.588 34.1269 102.588C34.0541 102.583 33.9811 102.596 33.9145 102.625C33.8478 102.655 33.7894 102.7 33.7444 102.758C33.5638 102.991 33.0538 104.083 34.1481 108.174C34.179 108.298 34.1649 108.429 34.1086 108.543C34.0522 108.657 33.9571 108.748 33.84 108.8C33.7229 108.849 33.5921 108.854 33.4713 108.815C33.3504 108.776 33.2475 108.696 33.1813 108.588C32.2781 107.125 30.5675 105.068 29.59 105.185C29.2819 105.185 29.0056 105.524 28.7719 106.097C28.5381 106.669 28.5275 107.676 29.9194 110.337C32.5225 115.35 38.1113 121.657 39.4819 121.997C41.0969 122.399 50.8719 119.781 57.045 117.926C57.0862 117.913 57.1292 117.906 57.1725 117.905H57.1831Z" fill="#231F20"/>
<path d="M42 114.099C41.9145 114.102 41.8298 114.082 41.7537 114.044C41.6776 114.005 41.6125 113.947 41.5644 113.877L38.1963 109.107C38.1558 109.051 38.1269 108.987 38.1114 108.92C38.0959 108.852 38.094 108.782 38.1059 108.714C38.1177 108.646 38.1431 108.581 38.1805 108.523C38.218 108.465 38.2666 108.414 38.3238 108.375C38.3795 108.333 38.4432 108.303 38.511 108.287C38.5788 108.271 38.6492 108.269 38.7179 108.28C38.7866 108.292 38.8522 108.318 38.9105 108.356C38.9688 108.395 39.0186 108.444 39.0569 108.503L42.425 113.262C42.4658 113.319 42.4948 113.383 42.5105 113.452C42.5261 113.52 42.5281 113.59 42.5162 113.659C42.5044 113.728 42.479 113.794 42.4414 113.853C42.4039 113.913 42.355 113.964 42.2975 114.004C42.2111 114.067 42.1068 114.1 42 114.099Z" fill="#231F20"/>
<path d="M33.5638 108.28C34.741 110.12 36.0253 111.89 37.41 113.58L33.5638 108.28Z" fill="white"/>
<path d="M37.41 114.099C37.3362 114.1 37.2629 114.086 37.1952 114.057C37.1274 114.027 37.0666 113.984 37.0169 113.93C35.6083 112.227 34.3061 110.439 33.1175 108.577C33.0406 108.46 33.0131 108.317 33.041 108.18C33.0688 108.043 33.1498 107.923 33.2663 107.845C33.3863 107.769 33.5316 107.743 33.6708 107.773C33.81 107.802 33.9318 107.886 34.01 108.004C35.1705 109.81 36.4334 111.547 37.7925 113.209C37.8676 113.282 37.9187 113.376 37.9392 113.479C37.9596 113.582 37.9484 113.689 37.907 113.785C37.8656 113.881 37.796 113.963 37.7073 114.019C37.6186 114.075 37.515 114.103 37.41 114.099Z" fill="#231F20"/>
<path d="M33.585 176.64H237.415L270.119 240.505H0.881256L33.585 176.64Z" fill="white"/>
<path d="M270.119 241.034H0.881256C0.789571 241.035 0.699307 241.012 0.619246 240.967C0.539186 240.923 0.472056 240.858 0.424381 240.78C0.379702 240.701 0.356232 240.611 0.356232 240.52C0.356232 240.429 0.379702 240.34 0.424381 240.261L33.1388 176.396C33.1813 176.308 33.2478 176.235 33.3307 176.185C33.4135 176.134 33.5091 176.108 33.6063 176.109H237.415C237.512 176.108 237.608 176.134 237.691 176.185C237.773 176.235 237.84 176.308 237.882 176.396L270.597 240.261C270.642 240.34 270.665 240.429 270.665 240.52C270.665 240.611 270.642 240.701 270.597 240.78C270.547 240.861 270.477 240.928 270.393 240.973C270.309 241.017 270.214 241.039 270.119 241.034ZM1.75251 239.974H269.247L237.086 177.18H33.9144L1.75251 239.974Z" fill="#D1D3D4"/>
<path d="M190.251 212.573C206.03 212.573 218.821 208.729 218.821 203.987C218.821 199.245 206.03 195.401 190.251 195.401C174.472 195.401 161.68 199.245 161.68 203.987C161.68 208.729 174.472 212.573 190.251 212.573Z" fill="white"/>
<path d="M190.251 213.103C175.949 213.103 161.149 209.69 161.149 203.987C161.149 198.284 175.949 194.882 190.251 194.882C204.552 194.882 219.363 198.284 219.363 203.987C219.363 209.69 204.563 213.103 190.251 213.103ZM190.251 195.942C173.474 195.942 162.211 200.097 162.211 203.987C162.211 207.877 173.474 212.043 190.251 212.043C207.028 212.043 218.301 207.877 218.301 203.987C218.301 200.097 207.028 195.942 190.251 195.942Z" fill="#D1D3D4"/>
<path d="M52.4338 205.175L52.7206 208.429L126.129 219.135L125.385 215.722L52.4338 205.175Z" fill="white"/>
<path d="M126.129 219.665H126.044L52.625 208.98C52.508 208.962 52.4005 208.905 52.3196 208.818C52.2387 208.732 52.1892 208.621 52.1788 208.503L51.8813 205.249C51.8754 205.169 51.8865 205.089 51.914 205.014C51.9415 204.939 51.9847 204.871 52.0406 204.814C52.1012 204.761 52.1722 204.722 52.2491 204.698C52.3259 204.674 52.407 204.667 52.4869 204.676L125.438 215.213C125.545 215.229 125.645 215.277 125.725 215.351C125.805 215.425 125.86 215.521 125.884 215.626L126.618 219.039C126.638 219.123 126.636 219.211 126.614 219.294C126.592 219.377 126.549 219.454 126.49 219.516C126.393 219.61 126.264 219.663 126.129 219.665ZM53.22 208.005L125.47 218.541L124.971 216.23L53.0181 205.8L53.22 208.005Z" fill="#231F20"/>
<path d="M52.4338 205.185C52.4338 205.185 69.1363 190.886 69.6994 191.023C70.2625 191.161 145.318 200.118 145.318 200.118L125.385 215.721L52.4338 205.185Z" fill="white"/>
<path d="M125.385 216.252H125.311L52.3594 205.715C52.257 205.702 52.161 205.659 52.0834 205.591C52.0058 205.523 51.9503 205.433 51.9238 205.334C51.8925 205.238 51.891 205.135 51.9195 205.039C51.9479 204.942 52.005 204.857 52.0831 204.793C69.0088 190.314 69.4869 190.43 69.8163 190.515C70.9425 190.706 144.638 199.514 145.381 199.599C145.487 199.615 145.586 199.66 145.667 199.729C145.748 199.799 145.807 199.89 145.838 199.991C145.864 200.092 145.859 200.198 145.825 200.296C145.791 200.394 145.729 200.479 145.647 200.543L125.714 216.146C125.619 216.216 125.503 216.253 125.385 216.252ZM53.6875 204.825L125.258 215.16L144 200.5C129.423 198.762 73.4288 192.02 69.7844 191.575C68.5625 192.264 59.6588 199.705 53.6875 204.825Z" fill="#231F20"/>
<path d="M126.129 219.135L145.615 203.373L145.318 200.119L125.385 215.722L126.129 219.135Z" fill="white"/>
<path d="M126.129 219.665C126.069 219.676 126.008 219.676 125.948 219.665C125.863 219.634 125.786 219.582 125.727 219.513C125.667 219.445 125.626 219.362 125.608 219.273L124.864 215.86C124.844 215.762 124.852 215.661 124.885 215.568C124.919 215.474 124.978 215.392 125.056 215.33L144.999 199.737C145.073 199.676 145.163 199.637 145.258 199.624C145.353 199.611 145.45 199.624 145.538 199.663C145.626 199.701 145.701 199.763 145.756 199.842C145.811 199.92 145.843 200.012 145.849 200.108L146.146 203.352C146.151 203.439 146.137 203.526 146.104 203.607C146.071 203.687 146.02 203.76 145.955 203.818L126.458 219.58C126.36 219.643 126.245 219.673 126.129 219.665ZM125.969 215.934L126.458 218.181L145.063 203.14L144.882 201.136L125.969 215.934Z" fill="#231F20"/>
<path d="M52.4338 205.175L38.3238 158.026L115.695 171.191L125.385 215.722L52.4338 205.175Z" fill="white"/>
<path d="M125.385 216.251H125.311L52.3594 205.715C52.2588 205.701 52.1644 205.659 52.0872 205.593C52.01 205.527 51.9532 205.441 51.9238 205.344L37.8244 158.195C37.7988 158.108 37.7951 158.016 37.8136 157.928C37.8322 157.839 37.8723 157.756 37.9306 157.686C37.9908 157.619 38.0674 157.568 38.1529 157.538C38.2385 157.509 38.3302 157.501 38.4194 157.517L115.791 170.671C115.895 170.69 115.991 170.74 116.066 170.813C116.142 170.887 116.194 170.982 116.216 171.085L125.906 215.605C125.923 215.683 125.923 215.763 125.905 215.841C125.887 215.919 125.852 215.991 125.802 216.053C125.752 216.115 125.688 216.166 125.616 216.2C125.544 216.234 125.465 216.252 125.385 216.251ZM52.8481 204.74L124.705 215.117L115.249 171.657L39.0781 158.704L52.8481 204.74Z" fill="#231F20"/>
<path d="M168.714 179.491L168.034 179.607C165.956 179.908 164.064 180.966 162.721 182.575C161.975 183.716 161.563 185.041 161.531 186.403C161.499 187.764 161.849 189.108 162.541 190.282C165.579 195.741 172.985 197.246 178.669 197.776C179.469 197.902 180.288 197.841 181.06 197.596C181.424 197.505 181.75 197.302 181.991 197.016C182.232 196.729 182.376 196.374 182.402 196C182.428 195.627 182.335 195.255 182.135 194.938C181.936 194.621 181.642 194.375 181.294 194.235C180.695 193.952 180.051 193.773 179.392 193.705C175.864 193.122 172.124 192.645 168.884 191.066C167.003 190.112 164.368 187.886 165.696 185.575C166.179 184.825 166.874 184.235 167.694 183.879C170.945 182.332 174.069 183.508 177.256 184.462C177.488 184.545 177.733 184.581 177.979 184.568C178.283 184.482 178.546 184.288 178.718 184.023C178.89 183.758 178.959 183.439 178.914 183.127C178.808 181.727 177.405 180.805 176.098 180.296C173.745 179.409 171.204 179.132 168.714 179.491Z" fill="white"/>
<path d="M179.657 198.38C179.307 198.38 178.967 198.38 178.648 198.38C169.978 197.574 164.57 195.03 162.116 190.61C161.367 189.35 160.99 187.905 161.028 186.44C161.066 184.976 161.516 183.552 162.328 182.332C163.741 180.623 165.734 179.492 167.927 179.152L168.639 179.035C171.24 178.641 173.898 178.93 176.353 179.872C177.469 180.296 179.371 181.293 179.541 183.148C179.6 183.595 179.49 184.047 179.233 184.418C178.975 184.788 178.589 185.05 178.149 185.151C177.828 185.181 177.505 185.137 177.203 185.024L176.364 184.78C173.516 183.911 170.817 183.095 168.034 184.43C167.309 184.736 166.692 185.249 166.259 185.904C166.107 186.15 166.009 186.426 165.972 186.713C165.936 187 165.961 187.292 166.047 187.568C166.694 188.952 167.829 190.049 169.234 190.653C172.107 191.907 175.157 192.711 178.276 193.038L179.594 193.25C180.306 193.326 180.999 193.523 181.644 193.833C182.022 194.018 182.346 194.295 182.589 194.637C182.832 194.98 182.986 195.377 183.036 195.794C183.037 196.31 182.877 196.814 182.578 197.235C182.279 197.657 181.856 197.975 181.368 198.147C180.819 198.336 180.238 198.415 179.657 198.38ZM168.799 180.031L168.14 180.148C166.205 180.44 164.441 181.423 163.178 182.915C162.487 183.971 162.108 185.2 162.084 186.462C162.059 187.723 162.391 188.966 163.04 190.048C165.314 194.129 170.477 196.493 178.744 197.267C179.454 197.378 180.181 197.328 180.869 197.119C181.146 197.028 181.389 196.856 181.568 196.625C181.746 196.395 181.85 196.116 181.867 195.825C181.824 195.596 181.727 195.379 181.582 195.195C181.438 195.01 181.252 194.863 181.039 194.765C180.492 194.512 179.907 194.35 179.307 194.288L178.011 194.087C174.779 193.749 171.621 192.908 168.65 191.596C167.184 190.854 165.462 189.476 164.963 187.875C164.835 187.46 164.798 187.022 164.853 186.59C164.907 186.159 165.054 185.744 165.282 185.374C165.815 184.528 166.593 183.862 167.513 183.466C170.701 181.971 173.686 182.883 176.608 183.763L177.437 184.017C177.601 184.074 177.773 184.102 177.947 184.102C178.244 184.102 178.446 183.604 178.414 183.233C178.319 181.908 176.651 181.113 175.939 180.858C173.655 179.986 171.185 179.716 168.767 180.074L168.799 180.031Z" fill="#231F20"/>
<path d="M171.381 173.65C171.381 173.65 176.693 200.278 177.171 201.878C177.649 203.479 190.261 210.04 200.312 203.606L209.121 176.385L171.381 173.65Z" fill="white"/>
<path d="M190.463 206.934C187.446 206.906 184.458 206.335 181.644 205.249C179.434 204.401 176.927 203.033 176.661 202.069C176.226 200.468 171.083 174.89 170.86 173.809C170.843 173.728 170.845 173.645 170.867 173.565C170.89 173.486 170.931 173.413 170.988 173.353C171.041 173.292 171.109 173.244 171.184 173.212C171.26 173.181 171.342 173.168 171.423 173.173L209.163 175.908C209.243 175.914 209.321 175.938 209.39 175.978C209.46 176.018 209.519 176.073 209.564 176.139C209.609 176.206 209.639 176.281 209.65 176.36C209.662 176.44 209.655 176.521 209.631 176.597L200.823 203.818C200.78 203.934 200.702 204.034 200.599 204.104C197.569 206.012 194.046 206.995 190.463 206.934ZM172.039 174.222C172.879 178.409 177.352 200.32 177.681 201.782C177.83 202.143 179.806 203.627 183.313 204.761C186.819 205.895 193.672 207.188 199.866 203.298L208.366 176.904L172.039 174.222Z" fill="#231F20"/>
<path d="M209.145 174.752C209.326 170.238 200.996 166.241 190.539 165.823C180.082 165.406 171.458 168.727 171.277 173.24C171.096 177.754 179.427 181.751 189.883 182.169C200.34 182.586 208.964 179.265 209.145 174.752Z" fill="#231F20"/>
<path d="M191.813 183.148H189.974C179.073 182.703 170.69 178.537 170.849 173.661C170.956 171.255 173.123 169.113 176.969 167.64C181.361 166.116 186.013 165.478 190.654 165.764C201.556 166.209 209.939 170.375 209.779 175.304C209.684 177.71 207.516 179.841 203.67 181.325C199.857 182.627 195.842 183.245 191.813 183.148ZM188.838 166.75C184.94 166.676 181.06 167.301 177.384 168.594C174.005 169.887 172.071 171.774 171.944 173.671C171.774 177.805 180.051 181.653 190.006 182.056C194.502 182.335 199.009 181.722 203.266 180.254C206.645 178.95 208.579 177.074 208.706 175.177C208.876 171.032 200.599 167.195 190.644 166.781L188.838 166.75Z" fill="#231F20"/>
</svg>
