<svg width="32" height="32" viewBox="0 0 32 32" fill="none" xmlns="http://www.w3.org/2000/svg">
<g clip-path="url(#clip0_144_9940)">
<path d="M19.5049 12.3857C20.7029 13.5857 22.9649 13.2597 24.5609 11.6617C26.1569 10.0637 26.4809 7.79771 25.2849 6.59971C24.0869 5.39971 21.8249 5.72371 20.2289 7.32171C18.6329 8.92171 18.3089 11.1877 19.5049 12.3857Z" fill="white"/>
<path d="M31.6224 6.62389C30.8964 9.69189 28.9544 13.8759 24.3424 19.0599L23.8624 23.8759C23.7345 25.0298 23.2183 26.106 22.3984 26.9279L17.6344 31.6999C17.4831 31.8528 17.2874 31.954 17.0751 31.989C16.8629 32.024 16.645 31.991 16.4526 31.8947C16.2603 31.7984 16.1033 31.6438 16.0041 31.4529C15.9049 31.262 15.8686 31.0446 15.9004 30.8319L16.4404 27.0339C16.5204 26.4739 16.4144 25.8479 16.1784 25.1219C16.0288 24.6778 15.8627 24.2395 15.6804 23.8079L15.5164 23.4039C13.8864 23.0099 12.3604 22.0799 11.1344 20.8499C9.90642 19.6199 8.97642 18.0919 8.58442 16.4599L8.17842 16.2939C7.74796 16.1126 7.311 15.9472 6.86842 15.7979C6.14242 15.5599 5.51842 15.4539 4.95842 15.5339L1.16642 16.0739C0.95383 16.1051 0.736804 16.0685 0.546295 15.9691C0.355786 15.8697 0.201527 15.7127 0.105522 15.5205C0.00951703 15.3282 -0.0233291 15.1106 0.0116689 14.8986C0.0466669 14.6866 0.147721 14.4911 0.300417 14.3399L5.06442 9.56789C5.88442 8.74789 6.95842 8.22789 8.11242 8.09989H8.12442L12.9244 7.62389C18.0104 3.09989 22.1744 1.16389 25.2464 0.415889C27.0264 -0.0181109 28.4264 -0.0481109 29.4064 0.0398891C29.8944 0.0858891 30.2764 0.159889 30.5464 0.225889C30.6804 0.259889 30.7864 0.291889 30.8664 0.315889C31.2344 0.435889 31.4244 0.575889 31.5684 0.905889L31.6264 1.05189C31.782 1.52005 31.8872 2.00344 31.9404 2.49389C32.0504 3.46389 32.0424 4.84989 31.6224 6.62389ZM21.9664 21.5739L22.0464 21.4939L21.8324 23.6559C21.7541 24.3466 21.4439 24.9903 20.9524 25.4819L18.3564 28.0819L18.4644 27.3219C18.6084 26.3099 18.3964 25.3359 18.1204 24.4859C18.0195 24.1829 17.9101 23.8828 17.7924 23.5859C19.2684 23.4559 20.7164 22.8259 21.9664 21.5739ZM10.4104 9.99989C9.16042 11.2519 8.53042 12.7019 8.40242 14.1799C8.10556 14.0621 7.80544 13.9527 7.50242 13.8519C6.65442 13.5759 5.68242 13.3639 4.67042 13.5079L3.91042 13.6159L6.51042 11.0159C7.00042 10.5239 7.64242 10.2139 8.33042 10.1359L10.4904 9.92189L10.4104 9.99989ZM29.2224 2.07789C28.4624 2.00989 27.2884 2.02389 25.7304 2.40389C22.6144 3.16389 17.8964 5.39589 11.8564 11.4459C10.6164 12.6859 10.2584 14.1259 10.4824 15.5479C10.6964 16.8999 11.4484 18.2719 12.5784 19.4039C13.7064 20.5339 15.0784 21.2859 16.4264 21.5019C17.8464 21.7259 19.2844 21.3679 20.5224 20.1259C26.6804 13.9599 28.9064 9.23789 29.6344 6.15189C30.0004 4.60989 29.9944 3.46189 29.9104 2.72589C29.89 2.53583 29.8599 2.34692 29.8204 2.15989C29.6219 2.12273 29.4216 2.09536 29.2204 2.07789H29.2224Z" fill="white"/>
<path d="M14.0182 24.2777C12.6883 23.56 11.4724 22.6487 10.4102 21.5737C9.2715 20.4465 8.31897 19.1457 7.58822 17.7197C5.38422 19.7037 3.65822 27.8277 3.91022 28.0797C4.16022 28.3317 11.7822 26.2877 14.0182 24.2757V24.2777Z" fill="white"/>
</g>
<defs>
<clipPath id="clip0_144_9940">
<rect width="32" height="32" fill="white"/>
</clipPath>
</defs>
</svg>
