<svg width="133" height="111" viewBox="0 0 133 111" fill="none" xmlns="http://www.w3.org/2000/svg">
<path d="M20.3496 53.5999L32.5193 111L45.8734 71.7206L116.782 0L20.3496 53.5999Z" fill="#5458EA"/>
<path d="M45.8736 71.7207L67.1434 88.9067L32.5195 111L45.8736 71.7207Z" fill="#3D47D1"/>
<path d="M116.794 0L2.9012 32.8973C2.17937 33.1048 1.53036 33.511 1.02813 34.0694C0.525896 34.6279 0.190639 35.3162 0.0605732 36.0559C-0.069493 36.7956 0.0108526 37.557 0.292464 38.2533C0.574075 38.9495 1.04563 39.5527 1.65337 39.994L20.3753 53.6067L116.794 0Z" fill="#6872EA"/>
<path d="M116.793 0L92.8939 102.932C92.7534 103.54 92.4609 104.102 92.0438 104.566C91.6268 105.03 91.0987 105.381 90.5092 105.585C89.9196 105.789 89.288 105.84 88.6733 105.733C88.0587 105.626 87.4812 105.365 86.995 104.974L45.8848 71.7297L116.793 0Z" fill="#6872EA"/>
<path d="M132.344 23.0801V25.5312H122.598V23.0801H132.344ZM128.809 19.2227V29.5742H126.143V19.2227H128.809Z" fill="#7ACBF3"/>
<path d="M120.133 38.0601V39.8984H112.823V38.0601H120.133ZM117.481 35.167V42.9307H115.482V35.167H117.481Z" fill="#7ACBF3"/>
<path d="M31.1328 11.0601V12.8984H23.8232V11.0601H31.1328ZM28.4814 8.16699V15.9307H26.4819V8.16699H28.4814Z" fill="#7ACBF3"/>
<path d="M15.3438 92.0801V94.5312H5.59766V92.0801H15.3438ZM11.8086 88.2227V98.5742H9.14258V88.2227H11.8086Z" fill="#7ACBF3"/>
</svg>
