<svg width="15" height="19" viewBox="0 0 15 19" fill="none" xmlns="http://www.w3.org/2000/svg">
<path d="M11.789 5.15922L7.65264 5.15347L7.64408 11.3157L9.74264 9.20196C9.86311 9.08666 10.0234 9.02346 10.1893 9.02583C10.3553 9.02821 10.5137 9.09598 10.6309 9.21468C10.7481 9.33339 10.8147 9.49364 10.8166 9.66128C10.8185 9.82891 10.7555 9.99067 10.641 10.112L7.45475 13.3219C7.33526 13.4422 7.17336 13.5097 7.00466 13.5094C6.83596 13.5092 6.67426 13.4413 6.55509 13.3207L3.37775 10.102C3.26361 9.98025 3.20106 9.81832 3.20341 9.65069C3.20577 9.48307 3.27286 9.323 3.39037 9.20462C3.50788 9.08624 3.66652 9.01891 3.83246 9.01699C3.9984 9.01508 4.15852 9.07873 4.27867 9.19436L6.37135 11.3139L6.37992 5.1517L2.24356 5.14595C1.65304 5.14577 1.08656 5.38224 0.66842 5.80347C0.250276 6.22471 0.0146202 6.79631 0.0131592 7.39285L0.00154022 15.75C0.00134252 16.3465 0.235408 16.9188 0.652379 17.3412C1.06935 17.7636 1.63517 18.0016 2.22568 18.0031L11.7711 18.0164C12.3616 18.0165 12.9281 17.7801 13.3463 17.3588C13.7644 16.9376 14.0001 16.366 14.0015 15.7694L14.0131 7.41231C14.0133 6.81577 13.7793 6.24352 13.3623 5.82112C12.9453 5.39872 12.3795 5.16068 11.789 5.15922ZM7.6589 0.653473C7.65914 0.482977 7.59232 0.319371 7.47315 0.198646C7.35397 0.0779211 7.1922 0.00996677 7.02343 0.00973213C6.85466 0.00949748 6.6927 0.0770017 6.57319 0.197395C6.45368 0.317788 6.38641 0.481208 6.38617 0.651704L6.37992 5.1517L7.65264 5.15347L7.6589 0.653473Z" fill="#5458EA"/>
</svg>
