<svg width="11" height="12" viewBox="0 0 11 12" fill="none" xmlns="http://www.w3.org/2000/svg">
<path d="M10.5417 1.71429H7.79167V1.07143C7.79167 0.787268 7.67095 0.514746 7.45606 0.313814C7.24117 0.112882 6.94973 0 6.64583 0H4.35417C4.05027 0 3.75883 0.112882 3.54394 0.313814C3.32905 0.514746 3.20833 0.787268 3.20833 1.07143V1.71429H0.458333C0.336776 1.71429 0.220197 1.75944 0.134243 1.83981C0.0482886 1.92018 0 2.02919 0 2.14286C0 2.25652 0.0482886 2.36553 0.134243 2.4459C0.220197 2.52628 0.336776 2.57143 0.458333 2.57143H0.945312L1.48958 10.7389C1.53026 11.4581 2.11979 12 2.86458 12H8.13542C8.88393 12 9.46172 11.4702 9.51042 10.7411L10.0547 2.57143H10.5417C10.6632 2.57143 10.7798 2.52628 10.8658 2.4459C10.9517 2.36553 11 2.25652 11 2.14286C11 2.02919 10.9517 1.92018 10.8658 1.83981C10.7798 1.75944 10.6632 1.71429 10.5417 1.71429ZM3.683 10.2857H3.66667C3.54789 10.2858 3.43372 10.2427 3.34822 10.1656C3.26272 10.0885 3.21256 9.98341 3.20833 9.87241L2.97917 3.87241C2.97484 3.75875 3.01897 3.64813 3.10186 3.56489C3.18476 3.48166 3.29961 3.43262 3.42117 3.42857C3.54273 3.42452 3.66103 3.46579 3.75005 3.5433C3.83906 3.62081 3.8915 3.72821 3.89583 3.84187L4.125 9.84188C4.12718 9.89816 4.11748 9.9543 4.09644 10.0071C4.0754 10.0599 4.04344 10.1082 4.00239 10.1495C3.96134 10.1907 3.912 10.2239 3.8572 10.2473C3.80239 10.2707 3.7432 10.2837 3.683 10.2857ZM5.95833 9.85714C5.95833 9.97081 5.91005 10.0798 5.82409 10.1602C5.73814 10.2406 5.62156 10.2857 5.5 10.2857C5.37844 10.2857 5.26186 10.2406 5.17591 10.1602C5.08996 10.0798 5.04167 9.97081 5.04167 9.85714V3.85714C5.04167 3.74348 5.08996 3.63447 5.17591 3.5541C5.26186 3.47372 5.37844 3.42857 5.5 3.42857C5.62156 3.42857 5.73814 3.47372 5.82409 3.5541C5.91005 3.63447 5.95833 3.74348 5.95833 3.85714V9.85714ZM6.875 1.71429H4.125V1.07143C4.12465 1.0432 4.13035 1.01519 4.14174 0.989044C4.15313 0.9629 4.17 0.939149 4.19135 0.919186C4.2127 0.899223 4.2381 0.883451 4.26606 0.872796C4.29402 0.862142 4.32398 0.85682 4.35417 0.857143H6.64583C6.67602 0.85682 6.70598 0.862142 6.73394 0.872796C6.7619 0.883451 6.7873 0.899223 6.80865 0.919186C6.83 0.939149 6.84687 0.9629 6.85826 0.989044C6.86965 1.01519 6.87535 1.0432 6.875 1.07143V1.71429ZM7.79167 9.87241C7.78744 9.98341 7.73728 10.0885 7.65178 10.1656C7.56629 10.2427 7.45211 10.2858 7.33333 10.2857H7.31672C7.25654 10.2837 7.19738 10.2706 7.14261 10.2472C7.08783 10.2239 7.03853 10.1906 6.99751 10.1494C6.95649 10.1082 6.92455 10.0598 6.90353 10.007C6.88251 9.95426 6.87282 9.89814 6.875 9.84188L7.10417 3.84187C7.10631 3.78559 7.12029 3.73026 7.1453 3.67903C7.17032 3.6278 7.20588 3.58168 7.24996 3.5433C7.29403 3.50492 7.34576 3.47504 7.40219 3.45535C7.45862 3.43567 7.51864 3.42657 7.57883 3.42857C7.63902 3.43058 7.69819 3.44365 7.75298 3.46704C7.80777 3.49043 7.85709 3.52368 7.89814 3.56489C7.93918 3.60611 7.97114 3.65448 7.99219 3.70724C8.01325 3.76001 8.02298 3.81613 8.02083 3.87241L7.79167 9.87241Z" fill="#B9E0E9"/>
</svg>
