<svg width="19" height="16" viewBox="0 0 19 16" fill="none" xmlns="http://www.w3.org/2000/svg">
<path d="M17.5772 6.23255C17.0577 5.83373 16.4194 5.54094 15.7455 5.38303C15.6349 5.35725 15.5336 5.29942 15.4535 5.21628C15.3734 5.13315 15.3178 5.02813 15.2931 4.9135C15.0037 3.57831 14.3806 2.43331 13.4648 1.56573C12.4001 0.555593 10.9922 0 9.5 0C8.18818 0 6.97656 0.425724 5.99799 1.23145C5.33478 1.77838 4.80094 2.47488 4.43717 3.26785C4.39773 3.35462 4.33923 3.43063 4.26636 3.4898C4.19348 3.54898 4.10824 3.58969 4.01746 3.60866C3.02479 3.81615 2.12859 4.25686 1.4443 4.88123C0.499492 5.74574 0 6.89496 0 8.2071C0 9.53345 0.537715 10.743 1.51369 11.6175C2.44588 12.4509 3.70092 12.91 5.04688 12.91H8.90625V7.01715L7.54471 8.42688C7.48786 8.48573 7.42007 8.53201 7.34544 8.56293C7.27081 8.59385 7.19089 8.60875 7.11053 8.60674C7.03017 8.60473 6.95104 8.58584 6.87794 8.55122C6.80483 8.51661 6.73928 8.46698 6.68525 8.40536C6.47002 8.16061 6.4908 7.77907 6.7168 7.54507L9.08029 5.09831C9.19163 4.98311 9.3426 4.9184 9.5 4.9184C9.6574 4.9184 9.80837 4.98311 9.91971 5.09831L12.2832 7.54431C12.5162 7.78599 12.5296 8.18212 12.2977 8.42457C12.2427 8.48211 12.1772 8.52783 12.1051 8.5591C12.0329 8.59037 11.9555 8.60658 11.8773 8.6068C11.7991 8.60701 11.7216 8.59123 11.6493 8.56035C11.577 8.52948 11.5114 8.48411 11.456 8.42688L10.0938 7.01715V12.91H14.6953C15.8583 12.91 16.9185 12.5719 17.6808 11.9583C18.5439 11.2629 19 10.2677 19 9.08314C19 7.93276 18.5079 6.94645 17.5772 6.23255ZM8.90625 15.3852C8.90625 15.5483 8.96881 15.7046 9.08016 15.8199C9.19151 15.9352 9.34253 16 9.5 16C9.65747 16 9.8085 15.9352 9.91985 15.8199C10.0312 15.7046 10.0938 15.5483 10.0938 15.3852V12.91H8.90625V15.3852Z" fill="#5458EA"/>
</svg>
