<svg width="70" height="71" viewBox="0 0 70 71" fill="none" xmlns="http://www.w3.org/2000/svg">
<circle cx="35" cy="35.5" r="34.75" stroke="#2A3649" stroke-width="0.5"/>
<path d="M47.75 34.5H39C38.2044 34.5 37.4413 34.1839 36.8787 33.6213C36.3161 33.0587 36 32.2956 36 31.5V22.75C36 22.6837 35.9737 22.6201 35.9268 22.5732C35.8799 22.5263 35.8163 22.5 35.75 22.5H32.4219C32.3052 22.2838 32.1692 22.0786 32.0156 21.8869C31.295 20.9925 30.2244 20.5 29 20.5C26.645 20.5 25 22.3506 25 25V34C25 35.5625 26.2712 36.5 27.5 36.5C27.8293 36.5036 28.156 36.4414 28.4609 36.317C28.7659 36.1927 29.0429 36.0087 29.2758 35.7758C29.5087 35.5429 29.6927 35.2659 29.817 34.9609C29.9414 34.656 30.0036 34.3293 30 34V24.5C30 24.2348 29.8946 23.9804 29.7071 23.7929C29.5196 23.6054 29.2652 23.5 29 23.5C28.7348 23.5 28.4804 23.6054 28.2929 23.7929C28.1054 23.9804 28 24.2348 28 24.5V34C28.0022 34.0662 27.9907 34.1322 27.9664 34.1939C27.942 34.2555 27.9053 34.3115 27.8584 34.3584C27.8115 34.4053 27.7555 34.442 27.6939 34.4664C27.6322 34.4907 27.5662 34.5022 27.5 34.5C27.3606 34.5 27 34.41 27 34V25C27 23.7912 27.5256 22.5 29 22.5C30.8556 22.5 31 24.3844 31 24.9612V33.6331C31 34.7238 30.6581 35.71 30.0369 36.4119C29.4062 37.125 28.5294 37.5 27.5 37.5C26.4706 37.5 25.5938 37.125 24.9631 36.4119C24.3419 35.71 24 34.7238 24 33.6331V28.5C24 28.2348 23.8946 27.9804 23.7071 27.7929C23.5196 27.6054 23.2652 27.5 23 27.5C22.7348 27.5 22.4804 27.6054 22.2929 27.7929C22.1054 27.9804 22 28.2348 22 28.5V33.6331C22 36.8525 24.0744 39.235 27 39.4788V46.5C27 47.5609 27.4214 48.5783 28.1716 49.3284C28.9217 50.0786 29.9391 50.5 31 50.5H44C45.0609 50.5 46.0783 50.0786 46.8284 49.3284C47.5786 48.5783 48 47.5609 48 46.5V34.75C48 34.6837 47.9737 34.6201 47.9268 34.5732C47.8799 34.5263 47.8163 34.5 47.75 34.5Z" fill="#2A3649"/>
<path d="M39.0045 32.5013H47.1176C47.1422 32.5012 47.1663 32.4938 47.1868 32.48C47.2072 32.4663 47.2232 32.4468 47.2326 32.424C47.242 32.4013 47.2445 32.3762 47.2397 32.352C47.2349 32.3279 47.2231 32.3056 47.2057 32.2881L38.2176 23.3C38.2001 23.2826 38.1779 23.2708 38.1537 23.266C38.1295 23.2613 38.1045 23.2637 38.0817 23.2732C38.0589 23.2826 38.0394 23.2985 38.0257 23.319C38.012 23.3394 38.0046 23.3635 38.0045 23.3881V31.5013C38.0045 31.7665 38.1098 32.0208 38.2974 32.2084C38.4849 32.3959 38.7392 32.5013 39.0045 32.5013Z" fill="#2A3649"/>
</svg>
