<svg width="70" height="71" viewBox="0 0 70 71" fill="none" xmlns="http://www.w3.org/2000/svg">
<circle cx="35" cy="35.5" r="34.75" stroke="#2A3649" stroke-width="0.5"/>
<path d="M37.125 28.4688V20.5H25.4062C24.627 20.5 24 21.127 24 21.9062V49.0938C24 49.873 24.627 50.5 25.4062 50.5H45.0938C45.873 50.5 46.5 49.873 46.5 49.0938V29.875H38.5312C37.7578 29.875 37.125 29.2422 37.125 28.4688ZM27.75 24.7188C27.75 24.4598 27.9598 24.25 28.2188 24.25H32.9062C33.1652 24.25 33.375 24.4598 33.375 24.7188V25.6562C33.375 25.9152 33.1652 26.125 32.9062 26.125H28.2188C27.9598 26.125 27.75 25.9152 27.75 25.6562V24.7188ZM27.75 28.4688C27.75 28.2098 27.9598 28 28.2188 28H32.9062C33.1652 28 33.375 28.2098 33.375 28.4688V29.4062C33.375 29.6652 33.1652 29.875 32.9062 29.875H28.2188C27.9598 29.875 27.75 29.6652 27.75 29.4062V28.4688ZM39.0475 43H41.8125C42.3305 43 42.75 43.4195 42.75 43.9375C42.75 44.4555 42.3305 44.875 41.8125 44.875H39.0475C38.0836 44.875 37.2152 44.3395 36.7834 43.477C36.6105 43.1301 36.3094 43.0949 36.1875 43.0949C36.0656 43.0949 35.7645 43.1295 35.6004 43.4576L35.151 44.3564C35.0732 44.5122 34.9535 44.6431 34.8054 44.7346C34.6573 44.8261 34.4866 44.8745 34.3125 44.8744C34.2902 44.8744 34.2686 44.8732 34.2457 44.8715C33.8678 44.8451 33.5426 44.5932 33.4236 44.2334L32.4375 41.2768L31.8158 43.1447C31.4707 44.1795 30.5045 44.875 29.4135 44.875H28.6875C28.1695 44.875 27.75 44.4555 27.75 43.9375C27.75 43.4195 28.1695 43 28.6875 43H29.4135C29.6965 43 29.9473 42.8195 30.0369 42.5512L31.1027 39.3496C31.2961 38.7748 31.8316 38.3881 32.4375 38.3881C33.0434 38.3881 33.5789 38.7742 33.7717 39.3496L34.585 41.7895C35.7434 40.8408 37.752 41.2211 38.4521 42.6191C38.5705 42.857 38.8014 43 39.0475 43ZM46.0898 26.6523L40.3535 20.9102C40.0898 20.6465 39.7324 20.5 39.3574 20.5H39V28H46.5V27.6426C46.5 27.2734 46.3535 26.916 46.0898 26.6523Z" fill="#2A3649"/>
</svg>
