<svg width="70" height="71" viewBox="0 0 70 71" fill="none" xmlns="http://www.w3.org/2000/svg">
<circle cx="35" cy="35.5" r="34.75" stroke="#2A3649" stroke-width="0.5"/>
<path d="M43.6875 24.25H39C39 22.1816 37.3184 20.5 35.25 20.5C33.1816 20.5 31.5 22.1816 31.5 24.25H26.8125C25.2598 24.25 24 25.5098 24 27.0625V47.6875C24 49.2402 25.2598 50.5 26.8125 50.5H43.6875C45.2402 50.5 46.5 49.2402 46.5 47.6875V27.0625C46.5 25.5098 45.2402 24.25 43.6875 24.25ZM29.625 45.3438C28.8457 45.3438 28.2188 44.7168 28.2188 43.9375C28.2188 43.1582 28.8457 42.5312 29.625 42.5312C30.4043 42.5312 31.0312 43.1582 31.0312 43.9375C31.0312 44.7168 30.4043 45.3438 29.625 45.3438ZM29.625 39.7188C28.8457 39.7188 28.2188 39.0918 28.2188 38.3125C28.2188 37.5332 28.8457 36.9062 29.625 36.9062C30.4043 36.9062 31.0312 37.5332 31.0312 38.3125C31.0312 39.0918 30.4043 39.7188 29.625 39.7188ZM29.625 34.0938C28.8457 34.0938 28.2188 33.4668 28.2188 32.6875C28.2188 31.9082 28.8457 31.2812 29.625 31.2812C30.4043 31.2812 31.0312 31.9082 31.0312 32.6875C31.0312 33.4668 30.4043 34.0938 29.625 34.0938ZM35.25 22.8438C36.0293 22.8438 36.6562 23.4707 36.6562 24.25C36.6562 25.0293 36.0293 25.6562 35.25 25.6562C34.4707 25.6562 33.8438 25.0293 33.8438 24.25C33.8438 23.4707 34.4707 22.8438 35.25 22.8438ZM42.75 44.4062C42.75 44.6641 42.5391 44.875 42.2812 44.875H33.8438C33.5859 44.875 33.375 44.6641 33.375 44.4062V43.4688C33.375 43.2109 33.5859 43 33.8438 43H42.2812C42.5391 43 42.75 43.2109 42.75 43.4688V44.4062ZM42.75 38.7812C42.75 39.0391 42.5391 39.25 42.2812 39.25H33.8438C33.5859 39.25 33.375 39.0391 33.375 38.7812V37.8438C33.375 37.5859 33.5859 37.375 33.8438 37.375H42.2812C42.5391 37.375 42.75 37.5859 42.75 37.8438V38.7812ZM42.75 33.1562C42.75 33.4141 42.5391 33.625 42.2812 33.625H33.8438C33.5859 33.625 33.375 33.4141 33.375 33.1562V32.2188C33.375 31.9609 33.5859 31.75 33.8438 31.75H42.2812C42.5391 31.75 42.75 31.9609 42.75 32.2188V33.1562Z" fill="#2A3649"/>
</svg>
