<svg width="12" height="12" viewBox="0 0 12 12" fill="none" xmlns="http://www.w3.org/2000/svg">
<path d="M10.7799 1.24805C10.7456 1.21042 10.7041 1.18013 10.6578 1.15899C10.6115 1.13786 10.5614 1.12634 10.5106 1.12511C10.4597 1.12388 10.4091 1.13298 10.3619 1.15186C10.3146 1.17073 10.2717 1.19899 10.2357 1.23493L9.94573 1.52344C9.9106 1.5586 9.89086 1.60628 9.89086 1.65598C9.89086 1.70569 9.9106 1.75336 9.94573 1.78852L10.2115 2.05383C10.2289 2.07134 10.2496 2.08523 10.2724 2.09471C10.2953 2.10418 10.3197 2.10906 10.3444 2.10906C10.3691 2.10906 10.3936 2.10418 10.4164 2.09471C10.4392 2.08523 10.4599 2.07134 10.4773 2.05383L10.76 1.77258C10.9029 1.62985 10.9163 1.39735 10.7799 1.24805ZM9.35956 2.10938L5.12862 6.33282C5.10297 6.35837 5.08432 6.39009 5.07448 6.42493L4.87878 7.00782C4.87409 7.02364 4.87376 7.04042 4.87782 7.05641C4.88188 7.0724 4.89018 7.087 4.90184 7.09866C4.91351 7.11033 4.9281 7.11863 4.94409 7.12269C4.96008 7.12675 4.97687 7.12641 4.99269 7.12173L5.57511 6.92602C5.60995 6.91618 5.64167 6.89753 5.66722 6.87188L9.89065 2.64048C9.92973 2.60098 9.95164 2.54767 9.95164 2.49212C9.95164 2.43656 9.92973 2.38325 9.89065 2.34376L9.65745 2.10938C9.61791 2.06995 9.56435 2.04781 9.50851 2.04781C9.45266 2.04781 9.3991 2.06995 9.35956 2.10938Z" fill="#5458EA"/>
<path d="M9.05484 4.53891L6.19805 7.40133C6.08763 7.51201 5.95193 7.59414 5.80266 7.64062L5.19562 7.84383C5.05156 7.88451 4.89926 7.88605 4.7544 7.84827C4.60955 7.8105 4.47739 7.73479 4.37153 7.62893C4.26568 7.52308 4.18997 7.39092 4.1522 7.24607C4.11442 7.10121 4.11596 6.94891 4.15664 6.80484L4.35984 6.19781C4.40619 6.04859 4.48816 5.91289 4.59867 5.80242L7.46109 2.94516C7.48733 2.91895 7.50521 2.88555 7.51246 2.84918C7.51972 2.81281 7.51602 2.7751 7.50185 2.74084C7.48767 2.70657 7.46366 2.67727 7.43283 2.65665C7.402 2.63603 7.36576 2.62502 7.32867 2.625H2.4375C2.0894 2.625 1.75556 2.76328 1.50942 3.00942C1.26328 3.25556 1.125 3.5894 1.125 3.9375V9.5625C1.125 9.9106 1.26328 10.2444 1.50942 10.4906C1.75556 10.7367 2.0894 10.875 2.4375 10.875H8.0625C8.4106 10.875 8.74444 10.7367 8.99058 10.4906C9.23672 10.2444 9.375 9.9106 9.375 9.5625V4.67133C9.37498 4.63424 9.36397 4.598 9.34335 4.56717C9.32273 4.53634 9.29344 4.51233 9.25916 4.49815C9.2249 4.48398 9.18719 4.48028 9.15082 4.48754C9.11445 4.49479 9.08105 4.51267 9.05484 4.53891Z" fill="#5458EA"/>
</svg>
