<svg width="70" height="70" viewBox="0 0 70 70" fill="none" xmlns="http://www.w3.org/2000/svg">
<circle cx="35" cy="35" r="34.75" stroke="#2A3649" stroke-width="0.5"/>
<path d="M49.1164 26.0227C47.2982 25.2819 45.4785 25 43.6598 25C37.8863 24.9995 32.1132 27.8387 26.3397 27.8387C24.8918 27.8387 23.4448 27.6602 21.9968 27.2139C21.8342 27.1639 21.6711 27.1402 21.5117 27.1402C20.705 27.1402 20 27.7467 20 28.5887V43.0353C20 43.6104 20.3389 44.1555 20.8831 44.3768C22.7014 45.1181 24.521 45.4 26.3397 45.4C32.1132 45.4 37.8868 42.5608 43.6603 42.5608C45.1082 42.5608 46.5552 42.7393 48.0032 43.1856C48.1658 43.2357 48.3289 43.2594 48.4883 43.2594C49.295 43.2594 50 42.6528 50 41.8109V27.3647C49.9995 26.7891 49.6606 26.2445 49.1164 26.0227ZM22.25 29.5636C23.1931 29.7931 24.1774 29.9083 25.1899 29.9702C24.9143 31.3085 23.7031 32.3171 22.25 32.3171V29.5636ZM22.25 42.5413V40.3656C23.861 40.3656 25.1646 41.6073 25.2363 43.1615C24.1802 43.079 23.1931 42.8741 22.25 42.5413ZM34.9998 39.5714C32.9284 39.5714 31.2498 37.6138 31.2498 35.2C31.2498 32.7857 32.9289 30.8286 34.9998 30.8286C37.0707 30.8286 38.7497 32.7857 38.7497 35.2C38.7497 37.6148 37.0702 39.5714 34.9998 39.5714ZM47.7496 40.8364C46.9283 40.6365 46.0757 40.5245 45.2034 40.4521C45.4785 39.2645 46.4924 38.3629 47.7496 38.2081V40.8364ZM47.7496 30.085C46.3016 29.9069 45.178 28.7326 45.1335 27.2823C46.0494 27.3811 46.919 27.5659 47.7496 27.8587V30.085Z" fill="#2A3649"/>
</svg>
