<svg width="28" height="14" viewBox="0 0 28 14" fill="none" xmlns="http://www.w3.org/2000/svg">
<path fill-rule="evenodd" clip-rule="evenodd" d="M7.35776 2.8C6.24659 2.8 5.18094 3.2425 4.39523 4.03015C3.60951 4.8178 3.1681 5.88609 3.1681 7C3.1681 8.11391 3.60951 9.1822 4.39523 9.96985C5.18094 10.7575 6.24659 11.2 7.35776 11.2H10.6548C11.4261 11.2 12.0513 11.8268 12.0513 12.6C12.0513 13.3732 11.4261 14 10.6548 14H7.35776C5.50582 14 3.72972 13.2625 2.4202 11.9497C1.11068 10.637 0.375 8.85652 0.375 7C0.375 5.14348 1.11068 3.36301 2.4202 2.05025C3.72972 0.737498 5.50582 0 7.35776 0H10.582C11.3533 0 11.9786 0.626801 11.9786 1.4C11.9786 2.1732 11.3533 2.8 10.582 2.8H7.35776ZM15.7714 1.4C15.7714 0.626801 16.3967 0 17.168 0H20.3922C22.2442 0 24.0203 0.737498 25.3298 2.05025C26.6393 3.36301 27.375 5.14349 27.375 7C27.375 8.85651 26.6393 10.637 25.3298 11.9497C24.0203 13.2625 22.2442 14 20.3922 14H17.0952C16.3239 14 15.6987 13.3732 15.6987 12.6C15.6987 11.8268 16.3239 11.2 17.0952 11.2H20.3922C21.5034 11.2 22.5691 10.7575 23.3548 9.96985C24.1405 9.1822 24.5819 8.11391 24.5819 7C24.5819 5.88609 24.1405 4.8178 23.3548 4.03015C22.5691 3.2425 21.5034 2.8 20.3922 2.8H17.168C16.3967 2.8 15.7714 2.1732 15.7714 1.4ZM7.42002 7C7.42002 6.2268 8.04528 5.6 8.81657 5.6H19.0498C19.8211 5.6 20.4464 6.2268 20.4464 7C20.4464 7.7732 19.8211 8.4 19.0498 8.4H8.81657C8.04528 8.4 7.42002 7.7732 7.42002 7Z" fill="#5457E7"/>
</svg>
