<svg width="20" height="20" viewBox="0 0 20 20" fill="none" xmlns="http://www.w3.org/2000/svg">
<path d="M20 9.70545C19.9935 9.58433 19.9448 9.46944 19.8624 9.38113C19.78 9.29283 19.6694 9.2368 19.55 9.223L18.3173 9.02157C18.2619 9.01239 18.2108 8.98536 18.1719 8.94451C18.1329 8.90366 18.108 8.85118 18.101 8.7949C18.0774 8.64202 18.0529 8.4833 18.0192 8.33284C18.0084 8.27811 18.0147 8.22133 18.0374 8.17043C18.0601 8.11952 18.0979 8.07704 18.1457 8.0489L19.2409 7.43492C19.3496 7.37895 19.4342 7.28459 19.4785 7.16977C19.5228 7.05495 19.5238 6.92769 19.4812 6.8122L19.2913 6.28315C19.2497 6.16726 19.1672 6.07095 19.0596 6.01265C18.952 5.95435 18.8269 5.93816 18.7082 5.96718L17.4798 6.20986C17.4249 6.21977 17.3683 6.21192 17.318 6.18743C17.2678 6.16294 17.2265 6.12306 17.2 6.07347C17.1284 5.93806 17.0505 5.80021 16.9692 5.6648C16.9397 5.61655 16.9259 5.5602 16.9297 5.50363C16.9335 5.44706 16.9547 5.3931 16.9904 5.34931L17.8077 4.39606C17.8907 4.30607 17.9384 4.18862 17.9419 4.0657C17.9453 3.94277 17.9043 3.82279 17.8264 3.7282L17.4697 3.29574C17.3921 3.20082 17.2824 3.13835 17.1618 3.12041C17.0412 3.10248 16.9182 3.13037 16.8168 3.19867L15.7413 3.85051C15.6937 3.87935 15.6381 3.89195 15.5827 3.88644C15.5274 3.88094 15.4753 3.85762 15.4341 3.81993C15.3154 3.71461 15.1938 3.61317 15.0798 3.51949C15.0361 3.48465 15.0045 3.43665 14.9896 3.38245C14.9747 3.32825 14.9774 3.27067 14.9971 3.21808L15.4423 2.0338C15.4908 1.9208 15.4965 1.79376 15.4583 1.67681C15.4201 1.55986 15.3407 1.46115 15.2351 1.39943L14.75 1.11355C14.6444 1.05206 14.52 1.03207 14.4007 1.05741C14.2814 1.08276 14.1755 1.15166 14.1034 1.25091L13.3173 2.24784C13.289 2.29117 13.2467 2.32321 13.1976 2.33844C13.1484 2.35368 13.0956 2.35116 13.0481 2.33132C13.0188 2.31919 12.7707 2.21678 12.5779 2.15174C12.525 2.13434 12.479 2.10032 12.4467 2.05464C12.4143 2.00897 12.3973 1.95404 12.3981 1.89789L12.4168 0.632553C12.4235 0.508998 12.3854 0.387216 12.3095 0.290011C12.2337 0.192806 12.1254 0.126844 12.0048 0.104477L11.4543 0.00740476C11.3344 -0.0135139 11.211 0.0102372 11.1071 0.0742444C11.0032 0.138252 10.9259 0.238162 10.8894 0.35541L10.4808 1.5596C10.4622 1.61305 10.4272 1.6591 10.3808 1.69098C10.3344 1.72286 10.2791 1.7389 10.2231 1.73675H9.75433C9.69869 1.73791 9.64412 1.72131 9.59837 1.68933C9.55262 1.65735 9.51803 1.61161 9.49952 1.55863L9.09279 0.361235C9.05701 0.24313 8.97981 0.142245 8.87564 0.077471C8.77148 0.0126971 8.6475 -0.0115231 8.52693 0.00934626L7.97549 0.106419C7.85571 0.128609 7.74797 0.193925 7.67229 0.29024C7.5966 0.386555 7.5581 0.507325 7.56395 0.630126L7.58318 1.89984C7.58356 1.95682 7.5657 2.01241 7.53227 2.05833C7.49883 2.10424 7.45159 2.13803 7.3976 2.15465C7.2875 2.19785 7.04856 2.29007 6.93991 2.33084C6.84376 2.36578 6.73895 2.32744 6.65433 2.22891L5.8726 1.25819C5.80088 1.15833 5.69512 1.08877 5.57567 1.06287C5.45621 1.03698 5.33149 1.05658 5.22549 1.11792L4.74183 1.40088C4.63512 1.46272 4.55486 1.56224 4.51651 1.68027C4.47816 1.79829 4.48444 1.92648 4.53414 2.04011L4.97885 3.22148C4.99825 3.27418 5.0008 3.3317 4.98614 3.38594C4.97148 3.44018 4.94035 3.48841 4.89712 3.52386C4.78029 3.62093 4.66058 3.71801 4.54135 3.82576C4.50041 3.86315 4.44869 3.88634 4.39376 3.89193C4.33883 3.89751 4.28357 3.88521 4.23606 3.85682L3.17308 3.19236C3.07101 3.12533 2.94822 3.09821 2.82775 3.11608C2.70728 3.13395 2.59741 3.19559 2.51876 3.28943L2.16347 3.72092C2.08455 3.81487 2.04273 3.9349 2.04601 4.05804C2.04929 4.18118 2.09745 4.29877 2.18126 4.38829L3.00241 5.34058C3.03885 5.38349 3.06063 5.43711 3.06453 5.49349C3.06843 5.54988 3.05423 5.60603 3.02405 5.65363C2.94183 5.78565 2.86347 5.92447 2.79231 6.06328C2.7657 6.11321 2.7241 6.15336 2.67348 6.17795C2.62287 6.20253 2.56584 6.21031 2.51058 6.20015L1.28414 5.96087C1.1654 5.93194 1.04026 5.94817 0.932607 6.00645C0.824956 6.06473 0.742327 6.16098 0.700489 6.27684L0.508181 6.80492C0.465675 6.92056 0.466669 7.04793 0.510974 7.16288C0.555279 7.27783 0.639817 7.37238 0.748566 7.42861L1.84376 8.04259C1.89301 8.07003 1.93208 8.11291 1.95506 8.16475C1.97804 8.21658 1.9837 8.27456 1.97116 8.32993L1.95962 8.39157C1.93462 8.52698 1.91155 8.65512 1.88943 8.79151C1.88179 8.84708 1.85693 8.89879 1.81842 8.93924C1.7799 8.97969 1.72971 9.00681 1.67501 9.01672L0.439912 9.21814C0.319127 9.23311 0.207869 9.29196 0.126916 9.38369C0.0459641 9.47542 0.000853116 9.59376 8.19743e-06 9.71661V10.2787C-0.000695686 10.402 0.0439527 10.5212 0.125308 10.6132C0.206664 10.7052 0.318939 10.7634 0.440393 10.7766L1.67501 10.9776C1.73049 10.9867 1.78155 11.0137 1.82055 11.0546C1.85955 11.0954 1.88439 11.1479 1.89135 11.2042C1.91491 11.3576 1.93943 11.5159 1.97308 11.6663C1.98393 11.721 1.97757 11.7778 1.9549 11.8287C1.93224 11.8796 1.89439 11.9221 1.84664 11.9503L0.751931 12.5652C0.643182 12.6212 0.558603 12.7155 0.51428 12.8304C0.469958 12.9452 0.468985 13.0724 0.511546 13.1879L0.703854 13.717C0.745596 13.8328 0.828134 13.929 0.935706 13.9873C1.04328 14.0456 1.16835 14.0618 1.28703 14.0329L2.51539 13.7927C2.57032 13.7826 2.627 13.7904 2.67728 13.8149C2.72756 13.8394 2.76884 13.8794 2.7952 13.9291C2.86731 14.065 2.94472 14.2023 3.02597 14.3378C3.05562 14.3859 3.06953 14.4423 3.06573 14.4989C3.06194 14.5555 3.04063 14.6095 3.00481 14.6532L2.18751 15.606C2.10351 15.6953 2.05471 15.8125 2.05028 15.9356C2.04586 16.0587 2.08611 16.1791 2.16347 16.2744L2.51972 16.7068C2.59726 16.8018 2.707 16.8644 2.82764 16.8823C2.94828 16.9002 3.07122 16.8723 3.1726 16.8039L4.24808 16.152C4.29577 16.1232 4.35137 16.1106 4.40669 16.1161C4.46201 16.1216 4.51411 16.1449 4.55529 16.1826C4.67453 16.2879 4.79568 16.3894 4.90962 16.4831C4.95332 16.5179 4.98491 16.5659 4.99986 16.6201C5.01481 16.6742 5.01233 16.7318 4.99279 16.7845L4.54712 17.9688C4.49864 18.0818 4.49296 18.2088 4.53116 18.3257C4.56936 18.4427 4.64878 18.5414 4.75433 18.6031L5.24039 18.8866C5.34596 18.9481 5.47031 18.9682 5.58962 18.9429C5.70894 18.9177 5.81483 18.8489 5.88702 18.7497L6.6827 17.762C6.75001 17.678 6.85577 17.6406 6.93414 17.6727C7.10145 17.7426 7.21347 17.7819 7.41202 17.8489C7.46491 17.8663 7.51091 17.9003 7.54334 17.946C7.57576 17.9916 7.59292 18.0465 7.59231 18.1027L7.57308 19.3671C7.56659 19.4906 7.60481 19.6123 7.68062 19.7094C7.75643 19.8066 7.86465 19.8726 7.9851 19.8952L8.53558 19.9922C8.65554 20.0134 8.77902 19.9897 8.88297 19.9257C8.98692 19.8616 9.06424 19.7616 9.10048 19.6442L9.50914 18.442C9.52763 18.3885 9.56265 18.3424 9.60905 18.3105C9.65544 18.2786 9.71075 18.2626 9.76683 18.2648H10.2356C10.2912 18.2636 10.3458 18.2802 10.3916 18.3122C10.4374 18.3441 10.4719 18.3899 10.4904 18.443L10.8976 19.6403C10.9291 19.7443 10.9928 19.8353 11.0794 19.9C11.1659 19.9648 11.2707 19.9998 11.3784 20C11.4071 20.0001 11.4357 19.9975 11.4639 19.9922L12.0154 19.8952C12.1352 19.873 12.2429 19.8077 12.3186 19.7113C12.3943 19.615 12.4328 19.4943 12.4269 19.3715L12.4077 18.1017C12.4073 18.0458 12.4246 17.9912 12.457 17.9458C12.4894 17.9004 12.5353 17.8667 12.588 17.8494C12.7726 17.7867 12.9024 17.7363 13.0163 17.6916L13.0452 17.6804C13.1942 17.6285 13.2663 17.6916 13.3082 17.744L14.1135 18.7453C14.1856 18.8444 14.2914 18.9131 14.4106 18.9383C14.5299 18.9636 14.6541 18.9436 14.7596 18.8822L15.2438 18.5992C15.3497 18.5375 15.4293 18.4385 15.4675 18.3212C15.5058 18.204 15.4999 18.0766 15.451 17.9634L15.0067 16.782C14.9871 16.7294 14.9844 16.6719 14.999 16.6176C15.0136 16.5633 15.0447 16.5151 15.088 16.4797C15.2048 16.3826 15.3245 16.2855 15.4438 16.1778C15.485 16.1403 15.537 16.1171 15.5922 16.1117C15.6474 16.1063 15.7029 16.1189 15.7505 16.1477L16.8269 16.7981C16.929 16.8652 17.0518 16.8924 17.1723 16.8745C17.2928 16.8566 17.4027 16.7949 17.4813 16.701L17.837 16.269C17.9159 16.1751 17.9578 16.055 17.9545 15.9319C17.9512 15.8088 17.903 15.6912 17.8192 15.6016L16.999 14.6469C16.9626 14.604 16.9408 14.5504 16.9369 14.494C16.933 14.4376 16.9472 14.3815 16.9774 14.3339C17.0596 14.2023 17.138 14.0635 17.2091 13.9242C17.2359 13.8744 17.2775 13.8343 17.3281 13.8098C17.3786 13.7852 17.4356 13.7773 17.4909 13.7873L18.7159 14.0286C18.8346 14.0575 18.9597 14.0413 19.0674 13.983C19.1751 13.9247 19.2577 13.8285 19.2995 13.7126L19.4894 13.1845C19.5319 13.069 19.5309 12.9417 19.4866 12.8268C19.4423 12.7119 19.3577 12.6175 19.249 12.5613L18.1529 11.9464C18.1043 11.9187 18.0659 11.8759 18.0433 11.8244C18.0207 11.7729 18.0151 11.7154 18.0274 11.6605L18.0389 11.5988C18.0639 11.4634 18.087 11.3353 18.1091 11.1989C18.1168 11.1433 18.1416 11.0916 18.1801 11.0512C18.2187 11.0107 18.2689 10.9836 18.3236 10.9737L19.5587 10.7728C19.6797 10.758 19.7914 10.6992 19.8726 10.6074C19.9538 10.5155 19.9991 10.3969 20 10.2738V9.70545ZM6.42068 14.2679C6.36077 14.373 6.27699 14.4624 6.17624 14.5285C6.07548 14.5946 5.96062 14.6357 5.84109 14.6483C5.72157 14.6609 5.60078 14.6447 5.48867 14.601C5.37655 14.5573 5.2763 14.4874 5.19616 14.397C4.11306 13.1879 3.51502 11.6149 3.51876 9.98472C3.52249 8.35457 4.12772 6.78431 5.21635 5.58034C5.29691 5.48997 5.39759 5.42022 5.51009 5.37684C5.62259 5.33345 5.74369 5.31767 5.86342 5.3308C5.98314 5.34393 6.09806 5.38559 6.19871 5.45236C6.29936 5.51912 6.38285 5.60907 6.44231 5.71479L8.63702 9.61468C8.70293 9.73099 8.73759 9.86267 8.73759 9.99666C8.73759 10.1307 8.70293 10.2623 8.63702 10.3786L6.42068 14.2679ZM10 16.5578C9.5425 16.5579 9.08627 16.5091 8.63895 16.4122C8.52242 16.3859 8.41366 16.3323 8.32148 16.2556C8.22931 16.179 8.15632 16.0815 8.10842 15.9711C8.06052 15.8607 8.03906 15.7404 8.04579 15.6201C8.05251 15.4997 8.08723 15.3827 8.14712 15.2784L10.3587 11.3955C10.4252 11.2785 10.5211 11.1813 10.6368 11.1137C10.7524 11.0461 10.8837 11.0105 11.0173 11.0106H15.4471C15.5664 11.0104 15.6841 11.0386 15.7907 11.0929C15.8972 11.1472 15.9895 11.226 16.0602 11.3231C16.1309 11.4201 16.178 11.5326 16.1976 11.6515C16.2172 11.7703 16.2088 11.8921 16.1731 12.007C15.3322 14.6435 12.8846 16.5578 10 16.5578ZM10.3611 8.6027L8.17308 4.713C8.11379 4.60855 8.07967 4.49148 8.07348 4.37125C8.06729 4.25103 8.08921 4.13102 8.13746 4.02093C8.18571 3.91084 8.25895 3.81375 8.35124 3.73752C8.44354 3.66129 8.55231 3.60805 8.66875 3.5821C9.10649 3.48897 9.55265 3.44213 10 3.44232C12.8846 3.44232 15.3322 5.35659 16.1716 7.99454C16.2074 8.10948 16.2158 8.2313 16.1961 8.35013C16.1765 8.46896 16.1295 8.58145 16.0588 8.67849C15.9881 8.77554 15.8957 8.8544 15.7892 8.90869C15.6827 8.96298 15.565 8.99118 15.4457 8.99099H11.0226C10.8881 8.99126 10.756 8.95545 10.6398 8.88722C10.5235 8.81899 10.4274 8.7208 10.3611 8.6027Z" fill="#5458EA"/>
</svg>
