<svg width="70" height="70" viewBox="0 0 70 70" fill="none" xmlns="http://www.w3.org/2000/svg">
<circle cx="35" cy="35" r="34.75" stroke="#2A3649" stroke-width="0.5"/>
<path d="M33.6364 45.8182H27.5C25.4273 45.8182 23.6591 45.1045 22.1955 43.6773C20.7318 42.2409 20 40.4909 20 38.4273C20 36.6545 20.5318 35.0727 21.5955 33.6818C22.6682 32.2909 24.0682 31.4045 25.7955 31.0227C26.3682 28.9318 27.5045 27.2409 29.2045 25.95C30.9136 24.65 32.8455 24 35 24C37.6636 24 39.9182 24.9273 41.7636 26.7818C43.6182 28.6273 44.5455 30.8818 44.5455 33.5455C46.1182 33.7273 47.4182 34.4091 48.4455 35.5909C49.4818 36.7545 50 38.1182 50 39.6818C50 41.3909 49.4045 42.8409 48.2136 44.0318C47.0227 45.2227 45.5727 45.8182 43.8636 45.8182H36.3636V36.0682L38.5455 38.1818L40.4545 36.2727L35 30.8182L29.5455 36.2727L31.4545 38.1818L33.6364 36.0682V45.8182Z" fill="#2A3649"/>
</svg>
