<svg width="70" height="71" viewBox="0 0 70 71" fill="none" xmlns="http://www.w3.org/2000/svg">
<circle cx="35" cy="35.5" r="34.75" stroke="#2A3649" stroke-width="0.5"/>
<path d="M30 36.2143V24.7857C30 23.2143 31.2857 21.9286 32.8571 21.9286H45.7143C47.2857 21.9286 48.5714 23.2143 48.5714 24.7857V33.3571H43.6714L41.8429 30.8714C41.7571 30.7429 41.5857 30.7429 41.5 30.8714L38.6571 34.7857C38.5714 34.8714 38.4 34.8857 38.3143 34.7857L36.2714 32.2857C36.1857 32.1857 36.0286 32.1857 35.9429 32.2857L32.9286 36.0857C32.8143 36.2143 32.9143 36.4286 33.0857 36.4286H42.1429V39.0714H32.8571C31.2714 39.0714 30 37.8 30 36.2143ZM25.7143 49.0714V47.6429H22.8571V49.0714H20V20.5H22.8571V21.9286H25.7143V20.5H29.1286C27.9143 21.5571 27.1429 23.0714 27.1429 24.7857V36.2143C27.1429 39.3714 29.7 41.9286 32.8571 41.9286H39.5714C38.1 43.1143 37.1429 44.9 37.1429 46.9286C37.1429 47.6857 37.3 48.4 37.5429 49.0714H25.7143ZM22.8571 27.6429H25.7143V24.7857H22.8571V27.6429ZM22.8571 33.3571H25.7143V30.5H22.8571V33.3571ZM22.8571 39.0714H25.7143V36.2143H22.8571V39.0714ZM25.7143 44.7857V41.9286H22.8571V44.7857H25.7143ZM50 36.2143V39.0714H47.1429V46.9286C47.1429 48.9 45.5429 50.5 43.5714 50.5C41.6 50.5 40 48.9 40 46.9286C40 44.9571 41.6 43.3571 43.5714 43.3571C44.0857 43.3571 44.5571 43.4571 45 43.6571V36.2143H50Z" fill="#2A3649"/>
</svg>
