<svg width="70" height="70" viewBox="0 0 70 70" fill="none" xmlns="http://www.w3.org/2000/svg">
<circle cx="35" cy="35" r="34.75" stroke="#2A3649" stroke-width="0.5"/>
<path d="M39.9998 34.9999C38.7148 34.9999 37.4723 34.4262 36.4998 33.385C35.5542 32.3693 34.9767 31.015 34.8749 29.5725C34.7661 28.0337 35.2355 26.6187 36.1961 25.5875C37.1567 24.5562 38.4998 24 39.9998 24C41.4892 24 42.8361 24.5662 43.7936 25.595C44.7604 26.6337 45.231 28.0462 45.1223 29.5718C45.0179 31.0162 44.4411 32.37 43.4973 33.3843C42.5273 34.4262 41.2854 34.9999 39.9998 34.9999ZM48.2392 45.9999H31.7611C31.4962 46.0013 31.2345 45.9419 30.9961 45.8263C30.7577 45.7107 30.549 45.5419 30.3861 45.333C30.2133 45.1065 30.094 44.8439 30.037 44.5648C29.9801 44.2856 29.9871 43.9972 30.0574 43.7211C30.5836 41.608 31.8874 39.8555 33.8274 38.6537C35.5492 37.5874 37.7411 36.9999 39.9998 36.9999C42.3029 36.9999 44.4373 37.5624 46.1692 38.628C48.1135 39.8237 49.4192 41.5862 49.9429 43.7249C50.0124 44.0012 50.0185 44.2896 49.961 44.5686C49.9034 44.8475 49.7836 45.1099 49.6104 45.3361C49.4477 45.5441 49.2395 45.712 49.0018 45.8271C48.7641 45.9421 48.5032 46.0012 48.2392 45.9999ZM28.1874 35.2499C25.988 35.2499 24.0543 33.205 23.8749 30.6918C23.7862 29.4043 24.1874 28.2137 24.9999 27.3406C25.8036 26.4762 26.9374 26 28.1874 26C29.4374 26 30.5624 26.4787 31.3705 27.3481C32.1892 28.2281 32.5892 29.4162 32.4955 30.6931C32.3161 33.2056 30.383 35.2499 28.1874 35.2499ZM32.2911 37.2156C31.1917 36.6781 29.7649 36.4093 28.188 36.4093C26.3468 36.4093 24.5587 36.8893 23.1524 37.7606C21.558 38.7499 20.4856 40.1905 20.0524 41.9299C19.989 42.1801 19.983 42.4414 20.0349 42.6942C20.0867 42.947 20.1951 43.1849 20.3518 43.3899C20.5005 43.5808 20.691 43.7351 20.9087 43.8408C21.1264 43.9466 21.3654 44.001 21.6074 43.9999H28.5449C28.662 43.9999 28.7754 43.9588 28.8652 43.8837C28.9551 43.8087 29.0158 43.7045 29.0368 43.5893C29.0436 43.5499 29.0524 43.5105 29.0624 43.4718C29.5924 41.343 30.8342 39.5443 32.6692 38.2331C32.7367 38.1844 32.791 38.1197 32.8272 38.0448C32.8633 37.9698 32.8802 37.8871 32.8763 37.8039C32.8724 37.7208 32.8478 37.64 32.8048 37.5688C32.7617 37.4976 32.7016 37.4383 32.6299 37.3962C32.5317 37.3387 32.4192 37.2781 32.2911 37.2156Z" fill="#2A3649"/>
</svg>
