<svg width="70" height="70" viewBox="0 0 70 70" fill="none" xmlns="http://www.w3.org/2000/svg">
<circle cx="35" cy="35" r="34.75" stroke="#2A3649" stroke-width="0.5"/>
<path d="M43.8512 27.6666H49.726C50.2638 27.6666 50.6997 28.0344 50.6997 28.4882V33.4451C50.6997 33.8988 50.2638 34.2666 49.726 34.2666H43.8512C43.3134 34.2666 42.8775 33.8988 42.8775 33.4451V28.4882C42.8775 28.0344 43.3134 27.6666 43.8512 27.6666ZM39.993 28.3146L42.2256 29.614V32.3193L39.993 33.6169C39.5612 33.8679 38.9664 33.6118 38.9664 33.1735V28.758C38.9664 28.3215 39.5592 28.0637 39.993 28.3146Z" fill="#2A3649"/>
<path d="M31.1748 35C34.2127 35 36.6748 32.5379 36.6748 29.5C36.6748 26.4621 34.2127 24 31.1748 24C28.1369 24 25.6748 26.4621 25.6748 29.5C25.6748 32.5379 28.1369 35 31.1748 35ZM35.0248 36.375H34.3072C33.3533 36.8133 32.292 37.0625 31.1748 37.0625C30.0576 37.0625 29.0006 36.8133 28.0424 36.375H27.3248C24.1365 36.375 21.5498 38.9617 21.5498 42.15V43.9375C21.5498 45.0762 22.4736 46 23.6123 46H38.7373C39.876 46 40.7998 45.0762 40.7998 43.9375V42.15C40.7998 38.9617 38.2131 36.375 35.0248 36.375Z" fill="#2A3649"/>
</svg>
