<svg width="70" height="70" viewBox="0 0 70 70" fill="none" xmlns="http://www.w3.org/2000/svg">
<circle cx="35" cy="35" r="34.75" stroke="#2A3649" stroke-width="0.5"/>
<path d="M48 43.0244C47.72 43.0242 47.4432 42.9652 47.1875 42.8512C47.128 42.8248 47.0713 42.7926 47.0181 42.755L41.8487 39.1162C41.5866 38.9317 41.3726 38.6868 41.2249 38.4023C41.0772 38.1177 41.0001 37.8019 41 37.4813V32.5188C41.0001 32.1981 41.0772 31.8823 41.2249 31.5977C41.3726 31.3132 41.5866 31.0683 41.8487 30.8837L47.0181 27.245C47.0713 27.2074 47.128 27.1752 47.1875 27.1488C47.492 27.0134 47.8255 26.9562 48.1577 26.9825C48.4899 27.0088 48.8103 27.1176 49.0897 27.2992C49.3691 27.4808 49.5988 27.7293 49.7578 28.0222C49.9167 28.3151 50 28.643 50 28.9762V41.0238C50 41.5542 49.7893 42.0629 49.4142 42.438C49.0391 42.813 48.5304 43.0238 48 43.0238V43.0244ZM35.75 44H24.25C23.1232 43.9988 22.0429 43.5507 21.2461 42.7539C20.4493 41.9571 20.0012 40.8768 20 39.75V30.25C20.0012 29.1232 20.4493 28.0429 21.2461 27.2461C22.0429 26.4493 23.1232 26.0012 24.25 26H35.78C36.8988 26.0013 37.9714 26.4464 38.7625 27.2375C39.5536 28.0286 39.9987 29.1012 40 30.22V39.75C39.9988 40.8768 39.5507 41.9571 38.7539 42.7539C37.9571 43.5507 36.8768 43.9988 35.75 44Z" fill="#2A3649"/>
</svg>
