<svg width="392" height="392" viewBox="0 0 392 392" fill="none" xmlns="http://www.w3.org/2000/svg">
<path d="M15.1328 274.006V282.552C15.1328 284.982 18.5824 287.021 20.2288 287.413C21.8752 287.805 232.222 350.29 240.69 350.133C249.157 349.976 252.058 348.957 253.861 347.781C255.664 346.605 369.814 281.611 372.794 279.808C375.773 278.005 376.008 276.75 376.086 275.261C376.4 271.262 377.419 262.168 377.419 262.168L15.1328 274.006Z" fill="white"/>
<path d="M240.613 350.68C233.244 350.68 102.002 312.186 24.3075 289.215L20.0739 287.96C18.1139 287.411 14.5859 285.216 14.5859 282.472V273.927C14.5859 273.613 14.8211 273.378 15.1347 273.299L377.5 261.461C377.656 261.461 377.813 261.539 377.97 261.618C378.048 261.775 378.127 261.931 378.127 262.088C378.127 262.167 377.029 271.183 376.794 275.103C376.637 276.749 376.324 278.16 373.188 280.12C371.62 281.061 340.73 298.701 310.86 315.792C283.42 331.472 255.117 347.623 254.255 348.171C252.53 349.269 249.708 350.367 240.77 350.602H240.613V350.68ZM15.7619 274.554V282.472C15.7619 284.511 18.7411 286.314 20.4659 286.784L24.6995 288.039C156.725 327.082 235.36 349.426 240.692 349.426C249.394 349.191 251.981 348.25 253.628 347.152C254.49 346.603 281.616 331.08 310.311 314.773C340.181 297.76 371.071 280.12 372.56 279.179C375.461 277.376 375.54 276.357 375.618 275.103C375.853 271.731 376.637 264.832 376.872 262.715L15.7619 274.554Z" fill="#D1D3D4"/>
<path d="M137.598 218.967L17.4106 271.731C14.8234 272.828 15.2938 275.807 18.1162 276.513L237.244 332.491C242.262 333.667 247.593 333.039 252.219 330.609L376.091 264.753C378.443 263.42 377.737 260.598 374.915 260.049L140.107 218.654C139.166 218.497 138.303 218.575 137.598 218.967Z" fill="white"/>
<path d="M242.263 333.59C240.538 333.59 238.813 333.355 237.088 332.963L17.882 277.064C16.3924 276.829 15.2948 275.653 15.0596 274.241C14.9812 272.909 15.8436 271.654 17.098 271.184L137.285 218.421C138.148 218.029 139.088 217.95 140.029 218.107L374.916 259.502C376.405 259.659 377.66 260.757 377.973 262.246C378.13 263.501 377.424 264.755 376.248 265.304L252.376 331.16C249.24 332.806 245.791 333.669 242.263 333.59ZM139.245 219.126C138.775 219.126 138.304 219.205 137.834 219.44L17.6468 272.281C16.8628 272.517 16.314 273.301 16.314 274.163C16.4708 275.104 17.2548 275.809 18.274 275.966L237.402 331.944C242.263 333.12 247.437 332.493 251.906 330.141L375.778 264.285C376.484 263.971 376.954 263.265 376.876 262.403C376.64 261.462 375.778 260.757 374.759 260.678L139.872 219.283C139.637 219.205 139.48 219.205 139.245 219.126Z" fill="#D1D3D4"/>
<path d="M349.821 263.737L239.277 320.89L48.9219 275.418L147.079 229.633L349.821 263.737Z" fill="white"/>
<path d="M239.279 321.516C239.201 321.516 239.201 321.516 239.122 321.516L48.7673 275.965C48.5321 275.887 48.3753 275.73 48.2969 275.495C48.2969 275.26 48.3753 275.025 48.6105 274.868L146.767 229.082C146.846 229.004 147.002 229.004 147.081 229.004L349.823 263.108C350.059 263.186 350.294 263.343 350.294 263.578C350.294 263.814 350.215 264.049 349.98 264.206L239.436 321.438C239.436 321.438 239.358 321.516 239.279 321.516ZM50.7273 275.26L239.201 320.34L347.942 264.049L147.159 230.258L50.7273 275.26Z" fill="#D1D3D4"/>
<path d="M296.041 299.014C295.728 299.014 295.414 298.779 295.414 298.465C295.414 298.23 295.571 297.995 295.728 297.916L326.539 281.766C326.852 281.609 327.166 281.688 327.323 282.001C327.48 282.315 327.401 282.628 327.088 282.785L296.355 298.935C296.276 299.014 296.12 299.014 296.041 299.014Z" fill="#D1D3D4"/>
<path d="M83.9698 252.053C87.8234 252.053 90.9474 250.93 90.9474 249.544C90.9474 248.158 87.8234 247.035 83.9698 247.035C80.1162 247.035 76.9922 248.158 76.9922 249.544C76.9922 250.93 80.1162 252.053 83.9698 252.053Z" fill="#D1D3D4"/>
<path d="M242.732 348.093C242.418 348.093 242.183 347.858 242.183 347.544L241.32 335.627C241.32 335.314 241.556 335 241.869 335C242.183 335 242.496 335.235 242.496 335.549L243.359 347.466C243.359 347.779 243.124 348.093 242.732 348.093Z" fill="#D1D3D4"/>
<path d="M228.299 95.4123C227.829 95.0987 227.045 94.7851 226.731 95.2555C226.418 95.7259 226.731 96.1963 227.045 96.5883C228.613 98.5483 230.338 100.352 232.141 101.998C232.376 102.312 232.768 102.468 233.082 102.468C233.709 102.468 233.944 101.684 233.866 101.136C233.552 98.2347 230.573 96.9019 228.299 95.4123Z" fill="white"/>
<path d="M233.086 103.097C232.615 103.018 232.145 102.861 231.753 102.469C229.871 100.823 228.147 98.9415 226.579 96.9815C225.795 95.9623 226.03 95.2567 226.265 94.9431C226.735 94.3159 227.676 94.3159 228.617 94.9431C228.931 95.1783 229.323 95.4135 229.715 95.6487C231.831 96.9815 234.183 98.3927 234.497 101.137C234.575 101.685 234.419 102.234 234.105 102.626C233.87 102.94 233.478 103.097 233.086 103.097ZM227.206 95.5703C227.127 95.5703 227.127 95.8055 227.441 96.1975C228.931 98.1575 230.655 99.8823 232.459 101.529C232.537 101.607 232.851 101.842 233.007 101.842C233.007 101.842 233.086 101.842 233.164 101.764C233.321 101.607 233.321 101.372 233.321 101.137C233.007 98.9415 230.969 97.6871 229.009 96.5111C228.617 96.2759 228.225 96.0407 227.911 95.8055C227.755 95.7271 227.519 95.6487 227.206 95.5703Z" fill="#231F20"/>
<path d="M247.355 114.305L244.376 111.091C244.376 111.091 244.533 106.544 243.906 105.525C243.279 104.505 232.93 97.763 233.008 97.9982C233.087 98.2334 233.714 106.936 233.714 106.936L244.768 120.421L247.355 114.305Z" fill="white"/>
<path d="M244.767 121.048C244.61 121.048 244.453 120.97 244.297 120.813L233.242 107.328C233.164 107.25 233.085 107.093 233.085 107.015C232.85 103.8 232.458 98.6259 232.38 98.2339C232.301 97.9203 232.458 97.6851 232.693 97.5283C233.007 97.3715 233.164 97.2931 238.573 100.978C242.101 103.33 244.061 104.82 244.375 105.29C245.002 106.231 245.002 109.602 244.924 110.935L247.746 113.992C247.903 114.149 247.981 114.384 247.825 114.62L245.237 120.735C245.159 120.892 245.002 121.048 244.767 121.048ZM234.261 106.701L244.61 119.323L246.649 114.463L243.905 111.484C243.826 111.405 243.748 111.248 243.748 111.092C243.826 108.975 243.669 106.388 243.356 105.917C242.807 105.212 236.143 100.664 233.634 99.0963C233.791 100.194 233.948 102.389 234.261 106.701Z" fill="#231F20"/>
<path d="M271.967 106.938L261.854 127.165L247.899 111.798L241.156 122.147C241.156 122.147 264.911 155.154 270.086 152.566C275.26 149.979 285.139 126.146 285.139 126.146L271.967 106.938Z" fill="#68E1FD"/>
<path d="M289.842 181.573L265.068 256.523C265.068 256.523 240.685 253.23 240.372 252.211C240.058 251.192 255.738 247.586 255.738 247.586L275.652 175.301" fill="white"/>
<path d="M265.074 257.071H264.996C240.221 253.7 239.908 252.759 239.829 252.367C239.751 252.21 239.829 251.975 239.908 251.818C240.535 250.642 249.629 248.368 255.274 247.036L275.031 175.064C275.109 174.751 275.423 174.594 275.737 174.672C276.05 174.751 276.207 175.064 276.129 175.378L256.293 247.663C256.215 247.898 256.058 248.055 255.901 248.055C250.021 249.466 243.671 251.112 241.554 251.975C244.769 252.837 256.764 254.64 264.682 255.738L289.3 181.258C289.378 180.944 289.692 180.788 290.005 180.866C290.319 180.944 290.476 181.258 290.397 181.572V181.65L265.623 256.6C265.545 256.836 265.388 257.071 265.074 257.071Z" fill="#231F20"/>
<path d="M316.733 175.93L321.907 260.21C321.907 260.21 297.368 265.541 297.289 264.914C297.211 264.286 310.539 254.8 310.539 254.8L300.504 176.949" fill="white"/>
<path d="M297.452 265.461C297.06 265.461 296.982 265.382 296.982 265.382C296.825 265.304 296.746 265.147 296.746 264.99C296.668 264.52 296.59 264.049 309.918 254.563L299.961 177.104C299.961 176.79 300.196 176.477 300.51 176.477C300.823 176.477 301.058 176.633 301.137 176.947L311.172 254.798C311.172 255.033 311.094 255.269 310.937 255.347C306.154 258.718 300.98 262.56 298.863 264.285C302.783 263.736 313.838 261.384 321.364 259.816L316.268 176.006C316.268 175.693 316.503 175.379 316.817 175.379C317.13 175.379 317.444 175.614 317.444 175.928L322.618 260.208C322.618 260.521 322.462 260.757 322.148 260.835C303.332 264.833 298.706 265.461 297.452 265.461Z" fill="#231F20"/>
<path d="M250.569 247.195L253.862 252.213L266.798 253.781L265.543 258.72C265.543 258.72 237.084 255.192 236.457 252.527C235.83 249.861 250.569 247.195 250.569 247.195Z" fill="#231F20"/>
<path d="M284.043 98.1568C284.043 98.1568 275.106 100.274 272.44 105.84C269.775 111.406 272.989 140.963 272.989 140.963L312.659 142.688C312.659 142.688 316.736 120.893 314.698 111.485C312.659 102.077 304.741 89.6112 284.043 98.1568Z" fill="#68E1FD"/>
<path d="M284.202 94.0775L284.515 102.702C284.515 102.702 285.613 107.484 290.787 105.838C293.923 104.818 296.354 102.466 297.53 99.4087L296.354 84.5127C295.413 83.964 294.629 83.1015 294.237 82.0823C293.923 81.2983 293.766 80.5143 293.766 79.6519C293.766 79.3383 293.688 77.4567 294.08 77.2999C292.12 78.0839 289.846 77.7703 288.122 76.5943C287.181 75.8887 286.397 75.0263 285.691 74.0855C285.142 73.5367 284.75 72.8311 284.75 71.9688C283.339 73.3799 281.928 74.8695 280.595 76.4375C279.89 77.2215 279.262 78.1623 278.714 79.1031C277.93 80.8279 278.008 82.8663 278.086 84.7479C278.165 86.9431 278.478 89.0599 278.949 91.1768C279.968 95.2535 284.202 94.0775 284.202 94.0775Z" fill="white"/>
<path d="M288.666 106.701C287.882 106.701 287.019 106.545 286.314 106.074C285.138 105.29 284.275 104.114 283.883 102.781V102.703L283.648 94.7846C282.55 94.9414 281.374 94.7846 280.434 94.2358C279.414 93.6086 278.709 92.5894 278.474 91.335C278.003 89.1398 277.69 86.9446 277.533 84.7494C277.454 82.9462 277.298 80.6726 278.16 78.8694C278.709 77.8502 279.336 76.9094 280.12 76.047C281.453 74.479 282.864 72.9894 284.275 71.5782C284.432 71.4214 284.746 71.343 284.902 71.4214C285.138 71.4998 285.294 71.735 285.216 72.0486C285.294 72.6758 285.53 73.2246 286 73.695C286.627 74.5574 287.49 75.4198 288.352 76.047C289.92 77.1446 291.958 77.3798 293.762 76.6742C294.075 76.5958 294.389 76.7526 294.546 77.0662C294.624 77.3014 294.546 77.5366 294.389 77.6934C294.31 78.3206 294.232 78.9478 294.31 79.575C294.31 80.359 294.467 81.0646 294.781 81.7702C295.094 82.6326 295.722 83.4166 296.584 83.887C296.741 83.9654 296.898 84.2006 296.898 84.3574L298.074 99.2534C298.074 99.3318 298.074 99.4102 298.074 99.4886C296.898 102.703 294.232 105.212 290.939 106.309C290.234 106.545 289.45 106.701 288.666 106.701ZM285.059 102.625C285.373 103.644 286 104.585 286.941 105.133C288.117 105.682 289.45 105.761 290.547 105.212C293.448 104.271 295.722 102.076 296.819 99.2534L295.643 84.7494C294.702 84.1222 293.918 83.2598 293.526 82.1622C293.213 81.2998 292.978 80.4374 292.978 79.575C292.978 79.1046 292.978 78.5558 292.978 78.0854C291.096 78.4774 289.136 78.0854 287.568 76.9878C286.549 76.2822 285.686 75.3414 284.981 74.4006C284.667 74.0086 284.432 73.6166 284.197 73.1462C283.021 74.3222 281.923 75.4982 280.904 76.7526C280.198 77.5366 279.571 78.399 279.101 79.3398C278.317 80.9078 278.474 82.8678 278.552 84.671C278.63 86.7878 278.944 88.983 279.414 91.0214C279.571 91.8838 280.12 92.6678 280.826 93.1382C281.766 93.6086 282.864 93.687 283.883 93.4518C284.04 93.3734 284.275 93.4518 284.354 93.5302C284.51 93.6086 284.589 93.7654 284.589 94.0006L285.059 102.625Z" fill="#231F20"/>
<path d="M293.141 83.8071C293.219 83.1799 293.533 82.5526 294.003 82.0822C294.473 81.6902 295.022 81.3767 295.571 81.1415C295.885 80.9847 296.198 80.9062 296.512 80.9062C296.747 80.9062 296.982 80.9847 297.217 81.0631C297.766 81.2983 298.158 81.6903 298.393 82.1607C298.55 82.5527 298.629 83.0231 298.55 83.4935C298.55 83.9639 298.472 84.4343 298.315 84.9047C297.688 86.7863 295.571 87.8054 293.689 87.1782H293.611" fill="white"/>
<path d="M294.859 87.9644C294.389 87.9644 293.919 87.8861 293.448 87.7293C293.135 87.6509 292.978 87.3372 293.056 87.0236C293.135 86.71 293.448 86.5532 293.762 86.6316H293.84C295.487 87.1804 297.211 86.318 297.76 84.75C297.917 84.358 297.995 83.8876 297.995 83.4956C298.074 83.182 297.995 82.79 297.917 82.4764C297.682 82.0844 297.368 81.8492 296.976 81.6924C296.819 81.614 296.663 81.614 296.506 81.5356C296.271 81.5356 296.035 81.614 295.8 81.6924C295.33 81.8492 294.859 82.1628 294.389 82.4764C293.997 82.8684 293.762 83.3389 293.683 83.8093C293.605 84.1229 293.291 84.358 292.978 84.2796C292.664 84.2012 292.429 83.966 292.507 83.6524C292.664 82.8684 292.978 82.1628 293.605 81.614C294.075 81.1436 294.703 80.8301 295.33 80.5949C295.722 80.4381 296.114 80.2812 296.506 80.2812C296.819 80.2812 297.133 80.3596 297.368 80.5164C297.995 80.7516 298.544 81.3004 298.858 81.9276C299.015 82.398 299.093 82.9468 299.093 83.4956C299.093 84.0444 298.936 84.5932 298.779 85.0636C298.309 86.7884 296.663 87.9644 294.859 87.9644Z" fill="#231F20"/>
<path d="M284.36 98.3144C284.36 98.3144 287.888 98.3144 290.005 95.884C291.259 94.6296 291.887 92.9048 291.73 91.1016C291.73 91.1016 287.653 94.4728 284.125 94.0024L284.36 98.3144Z" fill="#231F20"/>
<path d="M284.355 98.8619C284.041 98.8619 283.806 98.6267 283.727 98.3131L283.492 94.0795C283.492 93.9227 283.571 93.7659 283.649 93.6091C283.806 93.4523 283.963 93.4523 284.119 93.4523C287.334 93.8443 291.254 90.7083 291.254 90.6299C291.411 90.4731 291.646 90.4731 291.803 90.5515C291.959 90.6299 292.116 90.7867 292.195 91.0219C292.351 92.9819 291.724 94.8635 290.313 96.2747C288.196 98.8619 284.59 98.8619 284.355 98.8619ZM284.747 94.7067L284.903 97.6859C286.707 97.5291 288.353 96.7451 289.607 95.4907C290.47 94.6283 291.019 93.4523 291.175 92.2763C289.843 93.2171 287.255 94.7067 284.747 94.7067Z" fill="#231F20"/>
<path d="M284.589 81.3789C284.589 81.3789 282.002 85.6125 282.629 86.3181C283.256 87.0237 285.138 86.4749 285.138 86.4749" fill="white"/>
<path d="M283.887 87.2601C283.338 87.2601 282.79 87.1033 282.319 86.7113C281.614 86.0057 282.241 84.1241 284.201 81.0665C284.358 80.8313 284.75 80.7529 284.985 80.9097C285.22 81.0665 285.298 81.4585 285.142 81.6937C284.044 83.4969 283.182 85.4569 283.182 85.9273C283.809 86.0841 284.436 86.0841 285.063 85.8489C285.377 85.7705 285.69 85.9273 285.847 86.2409C285.926 86.5545 285.769 86.8681 285.455 87.0249C284.906 87.1817 284.358 87.2601 283.887 87.2601Z" fill="#231F20"/>
<path d="M289.936 81.5094C290.026 80.9976 289.788 80.528 289.404 80.4605C289.02 80.393 288.636 80.7531 288.546 81.2648C288.456 81.7766 288.694 82.2462 289.078 82.3137C289.462 82.3812 289.846 82.0211 289.936 81.5094Z" fill="#231F20"/>
<path d="M281.467 82.7437C281.557 82.232 281.319 81.7624 280.935 81.6949C280.551 81.6273 280.167 81.9874 280.077 82.4992C279.987 83.0109 280.225 83.4805 280.609 83.5481C280.993 83.6156 281.377 83.2555 281.467 82.7437Z" fill="#231F20"/>
<path d="M281.93 88.6685C281.93 88.6685 284.595 92.2749 288.829 88.5117L281.93 88.6685Z" fill="white"/>
<path d="M285.061 90.7878C284.904 90.7878 284.747 90.7878 284.591 90.7878C283.336 90.631 282.239 90.0038 281.455 88.9846C281.298 88.7494 281.298 88.3574 281.611 88.2006C281.925 88.0438 282.239 88.0438 282.395 88.3574C283.023 89.063 283.807 89.5334 284.747 89.6902C285.923 89.847 287.099 89.2982 288.432 88.2006C288.667 87.9654 289.059 88.0438 289.295 88.279C289.53 88.5142 289.451 88.9062 289.216 89.1414C288.119 90.0822 286.629 90.7094 285.061 90.7878Z" fill="#231F20"/>
<path d="M308.585 142.296C308.585 142.296 318.149 152.958 320.815 164.718C326.381 189.414 324.892 237.552 324.892 237.552L253.312 225.478L271.266 140.336L308.585 142.296Z" fill="#231F20"/>
<path d="M324.183 261.385L323.399 256.289L308.425 260.444L305.524 256.603C305.524 256.603 294.548 264.521 296.037 266.246C297.527 267.971 313.834 264.835 324.183 261.385Z" fill="#231F20"/>
<path d="M315.719 165.346C315.876 165.895 317.6 169.737 317.365 172.481C317.13 175.225 315.954 180.791 316.738 180.948C317.522 181.105 319.168 181.183 319.717 174.99C319.717 174.99 320.893 187.298 322.54 184.711C324.186 182.124 321.991 175.538 321.991 175.538C321.991 175.538 323.951 184.476 325.127 183.849C326.303 183.222 324.578 175.382 324.578 175.382C324.578 175.382 325.832 183.927 327.322 183.065C328.812 182.202 327.165 174.598 327.165 174.598C327.165 174.598 328.341 184.476 329.909 182.673C331.477 180.87 326.773 163.465 326.773 163.465" fill="white"/>
<path d="M322.07 185.573C321.992 185.573 321.914 185.573 321.835 185.573C320.738 185.338 320.032 182.359 319.562 178.987C319.326 179.771 318.934 180.477 318.307 181.026C317.837 181.418 317.21 181.575 316.582 181.418C315.563 181.261 315.72 179.771 316.347 175.303C316.504 174.205 316.661 173.107 316.739 172.323C316.974 170.128 315.72 166.914 315.25 165.895C315.171 165.738 315.093 165.581 315.093 165.503C314.936 165.189 315.093 164.875 315.406 164.719C315.72 164.562 316.034 164.719 316.19 165.032V165.111L316.347 165.424C316.818 166.679 318.15 169.893 317.915 172.402C317.837 173.264 317.68 174.283 317.523 175.381C317.21 176.949 317.053 178.595 317.053 180.163C317.288 180.163 317.445 180.085 317.602 180.007C317.994 179.693 318.778 178.517 319.091 174.754C319.091 174.44 319.405 174.205 319.718 174.205C320.032 174.205 320.267 174.44 320.346 174.754C320.738 178.674 321.522 183.221 322.149 184.162C322.854 183.064 322.776 181.026 322.462 179.144C322.07 177.89 321.757 176.479 321.6 175.459C321.522 175.146 321.678 174.832 321.992 174.754C322.306 174.675 322.619 174.832 322.698 175.146C323.09 176.322 323.403 177.576 323.56 178.752C323.874 180.163 324.422 181.575 325.05 182.829C325.128 181.418 325.05 179.928 324.736 178.517C324.422 177.263 324.266 176.087 324.109 175.224C324.03 174.911 324.266 174.597 324.579 174.519C324.893 174.44 325.206 174.675 325.285 174.989C325.52 176.087 325.755 177.263 325.912 178.36C326.147 179.693 326.539 181.026 327.166 182.202C327.48 181.81 327.48 180.32 327.323 178.439C327.01 177.027 326.853 175.616 326.696 174.44C326.618 174.127 326.853 173.813 327.166 173.813C327.48 173.735 327.794 173.97 327.794 174.283C328.029 175.224 328.264 176.792 328.421 178.36C328.578 179.615 328.97 180.869 329.518 181.967C330.224 180.399 328.342 171.304 326.226 163.386C326.147 163.072 326.304 162.759 326.618 162.68C326.931 162.602 327.245 162.759 327.323 163.072C328.421 167.227 331.949 180.869 330.302 182.829C330.067 183.143 329.597 183.299 329.205 183.221C328.734 182.986 328.421 182.672 328.264 182.202C328.186 182.672 327.95 183.064 327.558 183.378C327.245 183.535 326.931 183.613 326.618 183.456C326.382 183.299 326.147 183.064 325.99 182.829C325.99 183.378 325.755 183.848 325.363 184.24C325.128 184.397 324.814 184.397 324.579 184.24C324.109 183.927 323.795 183.535 323.638 182.986C323.56 183.691 323.325 184.319 323.011 184.867C322.854 185.338 322.541 185.573 322.07 185.573Z" fill="#231F20"/>
<path d="M312.425 104.742L332.652 162.915L313.209 168.325C313.209 168.325 304.115 125.832 303.88 122.147C303.644 118.462 312.425 104.742 312.425 104.742Z" fill="#68E1FD"/>
<path d="M313.365 104.114C313.052 104.114 312.738 103.879 312.738 103.565C312.738 103.409 312.817 103.252 312.895 103.173C314.777 100.978 314.385 97.607 312.973 95.4118C311.562 93.2167 309.367 91.6486 306.074 90.3158C304.114 89.5318 302.389 88.9831 300.508 89.2967C300.273 89.2967 299.959 89.2183 299.881 88.983C299.802 88.7479 299.802 88.4342 300.037 88.2774C303.722 85.063 305.369 80.2022 304.114 76.1254C303.095 72.6758 299.802 69.6966 295.804 68.6774C292.354 67.7366 288.356 68.0502 284.122 69.5398C283.965 69.6182 283.73 69.5398 283.573 69.4614C280.281 66.7958 275.498 67.1879 272.833 70.4807C270.167 73.7735 270.559 78.5558 273.852 81.2214C274.636 81.8486 275.498 82.3191 276.439 82.6327C276.753 82.7895 276.909 83.1031 276.753 83.4167C276.674 83.6519 276.361 83.8087 276.125 83.8087C271.5 82.3975 268.834 77.4583 270.245 72.7543C271.657 68.1287 276.596 65.4631 281.3 66.8743C282.319 67.1879 283.26 67.6582 284.122 68.2854C287.964 66.7958 292.197 66.5606 296.196 67.5014C300.665 68.6774 304.114 71.8918 305.29 75.8118C306.466 79.7318 305.212 84.5143 301.997 88.0423C303.565 88.1207 305.133 88.5911 306.623 89.2183C310.151 90.6295 312.581 92.5111 314.071 94.7847C315.717 97.3719 316.188 101.37 313.914 103.957C313.679 104.114 313.522 104.114 313.365 104.114Z" fill="#231F20"/>
<path d="M296.507 80.9087C296.507 80.9087 296.037 69.4623 289.922 67.5807C291.96 67.3455 293.999 67.5023 295.959 67.9727C296.037 68.0511 299.957 75.5775 296.507 80.9087Z" fill="#231F20"/>
<path d="M296.509 81.5361C296.43 81.5361 296.43 81.5361 296.352 81.5361C296.117 81.4577 295.96 81.2225 295.96 80.9873C295.96 80.9089 295.49 69.9329 289.845 68.2081C289.61 68.1297 289.374 67.8945 289.453 67.5809C289.453 67.2673 289.688 67.1105 289.923 67.0321C292.04 66.7969 294.157 66.8753 296.195 67.5025C296.352 67.5809 296.43 67.6593 296.509 67.8161C296.666 68.1297 300.586 75.6561 297.058 81.3009C296.901 81.4577 296.744 81.5361 296.509 81.5361ZM292.197 68.1297C295.411 70.5601 296.509 75.7345 296.901 78.7137C298.234 74.4801 296.038 69.6193 295.568 68.5217C294.47 68.2081 293.294 68.1297 292.197 68.1297Z" fill="#231F20"/>
<path d="M271.736 138.923H271.579C271.266 138.845 271.031 138.531 271.109 138.218L277.616 109.915C277.695 109.602 278.008 109.366 278.322 109.445C278.635 109.523 278.871 109.837 278.792 110.15L272.285 138.453C272.207 138.688 271.971 138.923 271.736 138.923Z" fill="#231F20"/>
<path d="M307.409 141.198C307.096 141.198 306.86 140.963 306.86 140.727L301.137 112.347C301.059 112.033 301.216 111.719 301.529 111.641C301.843 111.563 302.156 111.719 302.235 112.033C302.235 112.033 302.235 112.033 302.235 112.111L307.958 140.492C308.036 140.806 307.801 141.119 307.488 141.198H307.409Z" fill="#231F20"/>
<path d="M266.641 132.104C266.484 132.104 266.327 132.026 266.249 131.947L247.589 112.269C247.433 112.034 247.511 111.642 247.746 111.485C247.981 111.328 248.217 111.328 248.452 111.485L267.111 131.163C267.346 131.398 267.346 131.79 267.033 132.026C266.876 132.026 266.719 132.104 266.641 132.104Z" fill="#231F20"/>
<path d="M244.216 109.679H233.554L222.734 86.4727H233.475L244.216 109.679Z" fill="#231F20"/>
<path d="M244.372 111.092C244.372 111.092 244.764 104.82 244.45 104.271C244.136 103.723 240.53 99.5675 240.138 100.43C239.746 101.292 240.373 103.723 240.922 104.663C241.471 105.604 243.039 108.035 243.039 108.035" fill="white"/>
<path d="M244.374 111.64C243.982 111.64 243.747 111.326 243.747 111.013C243.904 108.817 243.982 106.701 243.825 104.505C242.884 103.251 241.787 102.153 240.611 101.056C240.611 102.153 240.924 103.329 241.395 104.349C241.865 105.211 243.512 107.641 243.512 107.72C243.668 107.955 243.59 108.347 243.355 108.504C243.12 108.661 242.728 108.582 242.571 108.347C242.492 108.269 240.924 105.838 240.376 104.976C239.827 104.113 239.121 101.448 239.592 100.272C239.67 99.9581 239.984 99.8013 240.219 99.7229C241.552 99.5661 244.844 103.878 244.923 103.957C245.001 104.035 245.315 104.662 244.923 111.091C244.923 111.405 244.688 111.64 244.374 111.64Z" fill="#231F20"/>
<path d="M229.164 101.763C229.243 101.058 229.792 100.43 230.576 100.274C231.281 100.195 232.065 100.509 232.536 101.136C233.79 102.469 235.123 106.467 232.771 107.486C230.105 108.427 228.851 103.488 229.164 101.763Z" fill="white"/>
<path d="M231.986 108.114C231.437 108.114 230.889 107.879 230.497 107.565C229.007 106.311 228.301 103.096 228.537 101.607C228.693 100.587 229.399 99.8034 230.418 99.6466C231.359 99.5682 232.3 99.9602 232.849 100.666C234.103 102.155 234.73 104.037 234.495 105.997C234.338 106.859 233.711 107.643 232.849 107.957C232.613 108.035 232.3 108.114 231.986 108.114ZM229.713 101.842C229.477 103.018 230.105 105.683 231.281 106.624C231.594 106.938 232.065 107.016 232.457 106.781C232.927 106.624 233.319 106.154 233.397 105.683C233.554 104.115 233.084 102.626 232.065 101.45C231.829 101.215 231.281 100.666 230.653 100.744C230.183 100.979 229.869 101.371 229.713 101.842Z" fill="#231F20"/>
<path d="M269.536 105.132C269.3 105.132 269.144 105.053 269.065 104.818C266.086 99.5655 267.889 92.8231 273.22 89.8439C274.004 89.3735 274.788 89.0599 275.651 88.8247C275.964 88.7463 276.278 88.9031 276.356 89.2167C276.435 89.5303 276.278 89.8439 275.964 89.9223C270.79 91.3335 267.732 96.7431 269.144 101.917C269.379 102.701 269.692 103.485 270.084 104.191C270.241 104.505 270.163 104.818 269.849 104.975C269.692 105.053 269.614 105.132 269.536 105.132Z" fill="#231F20"/>
<path d="M272.283 159.387C271.97 159.387 271.734 159.074 271.734 158.76C271.734 158.682 271.734 158.603 271.734 158.603L277.928 143.707C278.085 143.394 278.398 143.237 278.712 143.394C278.947 143.472 279.026 143.707 279.104 143.864L279.81 152.88C279.81 153.194 279.574 153.429 279.182 153.429C278.869 153.429 278.634 153.194 278.634 152.958L278.163 146.373L272.832 158.995C272.754 159.23 272.518 159.387 272.283 159.387Z" fill="white"/>
<path d="M97.6819 216.773L97.0547 266.479C97.0547 266.479 121.359 270.556 121.907 269.693C122.456 268.831 108.658 260.677 108.658 260.677L110.618 219.753" fill="white"/>
<path d="M121.047 270.323C118.852 270.323 112.972 269.696 96.9782 267.03C96.6646 266.952 96.5078 266.716 96.5078 266.403L97.135 216.776C97.135 216.462 97.3702 216.227 97.7622 216.148C98.0758 216.148 98.311 216.384 98.311 216.776L97.6838 265.932C105.602 267.265 117.597 269.068 120.89 269.225C119.165 267.736 113.599 264.208 108.346 261.228C108.189 261.15 108.033 260.915 108.033 260.68L109.993 219.755C109.993 219.441 110.306 219.206 110.62 219.206C110.933 219.206 111.169 219.52 111.169 219.833L109.209 260.444C114.226 263.345 122.223 268.284 122.458 269.539C122.537 269.774 122.458 269.931 122.38 270.088C122.38 270.166 122.223 270.323 121.047 270.323Z" fill="#231F20"/>
<path d="M113.757 261.934L109.132 265.775L96.3524 263.423L96.1172 268.519C96.1172 268.519 124.341 273.615 125.752 271.263C127.164 268.911 113.757 261.934 113.757 261.934Z" fill="#231F20"/>
<path d="M121.75 220.303L122.456 267.186C122.456 267.186 146.681 271.263 147.308 270.401C147.936 269.538 134.059 261.385 134.059 261.385L137.273 218.5" fill="white"/>
<path d="M146.37 271.026C144.175 271.026 138.295 270.399 122.301 267.734C121.987 267.655 121.831 267.42 121.831 267.185L121.125 220.301C121.125 219.988 121.36 219.753 121.674 219.674C121.987 219.674 122.223 219.909 122.301 220.223L123.007 266.558C130.925 267.89 142.92 269.772 146.213 269.85C144.488 268.361 138.922 264.833 133.669 261.854C133.512 261.775 133.355 261.54 133.355 261.305L136.57 218.42C136.57 218.106 136.883 217.871 137.197 217.871C137.511 217.871 137.746 218.185 137.746 218.498L134.61 260.991C139.627 263.892 147.624 268.831 147.859 270.086C147.938 270.321 147.859 270.478 147.781 270.634C147.703 270.87 147.624 271.026 146.37 271.026Z" fill="#231F20"/>
<path d="M139.078 262.641L134.374 266.482L121.595 264.13L121.359 269.226C121.359 269.226 149.583 274.322 150.995 271.97C152.406 269.618 139.078 262.641 139.078 262.641Z" fill="#231F20"/>
<path d="M90.3937 147.157C86.0817 176.322 92.8241 244.059 92.8241 244.059L113.522 243.589L119.48 178.909L119.872 243.51L137.982 244.294C137.982 244.294 145.509 199.136 144.49 172.48C143.47 145.824 138.061 142.531 138.061 142.531L90.3937 147.157Z" fill="#231F20"/>
<path d="M112.186 96.1953C112.186 96.1953 98.4664 96.1169 92.2728 104.506C86.0792 112.895 85.7656 117.755 85.7656 117.755L98.1528 121.675L96.5064 146.763L139.156 143.627L138.372 121.205L146.212 118.539C146.212 118.539 141.822 98.8609 124.025 97.5281C106.228 96.1953 112.186 96.1953 112.186 96.1953Z" fill="#68E1FD"/>
<path d="M124.891 90.3949L124.421 98.9405C124.421 98.9405 123.323 103.723 118.149 102.076C115.013 101.057 112.582 98.7053 111.406 95.6477C111.406 95.6477 112.974 74.7149 113.053 73.1469C113.915 73.6173 116.345 74.7149 117.286 74.4013C118.227 74.0877 118.541 71.1869 118.697 70.2461C119.403 71.5005 119.873 72.9117 120.109 74.4013L123.637 74.7149C124.185 73.4605 124.421 72.1277 124.421 70.7949C125.126 71.9709 125.597 73.3037 125.675 74.7149C126.694 74.7933 130.457 74.4013 131.006 75.1853C131.869 76.4397 132.025 84.7501 129.595 87.5725C127.165 90.3949 124.891 90.3949 124.891 90.3949Z" fill="white"/>
<path d="M120.181 103.016C119.397 103.016 118.692 102.86 117.908 102.624C114.615 101.527 112.028 99.018 110.773 95.8036C110.773 95.7252 110.773 95.6468 110.773 95.5684C110.852 94.706 112.341 74.5572 112.42 73.0676C112.42 72.754 112.733 72.5188 113.047 72.5188C113.125 72.5188 113.204 72.5188 113.282 72.5972C114.615 73.3028 116.497 74.0084 117.045 73.7732C117.202 73.6948 117.594 73.146 117.986 70.4804L118.065 70.0884C118.065 69.8532 118.3 69.6181 118.535 69.6181C118.77 69.5397 119.005 69.6964 119.162 69.9316C119.868 71.186 120.338 72.4404 120.573 73.8516L123.239 74.0868C123.631 73.0676 123.866 71.8917 123.866 70.7941C123.866 70.5589 124.023 70.3236 124.337 70.2452C124.572 70.1668 124.885 70.2452 125.042 70.4804C125.669 71.578 126.061 72.8324 126.218 74.0868H126.845C129.197 74.0084 131.001 74.0084 131.549 74.8708C132.569 76.3604 132.647 84.9844 130.06 87.9636C128.884 89.4532 127.237 90.4724 125.356 90.9428C125.277 91.7268 125.199 93.7652 124.885 99.018V99.0964C124.572 100.508 123.709 101.684 122.455 102.389C121.828 102.86 120.965 103.016 120.181 103.016ZM112.028 95.5684C113.125 98.3908 115.477 100.586 118.378 101.527C119.554 101.997 120.887 101.997 121.985 101.448C122.925 100.9 123.553 99.9588 123.866 98.9396C123.945 98.234 124.337 90.5509 124.337 90.3941C124.337 90.0805 124.572 89.8452 124.885 89.8452C124.964 89.8452 127.081 89.6884 129.276 87.1796C131.471 84.6708 131.314 76.5173 130.687 75.4981C130.295 75.1061 127.865 75.1844 127.002 75.2628C126.453 75.2628 126.061 75.2628 125.748 75.2628C125.434 75.2628 125.199 75.0277 125.199 74.7141C125.121 74.1653 125.042 73.538 124.885 72.9892C124.729 73.6164 124.572 74.2436 124.258 74.8708C124.18 75.106 123.945 75.2628 123.631 75.1844L120.103 74.8708C119.789 74.8708 119.633 74.6357 119.554 74.3221C119.476 73.5381 119.241 72.8324 119.005 72.0484C118.692 73.3812 118.3 74.5572 117.516 74.7924C116.497 75.106 114.693 74.4005 113.596 73.9301C113.282 78.0853 112.106 94.0004 112.028 95.5684Z" fill="#231F20"/>
<path d="M113.909 79.2599C113.753 78.6327 113.439 78.0055 112.969 77.6135C112.498 77.2215 111.949 76.9079 111.401 76.6727C111.087 76.5159 110.773 76.4375 110.46 76.4375C110.225 76.4375 109.989 76.5159 109.754 76.5943C109.205 76.8295 108.813 77.2215 108.578 77.6919C108.421 78.0839 108.343 78.5543 108.421 79.0247C108.421 79.4951 108.5 79.9655 108.657 80.4359C108.97 81.3767 109.676 82.0823 110.538 82.5527C111.401 82.9447 112.42 83.0231 113.361 82.7095" fill="white"/>
<path d="M112.185 83.4954C111.558 83.4954 110.931 83.3386 110.304 83.1034C109.285 82.633 108.501 81.6922 108.109 80.673C107.952 80.2026 107.873 79.6538 107.795 79.105C107.717 78.5562 107.795 78.0074 108.03 77.537C108.344 76.9098 108.893 76.4394 109.52 76.1258C109.833 75.969 110.069 75.8906 110.382 75.8906C110.774 75.8906 111.245 75.969 111.637 76.2042C112.264 76.4394 112.813 76.8314 113.361 77.2234C113.91 77.7722 114.302 78.4778 114.459 79.2618C114.537 79.5754 114.302 79.889 113.989 79.9674C113.675 80.0458 113.361 79.8106 113.283 79.497C113.205 78.9482 112.969 78.4778 112.577 78.1642C112.185 77.8506 111.715 77.537 111.166 77.3802C110.931 77.3018 110.696 77.2234 110.461 77.145C110.304 77.145 110.147 77.2234 109.99 77.3018C109.598 77.4586 109.285 77.6938 109.128 78.0858C109.049 78.3994 108.971 78.7914 109.049 79.105C109.049 79.5754 109.128 79.9674 109.285 80.3594C109.52 81.1434 110.147 81.7706 110.853 82.1626C111.558 82.4762 112.421 82.5546 113.205 82.3194C113.518 82.241 113.832 82.3978 113.989 82.7114C114.067 83.025 113.91 83.3386 113.597 83.4954C113.126 83.417 112.656 83.4954 112.185 83.4954Z" fill="#231F20"/>
<path d="M124.495 93.7645C124.495 93.7645 120.889 94.5485 118.772 92.1965C117.518 90.9421 116.89 89.2173 117.047 87.4141C117.047 87.4141 121.281 91.0205 124.809 90.5501L124.495 93.7645Z" fill="#231F20"/>
<path d="M123.084 94.4718C121.281 94.5502 119.556 93.8446 118.302 92.5118C116.969 91.1006 116.263 89.219 116.42 87.259C116.498 86.9454 116.812 86.7102 117.126 86.7886C117.204 86.7886 117.282 86.867 117.361 86.9454C117.439 86.9454 121.438 90.395 124.652 90.003C124.966 89.9246 125.279 90.1598 125.279 90.5518C125.279 90.6302 125.279 90.6302 125.279 90.7086L124.966 93.923C124.966 94.1582 124.73 94.3934 124.495 94.4718C124.103 94.4718 123.633 94.4718 123.084 94.4718ZM117.674 88.5918C117.91 89.7678 118.458 90.8654 119.242 91.7278C120.732 93.3742 123.084 93.2958 124.025 93.2174L124.182 91.179C121.673 91.179 119.007 89.611 117.674 88.5918Z" fill="#231F20"/>
<path d="M124.182 77.6133C124.182 77.6133 126.769 81.8469 126.063 82.5525C125.358 83.2581 123.555 82.7093 123.555 82.7093" fill="white"/>
<path d="M124.964 83.4942C124.416 83.4942 123.867 83.4158 123.396 83.259C123.083 83.1806 122.926 82.867 123.004 82.5534C123.083 82.2398 123.396 82.083 123.71 82.1614C124.337 82.3966 124.964 82.3966 125.592 82.2398C125.592 81.691 124.729 79.731 123.632 78.0062C123.475 77.771 123.553 77.379 123.788 77.2222C124.024 77.0654 124.416 77.1438 124.572 77.379C126.454 80.4366 127.081 82.3966 126.376 83.0238C126.062 83.3374 125.513 83.5726 124.964 83.4942Z" fill="#231F20"/>
<path d="M119.724 78.6215C120.108 78.554 120.346 78.0844 120.256 77.5727C120.166 77.0609 119.782 76.7008 119.398 76.7683C119.014 76.8359 118.776 77.3055 118.866 77.8172C118.956 78.329 119.34 78.6891 119.724 78.6215Z" fill="#231F20"/>
<path d="M128.185 79.8754C128.569 79.8079 128.807 79.3383 128.717 78.8266C128.627 78.3148 128.243 77.9547 127.859 78.0222C127.475 78.0898 127.237 78.5594 127.327 79.0711C127.417 79.5829 127.801 79.943 128.185 79.8754Z" fill="#231F20"/>
<path d="M126.845 84.9068C126.845 84.9068 124.179 88.5132 119.945 84.75L126.845 84.9068Z" fill="white"/>
<path d="M123.71 87.1033C122.142 87.0249 120.652 86.3977 119.633 85.3001C119.398 85.0649 119.398 84.7513 119.555 84.4377C119.79 84.2025 120.103 84.2025 120.417 84.3593C121.671 85.4569 122.926 86.0057 124.102 85.8489C125.043 85.6921 125.827 85.3001 126.454 84.5161C126.611 84.2809 127.003 84.2025 127.316 84.3593C127.551 84.5161 127.63 84.9081 127.395 85.2217C126.532 86.3977 125.199 87.1033 123.71 87.1033Z" fill="#231F20"/>
<path d="M108.425 88.9031L103.721 88.8247C103.564 88.8247 103.407 88.7463 103.329 88.6679C103.25 88.5111 103.172 88.3543 103.172 88.1975L104.113 73.8503C104.348 70.6359 104.661 67.1863 106.543 64.0503C107.562 62.1687 109.13 60.6791 111.09 59.8951C113.364 59.1111 115.873 59.8167 117.049 61.6199C117.284 61.8551 117.205 62.2471 116.97 62.4823C116.735 62.7175 116.343 62.6391 116.108 62.4039C116.108 62.4039 116.108 62.3255 116.029 62.3255C115.01 60.8359 112.893 60.6007 111.404 61.0711C109.679 61.7767 108.346 63.1095 107.484 64.7559C105.759 67.7351 105.445 70.9495 105.21 74.0071L104.191 87.7271H108.346C108.66 87.7271 108.973 87.9623 108.973 88.3543C108.973 88.7463 108.738 88.9031 108.425 88.9031Z" fill="#231F20"/>
<path d="M132.724 93.4518C131.313 93.4518 129.901 93.3734 128.49 93.2166C128.177 93.2166 127.941 92.9814 127.941 92.5894C127.941 92.2758 128.177 92.0406 128.569 92.0406C128.647 92.0406 128.647 92.0406 128.725 92.0406C130.921 92.2758 133.116 92.3542 135.233 92.1974C136.173 88.0422 136.801 83.887 137.036 79.6534C137.428 76.2822 137.193 72.8326 136.487 69.5398C135.703 66.247 133.743 63.4246 130.999 61.543C128.333 59.8966 121.983 60.2102 119.161 62.0918C118.925 62.327 118.533 62.2486 118.298 62.0134C118.063 61.7782 118.141 61.3862 118.377 61.151C118.377 61.151 118.455 61.151 118.455 61.0726C121.356 59.1126 128.333 58.407 131.548 60.4454C134.527 62.4838 136.722 65.6198 137.506 69.1478C138.29 72.5974 138.525 76.1254 138.133 79.6534C137.82 84.0438 137.193 88.5126 136.173 92.8246C136.095 93.0598 135.938 93.295 135.625 93.295C134.684 93.3734 133.743 93.4518 132.724 93.4518Z" fill="#231F20"/>
<path d="M159.776 135.552H121.203L126.613 108.504H165.186L159.776 135.552Z" fill="#231F20"/>
<path d="M159.617 135.316H101.68V138.139H159.617V135.316Z" fill="#231F20"/>
<path d="M156.565 135.317H123.088C122.775 135.317 122.461 135.082 122.461 134.69C122.461 134.298 122.696 134.062 123.088 134.062H156.565C156.879 134.062 157.192 134.298 157.192 134.69C157.192 135.082 156.879 135.317 156.565 135.317Z" fill="white"/>
<path d="M85.842 117.676C85.842 117.676 79.8052 148.644 84.666 152.799C89.5268 156.954 133.274 146.997 133.274 146.997L134.528 138.373L98.8564 137.668L99.8756 121.988" fill="white"/>
<path d="M90.3917 154.368C87.4125 154.368 85.2173 154.055 84.2765 153.271C79.3373 149.037 84.5901 120.813 85.2173 117.599C85.2957 117.285 85.5309 117.05 85.9229 117.128C86.2365 117.207 86.4717 117.442 86.3933 117.834C86.3933 117.834 86.3933 117.834 86.3933 117.912C84.7469 126.458 81.2189 149.194 85.0605 152.487C88.9021 155.78 120.419 149.429 132.728 146.685L133.825 139.08L98.8589 138.375C98.7021 138.375 98.5453 138.296 98.4669 138.218C98.3885 138.14 98.3101 137.983 98.3101 137.748L99.3293 122.068C99.3293 121.754 99.6429 121.519 99.9565 121.519C100.27 121.519 100.505 121.832 100.505 122.146L99.5645 137.199L134.609 137.904C134.766 137.904 134.923 137.983 135.08 138.14C135.158 138.296 135.236 138.453 135.236 138.61L133.982 147.234C133.982 147.469 133.747 147.704 133.512 147.704C129.748 148.41 103.014 154.368 90.3917 154.368Z" fill="#231F20"/>
<path d="M130.379 138.374C130.379 138.374 143.707 136.493 143.55 137.355C143.394 138.217 139.16 140.021 139.16 140.021C139.16 140.021 148.176 136.963 149.038 137.747C149.901 138.531 146.53 140.961 143.55 142.608C140.571 144.254 134.848 147.39 126.93 147.782" fill="white"/>
<path d="M126.846 148.41C126.532 148.41 126.219 148.175 126.219 147.783C126.219 147.391 126.454 147.155 126.846 147.155C134.529 146.842 140.096 143.784 143.153 142.138L143.232 142.059C146.368 140.335 148.249 138.688 148.563 138.139C147.7 137.983 143.153 139.237 139.312 140.57C138.998 140.648 138.684 140.491 138.606 140.178C138.528 139.864 138.684 139.629 138.92 139.472C140.096 138.923 141.272 138.375 142.369 137.669C140.252 137.747 135.156 138.296 130.531 138.923C130.217 139.002 129.904 138.767 129.904 138.453C129.825 138.139 130.06 137.826 130.374 137.747C143.232 135.944 143.78 136.571 144.016 136.807C144.172 136.963 144.172 137.199 144.172 137.434C144.094 137.591 144.016 137.826 143.859 137.904C146.524 137.199 148.876 136.728 149.425 137.277C149.66 137.512 149.817 137.826 149.739 138.139C149.582 139.786 145.113 142.295 143.78 143.079L143.702 143.157C140.566 144.882 134.843 148.018 126.846 148.41Z" fill="#231F20"/>
<path d="M120.26 180.007C120.182 180.007 120.182 180.007 120.103 180.007C119.79 179.929 119.633 179.615 119.633 179.301L123.788 162.916C123.866 162.602 124.18 162.445 124.494 162.524C124.807 162.602 124.964 162.916 124.886 163.229L120.73 179.615C120.809 179.85 120.574 180.007 120.26 180.007Z" fill="white"/>
<path d="M161.975 117.519C161.426 116.97 160.642 116.657 159.858 116.578C159.623 116.578 159.387 116.578 159.231 116.735C158.917 117.049 159.152 117.519 159.387 117.911C160.093 119.009 160.877 120.028 161.661 121.047C160.877 120.341 159.858 119.871 158.839 119.636C158.525 119.479 158.133 119.479 157.741 119.636C157.271 119.949 157.035 120.498 157.271 121.047C157.506 121.517 157.819 121.988 158.211 122.38L159.936 124.183C159.231 123.556 158.29 123.242 157.349 123.085C156.957 123.007 156.565 123.085 156.251 123.321C155.781 123.791 156.173 124.575 156.643 124.967C157.192 125.516 157.819 125.986 158.447 126.3L157.035 125.673C156.8 125.516 156.487 125.516 156.251 125.516C155.703 125.673 155.624 126.457 155.859 127.005C156.33 128.417 157.271 129.828 158.76 130.141C159.858 130.298 161.034 129.906 161.896 129.201C166.13 126.3 165.895 120.577 161.975 117.519Z" fill="white"/>
<path d="M159.381 130.928C159.146 130.928 158.989 130.928 158.754 130.849C156.951 130.536 155.853 128.811 155.383 127.321C155.226 126.772 155.226 126.145 155.461 125.675C155.54 125.44 155.775 125.283 156.01 125.204C155.461 124.577 155.383 123.715 155.853 123.009C156.245 122.617 156.872 122.46 157.421 122.539H157.5C157.108 122.147 156.872 121.755 156.716 121.284C156.402 120.5 156.794 119.56 157.5 119.168C157.97 118.932 158.519 118.932 158.989 119.089L159.538 119.246C159.303 118.932 159.068 118.619 158.832 118.227C158.127 117.129 158.519 116.58 158.754 116.345C159.068 116.11 159.46 115.953 159.852 115.953C160.714 116.032 161.576 116.424 162.282 117.051C164.32 118.619 165.575 121.049 165.496 123.636C165.418 126.067 164.242 128.34 162.282 129.83C161.576 130.457 160.479 130.849 159.381 130.928ZM156.559 126.224C156.48 126.459 156.48 126.772 156.559 127.008C156.872 128.184 157.735 129.516 158.989 129.752C159.93 129.83 160.949 129.516 161.655 128.889C163.38 127.713 164.399 125.753 164.399 123.636C164.399 121.441 163.38 119.324 161.576 117.992C161.106 117.6 160.479 117.286 159.852 117.208C159.773 117.208 159.695 117.208 159.695 117.208C159.695 117.208 159.773 117.364 159.93 117.678C160.636 118.776 161.341 119.795 162.125 120.814C162.282 121.049 162.282 121.363 162.047 121.598C161.812 121.833 161.498 121.833 161.263 121.598C160.557 120.971 159.616 120.5 158.676 120.265C158.44 120.187 158.205 120.187 157.97 120.265C157.735 120.422 157.656 120.736 157.813 120.971C157.97 121.363 158.284 121.755 158.597 122.068L160.322 123.793C160.557 124.028 160.557 124.342 160.4 124.656C160.165 124.891 159.852 124.891 159.616 124.734C158.989 124.185 158.205 123.872 157.343 123.793C157.029 123.715 156.794 123.793 156.716 123.872C156.637 123.95 156.794 124.42 157.108 124.734C157.578 125.204 158.127 125.675 158.754 125.988C159.068 126.145 159.146 126.459 158.989 126.772C158.832 127.008 158.519 127.164 158.205 127.086L156.794 126.459C156.872 126.302 156.716 126.224 156.559 126.224Z" fill="#231F20"/>
<path d="M99.7207 120.815C99.4071 120.815 99.1719 120.501 99.1719 120.187L99.8775 107.408C99.8775 107.095 100.191 106.859 100.505 106.859C100.818 106.859 101.053 107.173 101.053 107.487L100.348 120.266C100.348 120.579 100.113 120.815 99.7207 120.815Z" fill="#231F20"/>
<path d="M233.945 160.642C233.945 160.642 235.278 130.301 235.827 129.831C236.376 129.36 255.819 131.947 255.819 131.947L251.507 160.877L233.945 160.642Z" fill="#231F20"/>
<path d="M202.736 296.114C202.736 296.114 202.422 303.249 205.402 304.503C212.222 307.325 235.586 294.154 232.685 290.626C229.784 287.098 221.944 289.137 221.944 289.137" fill="white"/>
<path d="M207.679 305.446C206.817 305.446 205.955 305.289 205.171 305.054C201.878 303.642 202.113 296.9 202.113 296.116C202.113 295.802 202.427 295.567 202.74 295.567C203.054 295.567 203.289 295.881 203.289 296.194C203.211 298.076 203.446 303.093 205.563 304.034C210.972 306.308 228.063 297.605 231.67 292.666C231.983 292.196 232.454 291.412 232.14 291.02C229.475 287.806 222.105 289.687 222.027 289.766C221.713 289.844 221.399 289.687 221.321 289.374C221.243 289.06 221.399 288.746 221.713 288.668C222.027 288.59 229.867 286.551 233.081 290.314C233.551 290.863 233.787 291.804 232.689 293.372C229.239 297.998 215.049 305.446 207.679 305.446Z" fill="#231F20"/>
<path d="M168.477 289.767C168.477 289.767 164.714 301.605 170.672 301.997C180.08 302.625 200.621 289.924 195.29 286.631C189.959 283.338 175.298 286.788 175.298 286.788" fill="white"/>
<path d="M171.383 302.625C171.148 302.625 170.913 302.625 170.678 302.625C169.502 302.625 168.483 301.998 167.777 301.057C165.503 297.686 167.855 290.002 167.934 289.689C168.012 289.375 168.326 289.218 168.639 289.297C168.953 289.375 169.11 289.689 169.031 290.002C169.031 290.081 166.679 297.45 168.718 300.351C169.188 300.978 169.894 301.449 170.678 301.449C174.127 301.684 179.772 299.959 185.495 296.902C190.827 294.001 194.825 290.708 195.452 288.591C195.687 288.042 195.452 287.415 194.982 287.18C189.964 284.122 175.617 287.415 175.46 287.415C175.147 287.494 174.833 287.337 174.755 287.023C174.676 286.71 174.833 286.396 175.147 286.318C175.147 286.318 175.147 286.318 175.225 286.318C175.852 286.161 190.199 282.868 195.609 286.161C196.628 286.71 197.02 287.886 196.628 288.983C194.982 293.844 179.851 302.625 171.383 302.625Z" fill="#231F20"/>
<path d="M163.539 164.794C163.539 164.794 154.915 190.745 160.795 192.391C166.675 194.037 178.513 185.727 178.513 185.727L174.75 161.109L163.539 164.794Z" fill="white"/>
<path d="M162.442 193.097C161.815 193.097 161.266 193.018 160.639 192.861C159.855 192.626 159.228 192.156 158.914 191.372C155.935 185.805 162.677 165.343 162.991 164.481C163.069 164.324 163.148 164.167 163.383 164.089L174.594 160.325C174.751 160.247 174.908 160.325 175.065 160.404C175.221 160.482 175.3 160.639 175.378 160.796L179.141 185.413C179.141 185.649 179.063 185.884 178.906 185.962C178.436 186.433 168.793 193.097 162.442 193.097ZM164.01 165.265C163.226 167.773 157.346 186.119 159.933 190.901C160.09 191.293 160.482 191.607 160.953 191.764C166.049 193.097 176.005 186.589 177.887 185.335L174.281 161.815L164.01 165.265Z" fill="#231F20"/>
<path d="M169.5 139.941C169.5 139.941 161.817 159.071 160.641 167.303L171.068 167.46L169.5 139.941Z" fill="#68E1FD"/>
<path d="M216.144 190.355L221.945 289.06C221.945 289.06 222.416 291.726 213.4 294.862C204.384 297.998 202.737 296.038 202.737 296.038C202.737 296.038 197.798 250.723 195.289 224.145L186.195 289.687C186.195 289.687 179.923 297.919 168.477 289.687L172.005 189.492L216.144 190.355Z" fill="#231F20"/>
<path d="M201.642 136.024L201.328 125.204C201.328 125.204 205.718 127.713 206.973 122.539C208.227 117.364 204.778 107.016 204.778 107.016L198.114 107.643C198.349 107.643 198.349 114.699 198.27 115.404C198.035 118.697 196.859 121.833 194.978 124.499C193.488 126.537 190.979 125.91 188.47 125.91L188 134.769L201.642 136.024Z" fill="white"/>
<path d="M201.644 136.571L188.002 135.395C187.688 135.395 187.453 135.081 187.453 134.768L187.924 125.909C187.924 125.595 188.237 125.36 188.551 125.36C189.021 125.36 189.492 125.36 189.962 125.36C191.844 125.438 193.568 125.517 194.588 124.105C196.391 121.518 197.488 118.461 197.724 115.246C197.802 114.541 197.724 108.661 197.567 107.798C197.488 107.72 197.488 107.641 197.488 107.563C197.488 107.249 197.724 107.014 198.037 106.936L204.701 106.309C204.936 106.309 205.25 106.465 205.328 106.701C205.485 107.093 208.778 117.206 207.524 122.537C207.132 124.262 206.348 125.438 205.172 125.987C204.152 126.379 202.976 126.379 201.957 125.987L202.271 135.865C202.271 136.022 202.192 136.179 202.114 136.336C201.879 136.493 201.8 136.571 201.644 136.571ZM188.629 134.219L201.016 135.317L200.703 125.203C200.703 124.968 200.781 124.811 201.016 124.654C201.173 124.576 201.408 124.576 201.644 124.654C201.644 124.654 203.368 125.595 204.701 124.968C205.485 124.576 206.112 123.713 206.426 122.381C207.445 117.99 205.015 109.68 204.388 107.641L198.821 108.112C199.056 110.307 198.978 115.325 198.978 115.403C198.743 118.774 197.567 122.067 195.607 124.811C194.196 126.693 192.079 126.614 189.962 126.536H189.178L188.629 134.219Z" fill="#231F20"/>
<path d="M219.285 192.705C219.285 192.705 217.09 150.997 208.387 136.885C202.272 126.928 178.987 127.006 170.442 137.355C161.896 147.704 167.306 196.704 167.306 196.704C167.306 196.704 208.387 209.248 219.285 192.705Z" fill="#68E1FD"/>
<path d="M185.098 127.086C185.019 127.086 184.941 127.086 184.863 127.007C182.275 125.831 180.159 123.95 178.669 121.519C177.179 119.01 177.023 115.953 178.12 113.287C178.512 112.503 178.904 111.798 179.453 111.17C180.08 110.386 180.551 109.524 180.943 108.583C181.178 107.564 181.335 106.466 181.256 105.447C181.256 104.506 181.256 103.566 181.413 102.703C181.883 100.43 183.295 98.3912 185.255 97.1368C187.136 95.8824 189.331 95.1768 191.605 95.02C191.919 95.02 192.311 94.9416 192.703 94.9416C193.487 94.9416 194.349 94.7848 195.133 94.628C196.544 94.236 197.877 93.6088 199.131 92.7464C200.386 91.884 201.797 91.2568 203.287 90.7864C207.755 89.7672 212.224 92.5112 213.243 97.0584C214.263 101.527 211.519 105.996 206.971 107.015C206.736 107.094 206.501 107.094 206.266 107.172C205.952 107.172 205.639 107.015 205.639 106.623C205.639 106.31 205.795 105.996 206.187 105.996C210.107 105.447 212.773 101.762 212.224 97.9208C211.675 94.0008 207.991 91.3352 204.149 91.884C203.992 91.884 203.835 91.9624 203.679 91.9624C202.346 92.3544 201.013 92.9816 199.837 93.7656C198.504 94.628 197.015 95.3336 195.525 95.804C194.663 95.9608 193.8 96.1176 192.859 96.1176L191.84 96.196C189.802 96.3528 187.763 96.98 186.039 98.0776C184.314 99.1752 183.138 100.9 182.746 102.86C182.589 103.722 182.589 104.585 182.589 105.369C182.667 106.545 182.589 107.721 182.275 108.897C181.883 109.916 181.335 110.935 180.629 111.798C180.159 112.425 179.767 113.052 179.375 113.758C178.355 116.11 178.591 118.775 179.845 120.892C181.178 123.087 183.138 124.812 185.49 125.91C185.803 126.066 185.882 126.38 185.803 126.694C185.568 127.007 185.333 127.086 185.098 127.086Z" fill="#231F20"/>
<path d="M199.209 116.345C198.817 115.247 198.111 114.385 197.17 113.679C196.229 112.974 194.975 113.052 194.034 113.758C193.485 114.385 193.25 115.247 193.407 116.11C193.642 116.894 194.034 117.678 194.583 118.305C195.524 119.638 196.935 120.578 198.581 120.892" fill="white"/>
<path d="M198.582 121.52C196.778 121.207 195.132 120.188 194.113 118.698C193.486 117.992 193.094 117.13 192.858 116.268C192.623 115.248 192.937 114.151 193.642 113.367C194.74 112.426 196.308 112.348 197.484 113.21C198.503 113.916 199.287 114.935 199.758 116.111C199.914 116.424 199.758 116.738 199.444 116.895C199.13 117.052 198.817 116.895 198.66 116.581C198.268 115.64 197.641 114.778 196.857 114.151C196.151 113.602 195.132 113.602 194.426 114.151C193.956 114.621 193.799 115.327 193.956 115.954C194.113 116.66 194.505 117.365 195.054 117.914C195.838 118.855 197.092 120.109 198.66 120.266C198.974 120.344 199.209 120.58 199.13 120.972C199.13 121.285 198.895 121.442 198.582 121.52Z" fill="#231F20"/>
<path d="M210.5 158.211C210.5 158.211 210.813 166.756 212.852 166.599C214.89 166.443 231.197 154.055 231.197 154.055C231.197 154.055 232.373 145.51 233.706 145.196C235.039 144.883 234.725 151.547 234.725 151.703C234.725 151.155 238.175 147.627 238.959 146.529C240.449 144.412 241.938 142.139 243.977 140.492C244.525 140.884 244.447 141.747 244.29 142.374C243.741 144.412 242.879 146.451 241.86 148.332C242.173 147.548 242.644 146.843 243.193 146.215C243.506 145.823 243.977 145.588 244.525 145.588C244.839 145.745 245.153 145.98 245.231 146.294C246.956 149.822 243.663 155.075 241.625 157.819C237.234 163.699 219.751 183.063 209.167 185.415C198.583 187.767 194.977 165.267 194.977 165.267" fill="white"/>
<path d="M207.522 186.198C206.033 186.198 204.543 185.728 203.367 184.865C196.782 180.318 194.43 165.971 194.351 165.344C194.273 165.03 194.508 164.716 194.822 164.638C195.135 164.56 195.449 164.795 195.527 165.109C195.527 165.265 197.879 179.613 204.073 183.846C205.484 184.865 207.287 185.257 209.012 184.787C219.596 182.435 237.158 162.757 241.156 157.425C242.802 155.23 246.33 149.899 244.684 146.528C244.527 146.214 244.37 146.136 244.292 146.057C244.214 145.979 243.822 146.214 243.586 146.528C243.351 146.763 243.194 146.998 243.038 147.233C242.802 147.625 242.567 148.096 242.332 148.488C242.175 148.801 241.783 148.88 241.548 148.723C241.313 148.566 241.156 148.252 241.313 147.939C241.47 147.468 241.783 146.998 242.018 146.606C242.724 145.116 243.351 143.627 243.743 142.059C243.822 141.824 243.9 141.51 243.822 141.197C242.41 142.608 241.156 144.176 240.058 145.822L239.51 146.606C239.196 147.076 238.412 147.861 237.628 148.801C236.844 149.664 236.06 150.605 235.354 151.545C235.276 151.859 235.041 152.016 234.727 152.016C234.414 152.016 234.178 151.702 234.178 151.389C234.257 148.801 234.1 146.292 233.786 145.587C233.238 146.292 232.297 150.369 231.826 153.897C231.826 154.054 231.748 154.211 231.591 154.289C228.847 156.406 215.127 166.833 212.932 166.99C212.54 166.99 212.148 166.833 211.913 166.598C210.266 165.109 210.031 159.15 209.953 157.974C209.953 157.66 210.188 157.347 210.502 157.347C210.815 157.347 211.129 157.582 211.129 157.896C211.207 160.404 211.756 164.795 212.697 165.657C212.775 165.736 212.854 165.736 212.854 165.736C214.108 165.657 222.889 159.385 230.65 153.427C231.199 149.35 232.218 144.646 233.551 144.333C233.865 144.254 234.178 144.332 234.414 144.568C235.198 145.195 235.354 147.625 235.354 149.585C235.668 149.193 236.138 148.645 236.687 148.017C237.393 147.233 238.177 146.371 238.412 145.979L238.961 145.195C240.215 143.235 241.783 141.432 243.508 139.864C243.743 139.707 243.978 139.707 244.214 139.864C244.684 140.177 245.154 140.883 244.762 142.451C244.527 143.313 244.292 144.097 243.978 144.96C244.214 144.881 244.37 144.881 244.606 144.96C245.076 145.116 245.468 145.508 245.703 145.979C247.585 149.742 244.214 155.23 242.018 158.053C237.942 163.462 220.145 183.376 209.169 185.806C208.62 186.12 208.071 186.198 207.522 186.198Z" fill="#231F20"/>
<path d="M191.45 166.286C191.371 166.286 191.215 166.286 191.136 166.208C190.979 166.129 190.901 165.894 190.823 165.737L190.195 145.51C190.195 145.196 190.431 144.883 190.744 144.883C191.058 144.883 191.293 145.118 191.371 145.432L191.92 164.796L209.952 157.113C210.266 156.956 210.579 157.113 210.736 157.427C210.893 157.74 210.736 158.054 210.423 158.211L191.607 166.208C191.607 166.286 191.528 166.286 191.45 166.286Z" fill="#231F20"/>
<path d="M192.938 222.497C192.703 222.497 192.546 222.419 192.468 222.184C192.232 221.792 186.901 212.54 186.117 205.014C186.117 204.7 186.352 204.387 186.666 204.387C186.98 204.387 187.293 204.622 187.293 204.936C188.077 212.227 193.487 221.556 193.487 221.635C193.644 221.948 193.565 222.262 193.252 222.419C193.095 222.419 193.016 222.497 192.938 222.497Z" fill="white"/>
<path d="M206.659 119.953C206.659 119.953 205.248 121.756 203.602 120.502L206.659 119.953Z" fill="white"/>
<path d="M204.859 121.52C204.31 121.52 203.761 121.285 203.291 120.971C203.056 120.736 202.977 120.423 203.212 120.109C203.448 119.874 203.761 119.795 204.075 120.031C205.172 120.893 206.192 119.717 206.348 119.56C206.584 119.325 206.897 119.247 207.211 119.482C207.524 119.717 207.524 120.031 207.289 120.344C206.584 121.05 205.721 121.442 204.859 121.52Z" fill="#231F20"/>
</svg>
