<svg width="71" height="70" viewBox="0 0 71 70" fill="none" xmlns="http://www.w3.org/2000/svg">
<circle cx="35.041" cy="35" r="34.75" stroke="#2A3649" stroke-width="0.5"/>
<path d="M41.791 34.6667H29.291V38.8333H41.791V34.6667ZM47.5853 24.8359L41.2116 18.4557C40.9186 18.1628 40.5215 18 40.1048 18H39.7077V26.3333H48.041V25.9362C48.041 25.526 47.8783 25.1289 47.5853 24.8359ZM37.6243 26.8542V18H24.6035C23.7376 18 23.041 18.6966 23.041 19.5625V49.7708C23.041 50.6367 23.7376 51.3333 24.6035 51.3333H46.4785C47.3444 51.3333 48.041 50.6367 48.041 49.7708V28.4167H39.1868C38.3275 28.4167 37.6243 27.7135 37.6243 26.8542ZM27.2077 22.6875C27.2077 22.3997 27.4408 22.1667 27.7285 22.1667H32.9368C33.2246 22.1667 33.4577 22.3997 33.4577 22.6875V23.7292C33.4577 24.0169 33.2246 24.25 32.9368 24.25H27.7285C27.4408 24.25 27.2077 24.0169 27.2077 23.7292V22.6875ZM27.2077 26.8542C27.2077 26.5664 27.4408 26.3333 27.7285 26.3333H32.9368C33.2246 26.3333 33.4577 26.5664 33.4577 26.8542V27.8958C33.4577 28.1836 33.2246 28.4167 32.9368 28.4167H27.7285C27.4408 28.4167 27.2077 28.1836 27.2077 27.8958V26.8542ZM43.8743 46.6458C43.8743 46.9336 43.6413 47.1667 43.3535 47.1667H38.1452C37.8574 47.1667 37.6243 46.9336 37.6243 46.6458V45.6042C37.6243 45.3164 37.8574 45.0833 38.1452 45.0833H43.3535C43.6413 45.0833 43.8743 45.3164 43.8743 45.6042V46.6458ZM43.8743 33.625V39.875C43.8743 40.4505 43.4082 40.9167 42.8327 40.9167H28.2493C27.6738 40.9167 27.2077 40.4505 27.2077 39.875V33.625C27.2077 33.0495 27.6738 32.5833 28.2493 32.5833H42.8327C43.4082 32.5833 43.8743 33.0495 43.8743 33.625Z" fill="#2A3649"/>
</svg>
