<svg width="70" height="71" viewBox="0 0 70 71" fill="none" xmlns="http://www.w3.org/2000/svg">
<circle cx="35" cy="35.5" r="34.75" stroke="#C4C4C4" stroke-width="0.5"/>
<path d="M41.75 35.1667H29.25V39.3333H41.75V35.1667ZM47.5443 25.3359L41.1706 18.9557C40.8776 18.6628 40.4805 18.5 40.0638 18.5H39.6667V26.8333H48V26.4362C48 26.026 47.8372 25.6289 47.5443 25.3359ZM37.5833 27.3542V18.5H24.5625C23.6966 18.5 23 19.1966 23 20.0625V50.2708C23 51.1367 23.6966 51.8333 24.5625 51.8333H46.4375C47.3034 51.8333 48 51.1367 48 50.2708V28.9167H39.1458C38.2865 28.9167 37.5833 28.2135 37.5833 27.3542ZM27.1667 23.1875C27.1667 22.8997 27.3997 22.6667 27.6875 22.6667H32.8958C33.1836 22.6667 33.4167 22.8997 33.4167 23.1875V24.2292C33.4167 24.5169 33.1836 24.75 32.8958 24.75H27.6875C27.3997 24.75 27.1667 24.5169 27.1667 24.2292V23.1875ZM27.1667 27.3542C27.1667 27.0664 27.3997 26.8333 27.6875 26.8333H32.8958C33.1836 26.8333 33.4167 27.0664 33.4167 27.3542V28.3958C33.4167 28.6836 33.1836 28.9167 32.8958 28.9167H27.6875C27.3997 28.9167 27.1667 28.6836 27.1667 28.3958V27.3542ZM43.8333 47.1458C43.8333 47.4336 43.6003 47.6667 43.3125 47.6667H38.1042C37.8164 47.6667 37.5833 47.4336 37.5833 47.1458V46.1042C37.5833 45.8164 37.8164 45.5833 38.1042 45.5833H43.3125C43.6003 45.5833 43.8333 45.8164 43.8333 46.1042V47.1458ZM43.8333 34.125V40.375C43.8333 40.9505 43.3672 41.4167 42.7917 41.4167H28.2083C27.6328 41.4167 27.1667 40.9505 27.1667 40.375V34.125C27.1667 33.5495 27.6328 33.0833 28.2083 33.0833H42.7917C43.3672 33.0833 43.8333 33.5495 43.8333 34.125Z" fill="#C4C4C4"/>
</svg>
